<svg width="24" height="24" viewBox="0 0 24 24" fill="none" xmlns="http://www.w3.org/2000/svg">
<g clip-path="url(#clip0_3819_9244)">
<path d="M4 4C5.103 4 6 3.103 6 2C6 0.897 5.103 0 4 0C2.897 0 2 0.897 2 2C2 3.103 2.897 4 4 4ZM4 1C4.552 1 5 1.449 5 2C5 2.551 4.552 3 4 3C3.448 3 3 2.551 3 2C3 1.449 3.448 1 4 1ZM9 5C10.103 5 11 4.103 11 3C11 1.897 10.103 1 9 1C7.897 1 7 1.897 7 3C7 4.103 7.897 5 9 5ZM9 2C9.552 2 10 2.449 10 3C10 3.551 9.552 4 9 4C8.448 4 8 3.551 8 3C8 2.449 8.448 2 9 2ZM14 4C15.103 4 16 3.103 16 2C16 0.897 15.103 0 14 0C12.897 0 12 0.897 12 2C12 3.103 12.897 4 14 4ZM14 1C14.552 1 15 1.449 15 2C15 2.551 14.552 3 14 3C13.448 3 13 2.551 13 2C13 1.449 13.448 1 14 1ZM6.062 8.398C6.349 7.008 7.607 6 9.051 6C10.495 6 11.751 7.009 12.04 8.398C12.097 8.668 11.971 9 11.55 9C11.319 9 11.111 8.838 11.062 8.602C10.869 7.674 10.023 7 9.051 7C8.079 7 7.233 7.673 7.04 8.602C6.984 8.873 6.716 9.042 6.449 8.99C6.178 8.934 6.005 8.669 6.061 8.399L6.062 8.398ZM14 5C15.444 5 16.702 6.009 16.989 7.398C17.046 7.669 16.875 8.009 16.499 8C16.268 7.994 16.06 7.837 16.011 7.602C15.819 6.674 14.973 6 14 6C13.72 6 13.448 6.054 13.192 6.161C12.941 6.268 12.644 6.147 12.538 5.892C12.433 5.637 12.553 5.345 12.808 5.238C13.186 5.08 13.587 5 14 5ZM1.011 7.398C1.298 6.008 2.556 5 4 5C4.413 5 4.814 5.08 5.192 5.238C5.447 5.344 5.567 5.637 5.462 5.892C5.356 6.147 5.059 6.267 4.808 6.161C4.552 6.055 4.281 6 4 6C3.027 6 2.182 6.673 1.989 7.602C1.94 7.838 1.73 8.033 1.501 8C1.096 7.942 0.954 7.669 1.011 7.398ZM23.181 9.654C22.685 9.202 22.04 8.98 21.372 9.002C20.702 9.034 20.084 9.324 19.633 9.82L15.901 13.922C15.587 12.814 14.566 12 13.358 12H3.5C1.57 12 0 13.57 0 15.5V20.5C0 22.43 1.57 24 3.5 24H9.465C12.172 24 14.757 22.841 16.558 20.819L23.364 13.18C24.275 12.158 24.193 10.576 23.181 9.654ZM22.618 12.515L15.812 20.154C14.201 21.963 11.887 23 9.465 23H3.5C2.121 23 1 21.878 1 20.5V15.5C1 14.122 2.121 13 3.5 13H13.357C14.262 13 15 13.737 15 14.642C15 15.454 14.394 16.153 13.602 16.266L7.441 17.003C7.167 17.036 6.971 17.285 7.004 17.559C7.036 17.833 7.286 18.023 7.56 17.996L13.733 17.257C14.754 17.111 15.577 16.379 15.878 15.433L20.374 10.493C20.645 10.195 21.017 10.02 21.42 10.001C21.818 9.983 22.209 10.121 22.508 10.394C23.117 10.949 23.166 11.899 22.618 12.515Z" fill="#BFCBE3"/>
</g>
<defs>
<clipPath id="clip0_3819_9244">
<rect width="24" height="24" fill="white"/>
</clipPath>
</defs>
</svg>
