<svg width="24" height="24" viewBox="0 0 24 24" fill="none" xmlns="http://www.w3.org/2000/svg">
<path d="M20 21.051V13H20.543C21.347 13 22 12.347 22 11.543C22 11.01 21.709 10.52 21.24 10.264L13.066 5.80596C12.885 5.70696 12.694 5.63996 12.5 5.59496V4.65896L15.479 3.16796C15.805 2.94296 16 2.56396 16 2.15096C16 1.73796 15.805 1.35796 15.479 1.13296C15.454 1.11596 13.15 0.092961 13.005 0.049961C12.654 -0.056039 12.281 0.00996095 11.983 0.231961C11.681 0.456961 11.5 0.814961 11.5 1.18996V5.59496C11.305 5.63996 11.114 5.70696 10.934 5.80596L2.75998 10.264C2.29198 10.52 2.00098 11.01 2.00098 11.543C2.00098 12.347 2.65498 13 3.45798 13H4.00098V21.051C2.86098 21.283 2.00098 22.293 2.00098 23.5C2.00098 23.776 2.22498 24 2.50098 24C2.77698 24 3.00098 23.776 3.00098 23.5C3.00098 22.673 3.67398 22 4.50098 22C4.26398 22 19.702 22 19.501 22C20.328 22 21.001 22.673 21.001 23.5C21.001 23.776 21.225 24 21.501 24C21.777 24 22.001 23.776 22.001 23.5C22.001 22.292 21.14 21.283 20 21.051ZM12.5 1.18896C12.5 1.10196 12.555 1.05096 12.579 1.03396C12.601 1.01696 12.702 1.00296 12.717 1.00796C12.82 1.03796 12.921 1.07496 13.021 1.11996L14.935 1.97596C14.995 2.03496 14.999 2.12196 14.999 2.14996C14.999 2.17996 14.993 2.28696 14.971 2.30696L12.499 3.53996V1.18896H12.5ZM6.99998 21H4.99998V13H6.99998V21ZM9.99998 21H7.99998V13H9.99998V21ZM13 21H11V13H13V21ZM16 21H14V13H16V21ZM17 21V13H19V21H17ZM3.45698 12C3.20498 12 2.99998 11.795 2.99998 11.543C2.99998 11.375 3.09098 11.222 3.23798 11.141L11.412 6.68296C11.78 6.48396 12.22 6.48396 12.588 6.68296L20.762 11.141C20.908 11.222 21 11.375 21 11.543C21 11.795 20.795 12 20.543 12H3.45698Z" fill="#BFCBE3"/>
</svg>
