<svg width="277" height="221" viewBox="0 0 277 221" fill="none" xmlns="http://www.w3.org/2000/svg">
<path d="M70.0313 54.0402L20.5044 87.2145L69.2858 160.24L118.813 127.066L70.0313 54.0402Z" fill="#F5F5F5"/>
<path d="M93.2212 123.609L92.6589 127.092L68.0386 123.541L68.6005 120.057L93.2212 123.609Z" fill="#E0E0E0"/>
<path d="M80.8217 111.183L84.3547 111.693L80.4377 135.966L76.9043 135.457L80.8217 111.183Z" fill="#E0E0E0"/>
<path d="M58.1441 80.3313C58.1794 80.3843 53.2158 83.7705 47.0597 87.8939C40.9013 92.0187 35.8817 95.3186 35.8464 95.2656C35.8111 95.213 40.7733 91.8273 46.9321 87.7025C53.0883 83.5791 58.1087 80.2787 58.1441 80.3313Z" fill="#E0E0E0"/>
<path d="M76.3579 75.7534C76.3932 75.8064 68.1395 81.3964 57.9255 88.2372C47.7076 95.0807 39.3987 100.584 39.3634 100.531C39.3281 100.478 47.58 94.8893 57.7975 88.0458C68.0115 81.205 76.3226 75.7008 76.3579 75.7534Z" fill="#E0E0E0"/>
<path d="M80.0088 81.2191C80.0441 81.2722 71.7904 86.8621 61.5764 93.703C51.3585 100.546 43.0496 106.05 43.0143 105.997C42.979 105.944 51.2309 100.355 61.4484 93.5116C71.6628 86.6707 79.9734 81.1665 80.0088 81.2191Z" fill="#E0E0E0"/>
<path d="M83.6596 86.6851C83.6949 86.7381 75.4412 92.3281 65.2273 99.1689C55.0093 106.012 46.7005 111.516 46.6652 111.463C46.6298 111.41 54.8818 105.821 65.0993 98.9775C75.3137 92.1363 83.6243 86.632 83.6596 86.6851Z" fill="#E0E0E0"/>
<path d="M87.311 92.1508C87.3463 92.2039 79.0926 97.7934 68.8786 104.635C58.6607 111.478 50.3518 116.982 50.3165 116.928C50.2812 116.875 58.5331 111.287 68.7506 104.443C78.9646 97.6025 87.2757 92.0982 87.311 92.1508Z" fill="#E0E0E0"/>
<path d="M235.642 102.975L194.048 130.836L235.016 192.165L276.61 164.304L235.642 102.975Z" fill="#F5F5F5"/>
<path d="M255.117 161.409L254.645 164.335L233.968 161.351L234.44 158.426L255.117 161.409Z" fill="#E0E0E0"/>
<path d="M244.704 150.973L247.671 151.402L244.381 171.787L241.414 171.359L244.704 150.973Z" fill="#E0E0E0"/>
<path d="M225.658 125.063C225.694 125.116 221.53 127.967 216.359 131.43C211.187 134.894 206.967 137.658 206.932 137.605C206.897 137.552 211.059 134.702 216.232 131.238C221.402 127.776 225.623 125.011 225.658 125.063Z" fill="#E0E0E0"/>
<path d="M240.955 121.218C240.99 121.271 234.063 125.972 225.485 131.718C216.904 137.465 209.921 142.08 209.886 142.027C209.851 141.974 216.776 137.274 225.357 131.526C233.935 125.781 240.919 121.165 240.955 121.218Z" fill="#E0E0E0"/>
<path d="M244.021 125.808C244.056 125.861 237.129 130.563 228.551 136.308C219.97 142.055 212.988 146.67 212.952 146.617C212.917 146.564 219.842 141.864 228.424 136.116C237.001 130.371 243.986 125.755 244.021 125.808Z" fill="#E0E0E0"/>
<path d="M247.086 130.399C247.122 130.452 240.195 135.153 231.617 140.898C223.036 146.646 216.053 151.261 216.018 151.208C215.982 151.155 222.908 146.454 231.489 140.707C240.067 134.962 247.051 130.346 247.086 130.399Z" fill="#E0E0E0"/>
<path d="M250.153 134.99C250.188 135.043 243.261 139.744 234.683 145.49C226.102 151.237 219.119 155.852 219.084 155.799C219.049 155.746 225.974 151.045 234.556 145.298C243.133 139.553 250.117 134.937 250.153 134.99Z" fill="#E0E0E0"/>
<path d="M169.834 56.7211L124.451 32.4161L88.7113 99.3329L134.095 123.638L169.834 56.7211Z" fill="#F5F5F5"/>
<path d="M126.327 102.707L123.448 103.694L116.139 83.4623L119.019 82.4749L126.327 102.707Z" fill="#E0E0E0"/>
<path d="M130.741 88.1921L131.791 91.0956L111.725 97.9771L110.676 95.0736L130.741 88.1921Z" fill="#E0E0E0"/>
<path d="M144.999 58.3409C144.963 58.4077 140.36 56.0116 134.719 52.9905C129.076 49.9681 124.531 47.4651 124.567 47.3983C124.602 47.332 129.204 49.7272 134.848 52.7492C140.489 55.7707 145.035 58.2746 144.999 58.3409Z" fill="#E0E0E0"/>
<path d="M155.889 70.3784C155.854 70.4451 148.235 66.4344 138.876 61.4221C129.513 56.4076 121.954 52.2904 121.99 52.2236C122.026 52.1573 129.642 56.1667 139.005 61.1812C148.364 66.1935 155.925 70.3116 155.889 70.3784Z" fill="#E0E0E0"/>
<path d="M153.214 75.3873C153.179 75.454 145.561 71.4433 136.201 66.4306C126.838 61.4161 119.279 57.2989 119.315 57.2321C119.351 57.1658 126.967 61.1752 136.33 66.1897C145.69 71.202 153.25 75.3205 153.214 75.3873Z" fill="#E0E0E0"/>
<path d="M150.539 80.395C150.503 80.4617 142.885 76.451 133.526 71.4383C124.163 66.4243 116.604 62.3066 116.64 62.2398C116.675 62.1731 124.292 66.1829 133.655 71.1974C143.014 76.2101 150.575 80.3287 150.539 80.395Z" fill="#E0E0E0"/>
<path d="M147.864 85.4041C147.829 85.4709 140.211 81.4602 130.851 76.4474C121.488 71.4334 113.929 67.3157 113.965 67.249C114.001 67.1827 121.617 71.1921 130.98 76.2065C140.339 81.2193 147.9 85.3378 147.864 85.4041Z" fill="#E0E0E0"/>
<path opacity="0.2" d="M148.103 0H146.962V19.4405H148.103V0Z" fill="black"/>
<path d="M120.947 42.9578H174.119C174.119 42.9578 169.209 19.4288 147.13 19.4288C127.491 19.4283 120.947 42.9578 120.947 42.9578Z" fill="#FF6F00"/>
<path d="M148.103 0H146.963V19.4405H148.103V0Z" fill="#767676"/>
<path d="M265.917 194.404C265.917 194.468 208.866 194.519 138.506 194.519C68.1223 194.519 11.0835 194.468 11.0835 194.404C11.0835 194.341 68.1223 194.29 138.506 194.29C208.866 194.29 265.917 194.341 265.917 194.404Z" fill="#535353"/>
<path d="M104.935 103.669L89.3269 184.024L87.2837 194.543L191.482 194.028C196.158 194.005 200.302 189.847 201.807 183.67L220.283 107.806C221.425 103.116 218.919 98.239 215.369 98.243L109.909 98.3539C107.581 98.357 105.545 100.533 104.935 103.669Z" fill="#767676"/>
<g opacity="0.5">
<path d="M104.935 103.669L89.3269 184.024L87.2837 194.543L191.482 194.028C196.158 194.005 200.302 189.847 201.807 183.67L220.283 107.806C221.425 103.116 218.919 98.239 215.369 98.243L109.909 98.3539C107.581 98.357 105.545 100.533 104.935 103.669Z" fill="#657156"/>
</g>
<path d="M181.486 178.58L170.454 89.5573C170.002 85.9094 167.1 83.1885 163.674 83.2L139.483 83.2791C137.693 83.2849 135.976 84.0473 134.704 85.4011L123.216 97.6291L55.9359 97.9805C51.8243 98.0021 48.6656 101.897 49.2107 106.275L59.4538 188.554C59.9071 192.197 62.8036 194.914 66.2249 194.907L183.481 194.675C196.541 194.946 197.787 191.084 197.787 191.084C182.821 194.405 181.488 178.59 181.486 178.58Z" fill="#FF8C33"/>
<g opacity="0.5">
<path d="M130.926 160.763L126.972 165.016L96.5142 137.579L100.469 133.326L130.926 160.763Z" fill="white"/>
<path d="M125.315 132.383L129.685 136.32L102.127 165.959L97.7559 162.022L125.315 132.383Z" fill="white"/>
</g>
<path d="M210.111 79.7978C209.829 79.6766 209.626 79.4022 209.612 79.0746L209.436 74.9711C209.424 74.713 209.535 74.4646 209.733 74.3002C209.932 74.1353 210.196 74.0739 210.447 74.1331C211.106 74.2887 211.833 74.145 212.44 73.7388C213 73.3649 213.376 72.8141 213.471 72.2276C213.566 71.6433 213.385 70.9966 212.975 70.453C212.536 69.8709 211.887 69.4788 211.236 69.4041C209.907 69.2507 208.472 70.2704 208.102 71.6309C207.983 72.0703 207.531 72.3302 207.092 72.2104C206.646 72.0875 206.394 71.6375 206.513 71.1982C207.093 69.0598 209.296 67.5199 211.425 67.7652C212.528 67.8925 213.574 68.5095 214.289 69.458C214.97 70.3597 215.264 71.4656 215.096 72.4928C214.928 73.5293 214.293 74.4831 213.355 75.1103C212.677 75.5634 211.899 75.8136 211.121 75.8405L211.258 79.0035C211.277 79.4587 210.925 79.8433 210.47 79.8627C210.343 79.8685 210.221 79.8446 210.111 79.7978Z" fill="#FF6F00"/>
<path d="M211.318 81.339C211.344 81.7108 211.064 82.033 210.692 82.0582C210.321 82.0838 209.999 81.8031 209.974 81.4314C209.948 81.0597 210.228 80.7375 210.6 80.7118C210.971 80.6862 211.293 80.9673 211.318 81.339Z" fill="#723881"/>
<path d="M212.601 60.0829C212.6 60.0882 212.689 60.1114 212.864 60.1508C213.053 60.1917 213.309 60.2483 213.639 60.3202C213.984 60.3767 214.394 60.51 214.878 60.6667C215.118 60.7508 215.388 60.8096 215.655 60.9291C215.924 61.0443 216.21 61.1667 216.512 61.2957C217.699 61.852 219.108 62.6653 220.463 63.9261C221.815 65.1785 223.103 66.8748 223.994 68.971C224.472 70.0077 224.76 71.1657 224.994 72.3727C225.151 73.5896 225.26 74.8737 225.092 76.1852C225.058 76.8465 224.893 77.4993 224.766 78.169C224.699 78.503 224.574 78.8255 224.48 79.1585C224.382 79.491 224.28 79.8249 224.131 80.1449C223.642 81.466 222.865 82.7176 221.942 83.8909C220.096 86.2468 217.298 88.0989 214.054 88.9337C212.43 89.3528 210.689 89.4511 208.959 89.2656C207.222 89.1167 205.497 88.5937 203.904 87.7996L203.424 87.5481L203.36 87.5151L203.295 87.5354C200.646 88.3701 198.047 89.1889 195.53 89.9819L195.72 90.1893C196.827 88.01 197.901 85.8964 198.932 83.869L198.971 83.7909L198.916 83.7206C197.341 81.7057 196.375 79.396 195.983 77.1201C195.591 74.837 195.792 72.6007 196.364 70.6079C196.936 68.6106 197.904 66.8603 199.061 65.4379C200.219 64.011 201.561 62.9105 202.893 62.0937C204.238 61.2853 205.581 60.8014 206.771 60.4544C207.981 60.1663 209.043 60.0235 209.913 59.9921C210.347 59.9855 210.732 59.9797 211.069 59.9748C211.398 60.0008 211.678 60.0233 211.909 60.0417C212.126 60.0575 212.296 60.0698 212.425 60.0789C212.541 60.0859 212.601 60.0873 212.601 60.0829C212.601 60.079 212.543 60.0693 212.428 60.0539C212.3 60.0385 212.13 60.0183 211.914 59.9927C211.682 59.9677 211.4 59.937 211.071 59.9021C210.732 59.9005 210.344 59.8985 209.908 59.8968C209.031 59.9133 207.958 60.0424 206.732 60.3203C205.525 60.6568 204.161 61.1344 202.792 61.9421C201.436 62.7582 200.068 63.8643 198.885 65.3049C197.701 66.741 196.709 68.5131 196.118 70.5396C195.529 72.5612 195.315 74.834 195.707 77.1584C196.098 79.4761 197.075 81.8319 198.678 83.8892L198.662 83.7404C197.629 85.7666 196.552 87.8776 195.441 90.0561L195.278 90.3747L195.631 90.264C198.15 89.4719 200.748 88.6549 203.398 87.8216L203.27 87.809L203.761 88.066C205.389 88.878 207.154 89.4115 208.929 89.5636C210.697 89.7522 212.478 89.6492 214.136 89.2191C217.45 88.3628 220.298 86.4661 222.174 84.0621C223.111 82.865 223.896 81.5877 224.391 80.2422C224.541 79.9162 224.644 79.5761 224.742 79.2379C224.837 78.8992 224.962 78.5705 225.029 78.2307C225.156 77.5498 225.321 76.8855 225.352 76.2137C225.517 74.88 225.401 73.5753 225.235 72.3408C224.991 71.1159 224.691 69.9424 224.2 68.8933C223.283 66.772 221.964 65.0623 220.584 63.8064C219.203 62.5419 217.768 61.7348 216.563 61.1903C216.256 61.0644 215.966 60.9451 215.693 60.8335C215.422 60.7172 215.149 60.662 214.906 60.582C214.416 60.4336 214.002 60.3087 213.653 60.2616C213.32 60.2018 213.06 60.1551 212.869 60.1207C212.692 60.0908 212.602 60.0781 212.601 60.0829Z" fill="#FF6F00"/>
</svg>
