<svg width="22" height="22" viewBox="0 0 22 22" fill="none" xmlns="http://www.w3.org/2000/svg">
<path d="M12.8333 12.8333C12.8333 13.8444 12.0111 14.6667 11 14.6667C9.98892 14.6667 9.16667 13.8444 9.16667 12.8333C9.16667 11.8223 9.98892 11 11 11C12.0111 11 12.8333 11.8223 12.8333 12.8333ZM22 11C22 17.0656 17.0656 22 11 22C4.93442 22 0 17.0656 0 11C0 4.93442 4.93442 0 11 0C17.0656 0 22 4.93442 22 11ZM14.6667 12.8333C14.6667 10.8112 13.0222 9.16667 11 9.16667C10.4143 9.16667 9.86792 9.317 9.37658 9.56267C9.81475 8.06942 10.9542 7.33333 12.8333 7.33333C13.3393 7.33333 13.75 6.92358 13.75 6.41667C13.75 5.90975 13.3393 5.5 12.8333 5.5C9.33808 5.5 7.33333 7.57167 7.33333 11.1833V12.8333C7.33333 14.8555 8.97783 16.5 11 16.5C13.0222 16.5 14.6667 14.8555 14.6667 12.8333Z" fill="#FF6F00"/>
</svg>
