<svg width="32" height="32" viewBox="0 0 32 32" fill="none" xmlns="http://www.w3.org/2000/svg">
<g clip-path="url(#clip0_5023_12857)">
<path d="M26 0H6C2.69333 0 0 2.69333 0 6V26C0 29.3067 2.69333 32 6 32H26C29.3067 32 32 29.3067 32 26V6C32 2.69333 29.3067 0 26 0ZM30.6667 6V15.3333H16.6667V1.33333H26C28.5733 1.33333 30.6667 3.42667 30.6667 6ZM6 1.33333H15.3333V15.3333H1.33333V6C1.33333 3.42667 3.42667 1.33333 6 1.33333ZM1.33333 26V16.6667H15.3333V30.6667H6C3.42667 30.6667 1.33333 28.5733 1.33333 26ZM26 30.6667H16.6667V16.6667H30.6667V26C30.6667 28.5733 28.5733 30.6667 26 30.6667Z" fill="#FF6F00"/>
</g>
<defs>
<clipPath id="clip0_5023_12857">
<rect width="32" height="32" fill="white"/>
</clipPath>
</defs>
</svg>
