<svg width="37" height="37" viewBox="0 0 37 37" fill="none" xmlns="http://www.w3.org/2000/svg">
<path d="M4.37227 19.8486C3.8358 19.8492 3.32147 20.0626 2.94213 20.4419C2.56279 20.8213 2.34942 21.3356 2.34883 21.8721L2.3127 29.3596C2.30897 29.6277 2.35856 29.8938 2.45857 30.1426C2.55859 30.3913 2.70705 30.6177 2.89532 30.8086C3.08358 30.9994 3.3079 31.151 3.55525 31.2545C3.80259 31.3579 4.06803 31.4111 4.33613 31.4111H25.7629C26.2993 31.4106 26.8136 31.1972 27.193 30.8178C27.5724 30.4385 27.7857 29.9242 27.7863 29.3877V28.7054L28.2886 28.6049C29.4974 28.3626 30.7386 28.3281 31.959 28.503L32.225 28.541C32.5354 28.5853 32.8519 28.5624 33.1527 28.4738C33.4536 28.3852 33.7319 28.233 33.9688 28.0275C34.2058 27.822 34.3958 27.568 34.5261 27.2827C34.6563 26.9974 34.7238 26.6874 34.7238 26.3738V24.1846C34.7238 24.126 34.715 24.0678 34.6975 24.0119C34.6162 23.4965 34.3537 23.0269 33.9572 22.6877C33.5608 22.3485 33.0563 22.1618 32.5346 22.1611C32.4895 22.1611 32.4447 22.1663 32.401 22.1767C30.8871 22.5385 29.313 22.5687 27.7863 22.2652V21.8721C27.7858 21.3356 27.5724 20.8213 27.193 20.4419C26.8136 20.0626 26.2993 19.8492 25.7629 19.8486H24.2251V19.1164C25.0177 18.8703 25.6959 18.3483 26.1366 17.6449C26.5772 16.9416 26.7512 16.1036 26.6268 15.283C26.5025 14.4624 26.0882 13.7136 25.459 13.1723C24.8298 12.631 24.0274 12.3333 23.1975 12.333H6.5041C5.67412 12.3332 4.87171 12.631 4.24246 13.1722C3.61322 13.7134 3.19884 14.4623 3.0745 15.2829C2.95015 16.1035 3.12409 16.9415 3.56476 17.6449C4.00542 18.3482 4.6836 18.8703 5.47627 19.1164V19.8486H4.37227ZM26.6301 29.3877C26.6298 29.6176 26.5383 29.838 26.3758 30.0006C26.2132 30.1632 25.9928 30.2546 25.7629 30.2549H4.33613C4.22123 30.2549 4.10748 30.232 4.00148 30.1877C3.89548 30.1434 3.79934 30.0785 3.71866 29.9967C3.63797 29.9149 3.57435 29.8178 3.53148 29.7112C3.48861 29.6046 3.46736 29.4906 3.46895 29.3757L3.47574 28.8886C3.75417 29.027 4.06091 29.0989 4.37183 29.0987H25.7625C26.0625 29.099 26.3588 29.0321 26.6297 28.903L26.6301 29.3877ZM33.5676 26.3738C33.5676 26.5218 33.5358 26.6681 33.4743 26.8027C33.4129 26.9373 33.3232 27.0572 33.2114 27.1542C33.0996 27.2512 32.9682 27.3229 32.8263 27.3648C32.6843 27.4065 32.535 27.4174 32.3885 27.3964L32.1225 27.3584C30.7724 27.1649 29.3992 27.2031 28.0619 27.4711L27.7325 27.537C27.7681 27.3856 27.7862 27.2307 27.7863 27.0752V26.6819L28.2886 26.5815C29.4974 26.3392 30.7387 26.3048 31.9591 26.4796L32.2249 26.5176C32.6863 26.5835 33.1568 26.5003 33.5676 26.2802V26.3738ZM17.1803 13.4893H18.717C19.2992 13.489 19.86 13.7084 20.2876 14.1036C20.7151 14.4987 20.9778 15.0406 21.0234 15.621C21.0688 16.2014 20.8937 16.7776 20.533 17.2346C20.1723 17.6916 19.6525 17.9957 19.0774 18.0861C18.9412 18.1075 18.817 18.1767 18.7274 18.2815C18.6377 18.3862 18.5885 18.5195 18.5885 18.6574V19.8486C18.5885 20.002 18.6494 20.149 18.7578 20.2574C18.8662 20.3658 19.0133 20.4268 19.1666 20.4268C19.3199 20.4268 19.467 20.3658 19.5755 20.2574C19.6838 20.149 19.7448 20.002 19.7448 19.8486V19.1164C20.3001 18.9443 20.8031 18.6354 21.2078 18.218C21.6125 17.8006 21.9057 17.2882 22.0605 16.7278C22.2153 16.1676 22.2268 15.5773 22.0938 15.0114C21.9609 14.4454 21.6878 13.9221 21.2996 13.4893H23.1975C23.7796 13.489 24.3405 13.7084 24.768 14.1036C25.1955 14.4987 25.4583 15.0406 25.5038 15.621C25.5493 16.2014 25.3742 16.7776 25.0135 17.2346C24.6528 17.6916 24.133 17.9957 23.5579 18.0861C23.4216 18.1075 23.2975 18.1767 23.2079 18.2815C23.1182 18.3862 23.069 18.5195 23.069 18.6574V24.4736H19.7287V22.1611C19.7287 22.0078 19.6678 21.8608 19.5594 21.7523C19.4509 21.6439 19.3039 21.583 19.1506 21.583C18.9973 21.583 18.8502 21.6439 18.7418 21.7523C18.6334 21.8608 18.5725 22.0078 18.5725 22.1611V24.4736H15.6254V19.1164C16.1807 18.9443 16.6837 18.6354 17.0884 18.218C17.4931 17.8006 17.7863 17.2882 17.9412 16.7278C18.096 16.1676 18.1074 15.5773 17.9745 15.0114C17.8415 14.4454 17.5684 13.9221 17.1803 13.4893ZM4.1916 15.8018C4.19229 15.1887 4.43615 14.6008 4.86968 14.1673C5.30321 13.7338 5.891 13.49 6.5041 13.4893H14.5979C15.18 13.489 15.7409 13.7084 16.1684 14.1036C16.5959 14.4987 16.8587 15.0406 16.9042 15.621C16.9497 16.2014 16.7746 16.7776 16.4139 17.2346C16.0532 17.6916 15.5333 17.9957 14.9583 18.0861C14.822 18.1075 14.6979 18.1767 14.6083 18.2815C14.5186 18.3862 14.4694 18.5195 14.4694 18.6574V24.4736H6.6323V18.6574C6.63232 18.5195 6.58306 18.3862 6.49341 18.2815C6.40377 18.1767 6.27964 18.1075 6.14342 18.0861C5.59814 18.0029 5.10099 17.7263 4.74266 17.307C4.38435 16.8875 4.18876 16.3534 4.1916 15.8018ZM6.63252 25.6299H23.0688C23.3753 25.6295 23.6692 25.5076 23.886 25.2908C24.1027 25.0741 24.2247 24.7802 24.225 24.4736V21.0049H25.7629C25.9928 21.0052 26.2132 21.0966 26.3758 21.2592C26.5384 21.4218 26.6298 21.6422 26.6301 21.8721V22.2948C26.6307 22.5536 26.7206 22.8043 26.8847 23.0045C27.0487 23.2046 27.2769 23.342 27.5306 23.3933C29.2043 23.7306 30.9309 23.7053 32.5941 23.319C32.7332 23.327 32.8693 23.3631 32.9942 23.425C33.119 23.4869 33.23 23.5735 33.3205 23.6795C33.411 23.7854 33.4791 23.9087 33.5208 24.0416C33.5625 24.1746 33.5768 24.3146 33.5629 24.4533C33.5489 24.592 33.5072 24.7264 33.44 24.8485C33.3728 24.9706 33.2816 25.0778 33.1719 25.1638C33.0622 25.2496 32.9362 25.3125 32.8015 25.3485C32.6669 25.3844 32.5264 25.3928 32.3884 25.373L32.1226 25.335C30.7724 25.1414 29.3992 25.1796 28.0619 25.4477L27.5306 25.5539C27.2769 25.6052 27.0487 25.7426 26.8847 25.9427C26.7206 26.1429 26.6307 26.3936 26.6301 26.6524V27.0751C26.6298 27.305 26.5383 27.5254 26.3758 27.688C26.2132 27.8506 25.9928 27.942 25.7629 27.9423H4.37227C4.14235 27.942 3.92194 27.8506 3.75937 27.688C3.59679 27.5255 3.50535 27.3051 3.50508 27.0751V21.872C3.50532 21.6421 3.59677 21.4216 3.75935 21.2591C3.92192 21.0965 4.14235 21.0051 4.37227 21.0048H5.47605V24.4736C5.47639 24.7801 5.59832 25.074 5.81509 25.2908C6.03185 25.5076 6.32574 25.6295 6.6323 25.6299H6.63252Z" fill="#BFCBE3"/>
<path d="M7.58743 16.3799C7.9067 16.3799 8.16556 16.121 8.16556 15.8018C8.16556 15.4825 7.9067 15.2236 7.58743 15.2236C7.26809 15.2236 7.00928 15.4825 7.00928 15.8018C7.00928 16.121 7.26809 16.3799 7.58743 16.3799Z" fill="#BFCBE3"/>
<path d="M8.74414 19.2705C9.06341 19.2705 9.32227 19.0117 9.32227 18.6924C9.32227 18.3731 9.06341 18.1143 8.74414 18.1143C8.4248 18.1143 8.16602 18.3731 8.16602 18.6924C8.16602 19.0117 8.4248 19.2705 8.74414 19.2705Z" fill="#BFCBE3"/>
<path d="M10.4785 16.3799C10.7978 16.3799 11.0566 16.121 11.0566 15.8018C11.0566 15.4825 10.7978 15.2236 10.4785 15.2236C10.1592 15.2236 9.90039 15.4825 9.90039 15.8018C9.90039 16.121 10.1592 16.3799 10.4785 16.3799Z" fill="#BFCBE3"/>
<path d="M13.9473 16.3799C14.2665 16.3799 14.5254 16.121 14.5254 15.8018C14.5254 15.4825 14.2665 15.2236 13.9473 15.2236C13.6279 15.2236 13.3691 15.4825 13.3691 15.8018C13.3691 16.121 13.6279 16.3799 13.9473 16.3799Z" fill="#BFCBE3"/>
<path d="M12.2129 18.6924C12.5322 18.6924 12.791 18.4335 12.791 18.1143C12.791 17.795 12.5322 17.5361 12.2129 17.5361C11.8935 17.5361 11.6348 17.795 11.6348 18.1143C11.6348 18.4335 11.8935 18.6924 12.2129 18.6924Z" fill="#BFCBE3"/>
<path d="M8.74414 22.7393C9.06341 22.7393 9.32227 22.4804 9.32227 22.1611C9.32227 21.8419 9.06341 21.583 8.74414 21.583C8.4248 21.583 8.16602 21.8419 8.16602 22.1611C8.16602 22.4804 8.4248 22.7393 8.74414 22.7393Z" fill="#BFCBE3"/>
<path d="M11.0566 21.0049C11.3759 21.0049 11.6348 20.746 11.6348 20.4268C11.6348 20.1075 11.3759 19.8486 11.0566 19.8486C10.7373 19.8486 10.4785 20.1075 10.4785 20.4268C10.4785 20.746 10.7373 21.0049 11.0566 21.0049Z" fill="#BFCBE3"/>
<path d="M12.791 23.3174C13.1103 23.3174 13.3691 23.0585 13.3691 22.7393C13.3691 22.42 13.1103 22.1611 12.791 22.1611C12.4717 22.1611 12.2129 22.42 12.2129 22.7393C12.2129 23.0585 12.4717 23.3174 12.791 23.3174Z" fill="#BFCBE3"/>
<path d="M15.3203 6.9375C15.3203 6.78417 15.2594 6.63712 15.151 6.5287C15.0426 6.42029 14.8955 6.35938 14.7422 6.35938C14.5888 6.35938 14.4418 6.42029 14.3334 6.5287C14.225 6.63712 14.1641 6.78417 14.1641 6.9375C14.1641 7.22786 14.0932 7.34016 13.9643 7.54403C13.7178 7.90463 13.5859 8.33129 13.5859 8.76813C13.5859 9.20498 13.7178 9.63163 13.9643 9.99224C14.0931 10.1961 14.1641 10.3085 14.1641 10.5993C14.1641 10.7526 14.225 10.8997 14.3334 11.0081C14.4418 11.1165 14.5888 11.1774 14.7422 11.1774C14.8955 11.1774 15.0426 11.1165 15.151 11.0081C15.2594 10.8997 15.3203 10.7526 15.3203 10.5993C15.3269 10.1615 15.1944 9.73288 14.9419 9.37516C14.8132 9.17123 14.7422 9.05886 14.7422 8.76813C14.7422 8.47741 14.8131 8.36547 14.9419 8.16161C15.1944 7.80389 15.3269 7.37529 15.3203 6.9375Z" fill="#BFCBE3"/>
<path d="M19.0781 6.9375C19.0781 6.78417 19.0172 6.63712 18.9088 6.5287C18.8004 6.42029 18.6533 6.35938 18.5 6.35938C18.3467 6.35938 18.1996 6.42029 18.0912 6.5287C17.9828 6.63712 17.9219 6.78417 17.9219 6.9375C17.9219 7.22786 17.851 7.34016 17.7221 7.54403C17.4756 7.90463 17.3438 8.33129 17.3438 8.76813C17.3438 9.20498 17.4756 9.63163 17.7221 9.99224C17.8509 10.1961 17.9219 10.3085 17.9219 10.5993C17.9219 10.7526 17.9828 10.8997 18.0912 11.0081C18.1996 11.1165 18.3467 11.1774 18.5 11.1774C18.6533 11.1774 18.8004 11.1165 18.9088 11.0081C19.0172 10.8997 19.0781 10.7526 19.0781 10.5993C19.0847 10.1615 18.9522 9.73288 18.6997 9.37516C18.571 9.17123 18.5 9.05886 18.5 8.76813C18.5 8.47741 18.5709 8.36547 18.6997 8.16161C18.9522 7.80389 19.0847 7.37529 19.0781 6.9375Z" fill="#BFCBE3"/>
<path d="M11.5625 6.9375C11.5625 6.78417 11.5016 6.63712 11.3932 6.5287C11.2848 6.42029 11.1377 6.35938 10.9844 6.35938C10.831 6.35938 10.684 6.42029 10.5756 6.5287C10.4672 6.63712 10.4062 6.78417 10.4062 6.9375C10.4062 7.22786 10.3354 7.34016 10.2065 7.54403C9.96001 7.90463 9.82812 8.33129 9.82812 8.76813C9.82812 9.20498 9.96001 9.63163 10.2065 9.99224C10.3353 10.1961 10.4062 10.3085 10.4062 10.5993C10.4062 10.7526 10.4672 10.8997 10.5756 11.0081C10.684 11.1165 10.831 11.1774 10.9844 11.1774C11.1377 11.1774 11.2848 11.1165 11.3932 11.0081C11.5016 10.8997 11.5625 10.7526 11.5625 10.5993C11.5691 10.1615 11.4365 9.73288 11.1841 9.37516C11.0553 9.17123 10.9844 9.05886 10.9844 8.76813C10.9844 8.47741 11.0553 8.36547 11.1841 8.16161C11.4366 7.80389 11.5691 7.37529 11.5625 6.9375Z" fill="#BFCBE3"/>
</svg>
