<svg width="32" height="32" viewBox="0 0 32 32" fill="none" xmlns="http://www.w3.org/2000/svg">
<g clip-path="url(#clip0_4332_7994)">
<path d="M28.7694 12.0001C30.5001 8.01742 31.1027 4.35209 30.3174 2.22409C29.8827 1.04142 29.1214 0.502756 28.5587 0.258756C25.1001 -1.24391 20.5467 3.81209 17.7867 9.14809C17.7867 9.14809 17.2681 10.1481 16.9881 10.7041C16.8441 10.1414 16.6654 9.58542 16.4281 9.04809L15.2334 6.33742C14.8574 5.48409 14.6667 4.58009 14.6667 3.64809V2.66676H16.0001V8.94796e-05H4.00005V2.66676H5.33339V3.64809C5.33339 4.57876 5.14272 5.48409 4.76672 6.33742L3.57205 9.04809C3.15339 9.99476 2.88939 10.9841 2.76005 12.0001H-0.0439453L2.51205 28.6068C2.81339 30.5734 4.47605 32.0001 6.46539 32.0001H25.5361C27.5254 32.0001 29.1881 30.5734 29.4894 28.6081L32.0454 12.0001H28.7694ZM21.3734 8.24542L23.9801 9.80942L25.3521 7.52276L22.9187 6.06276C24.9934 3.47609 26.8601 2.43476 27.4961 2.70409C27.6214 2.75876 27.7281 2.90676 27.8161 3.14542C28.2974 4.45209 27.8814 7.75209 25.8401 12.0001H19.3187C19.6134 11.4121 19.8774 10.9054 20.0481 10.5774C20.0481 10.5774 20.9627 8.89609 21.3721 8.24676L21.3734 8.24542ZM6.01339 10.1241L7.20806 7.41342C7.73472 6.21876 8.00139 4.95209 8.00139 3.64942V2.66809H12.0014V3.64942C12.0014 4.95342 12.2681 6.21876 12.7947 7.41342L13.9894 10.1241C14.2561 10.7281 14.4347 11.3574 14.5454 12.0001H5.46005C5.56939 11.3574 5.74939 10.7281 6.01605 10.1241H6.01339ZM26.8534 28.2041C26.7534 28.8588 26.1987 29.3348 25.5361 29.3348H6.46539C5.80272 29.3348 5.24805 28.8601 5.14805 28.2028L3.06539 14.6681H28.9347L26.8534 28.2041ZM17.3334 26.6681H14.6667V17.3348H17.3334V26.6681ZM24.0001 26.6681H21.3334V17.3348H24.0001V26.6681ZM10.6667 26.6681H8.00005V17.3348H10.6667V26.6681Z" fill="#BFCBE3"/>
</g>
<defs>
<clipPath id="clip0_4332_7994">
<rect width="32" height="32" fill="white"/>
</clipPath>
</defs>
</svg>
