<svg width="32" height="32" viewBox="0 0 32 32" fill="none" xmlns="http://www.w3.org/2000/svg">
<g clip-path="url(#clip0_4332_3391)">
<path d="M31.8547 8.60516C31.7752 8.76134 31.6657 8.90032 31.5324 9.01415C31.3992 9.12797 31.2448 9.21442 31.0781 9.26853C30.9114 9.32265 30.7357 9.34337 30.561 9.32953C30.3863 9.31568 30.2161 9.26753 30.06 9.18783L18.336 3.19983C17.6048 2.84591 16.8026 2.66285 15.9903 2.66446C15.1779 2.66608 14.3765 2.85234 13.6467 3.20916L1.94 9.18249C1.62492 9.34339 1.25883 9.37253 0.922264 9.26351C0.585698 9.15449 0.306226 8.91624 0.145328 8.60116C-0.0155697 8.28608 -0.0447138 7.91999 0.0643073 7.58343C0.173328 7.24686 0.411585 6.96739 0.726662 6.80649L12.452 0.830492C13.5533 0.29017 14.7635 0.00846042 15.9902 0.00684294C17.217 0.00522547 18.4279 0.283743 19.5307 0.821158L31.2733 6.81183C31.5882 6.97261 31.8263 7.25184 31.9353 7.58813C32.0443 7.92442 32.0153 8.29024 31.8547 8.60516ZM29.4373 17.4932C30.242 18.9044 30.6657 20.5007 30.6667 22.1252V23.9998C30.6664 24.9358 30.4199 25.8552 29.9518 26.6657C29.4837 27.4761 28.8105 28.1492 28 28.6172V29.3332C28 30.0404 27.719 30.7187 27.2189 31.2188C26.7188 31.7189 26.0406 31.9998 25.3333 31.9998C24.6261 31.9998 23.9478 31.7189 23.4477 31.2188C22.9476 30.7187 22.6667 30.0404 22.6667 29.3332H9.33333C9.33333 30.0404 9.05238 30.7187 8.55228 31.2188C8.05218 31.7189 7.37391 31.9998 6.66666 31.9998C5.95942 31.9998 5.28114 31.7189 4.78104 31.2188C4.28095 30.7187 4 30.0404 4 29.3332V28.6172C3.18944 28.1492 2.51631 27.4761 2.04823 26.6657C1.58014 25.8552 1.33359 24.9358 1.33333 23.9998V22.1252C1.33432 20.5007 1.75798 18.9044 2.56266 17.4932L5.30666 12.6932C5.89098 11.6738 6.73368 10.8265 7.74984 10.2366C8.766 9.64667 9.9197 9.33507 11.0947 9.33316H20.9053C22.0803 9.33507 23.234 9.64667 24.2502 10.2366C25.2663 10.8265 26.109 11.6738 26.6933 12.6932L29.4373 17.4932ZM4.964 18.6665H27.036L24.3787 14.0158C24.0279 13.4042 23.5222 12.8959 22.9124 12.5419C22.3026 12.188 21.6104 12.001 20.9053 11.9998H11.0947C10.3908 12.0022 9.69987 12.1898 9.09137 12.5436C8.48288 12.8975 7.97819 13.4052 7.628 14.0158L4.964 18.6665ZM28 22.1252C27.9994 21.8605 27.9833 21.596 27.952 21.3332H25.3333V22.6665C25.3333 23.0201 25.1929 23.3593 24.9428 23.6093C24.6928 23.8594 24.3536 23.9998 24 23.9998C23.6464 23.9998 23.3072 23.8594 23.0572 23.6093C22.8071 23.3593 22.6667 23.0201 22.6667 22.6665V21.3332H9.33333V22.6665C9.33333 23.0201 9.19285 23.3593 8.9428 23.6093C8.69276 23.8594 8.35362 23.9998 8 23.9998C7.64637 23.9998 7.30723 23.8594 7.05719 23.6093C6.80714 23.3593 6.66666 23.0201 6.66666 22.6665V21.3332H4.048C4.01665 21.596 4.00062 21.8605 4 22.1252V23.9998C4 24.7071 4.28095 25.3853 4.78104 25.8854C5.28114 26.3855 5.95942 26.6665 6.66666 26.6665H25.3333C26.0406 26.6665 26.7188 26.3855 27.2189 25.8854C27.719 25.3853 28 24.7071 28 23.9998V22.1252Z" fill="#BFCBE3"/>
</g>
<defs>
<clipPath id="clip0_4332_3391">
<rect width="32" height="32" fill="white"/>
</clipPath>
</defs>
</svg>
