<svg width="32" height="32" viewBox="0 0 32 32" fill="none" xmlns="http://www.w3.org/2000/svg">
<g clip-path="url(#clip0_5042_13105)">
<path d="M30.6668 5.33336H28.6668C28.3001 5.33336 28.0001 5.03336 28.0001 4.66669C28.0001 4.30002 28.3001 4.00002 28.6668 4.00002H30.6668C31.4534 4.00002 31.8068 3.65202 31.9654 3.36002C32.2134 2.90269 32.0748 2.39602 31.8828 2.10269C30.8414 0.517356 28.9574 -0.273311 27.0748 0.0906894C25.2241 0.450689 23.7534 1.94002 23.4148 3.79469C23.4028 3.86402 23.3921 3.93202 23.3841 4.00002H8.71611C8.70811 3.93202 8.69878 3.86402 8.68545 3.79469C8.34811 1.93869 6.87611 0.449356 5.02545 0.0893561C3.14278 -0.273311 1.26011 0.514689 0.217446 2.10136C0.0241126 2.39469 -0.114554 2.90136 0.133446 3.35869C0.262779 3.59869 0.602779 3.99869 1.43211 3.99869H3.33345C3.70145 3.99869 4.00011 4.29869 4.00011 4.66536C4.00011 5.03202 3.70145 5.33202 3.33345 5.33202H1.43211C0.602779 5.33202 0.262779 5.73336 0.133446 5.97202C-0.114554 6.43069 0.0241126 6.93736 0.217446 7.22936C1.09211 8.55869 2.55745 9.32802 4.11478 9.32802C4.41611 9.32802 4.72145 9.30002 5.02545 9.24136C6.87745 8.88136 8.34811 7.39202 8.68678 5.53469C8.69878 5.46669 8.70811 5.39869 8.71745 5.33202H23.3841C23.3921 5.40002 23.4014 5.46936 23.4148 5.53736C23.7534 7.39336 25.2241 8.88269 27.0748 9.24136C27.3801 9.30002 27.6854 9.32802 27.9868 9.32802C29.5441 9.32802 31.0108 8.55869 31.8841 7.22936C32.0774 6.93469 32.2148 6.42802 31.9668 5.97202C31.8094 5.67869 31.4548 5.33202 30.6681 5.33202L30.6668 5.33336ZM7.41478 4.66802C7.41478 4.87602 7.41345 5.08402 7.37478 5.29869C7.13745 6.60002 6.06811 7.68269 4.77078 7.93469C3.47478 8.18536 2.21878 7.70269 1.44945 6.66802H3.33345C4.43611 6.66802 5.33345 5.77069 5.33345 4.66802C5.33345 3.56536 4.43611 2.66802 3.33345 2.66802H1.44811C2.21878 1.63202 3.47478 1.14802 4.77078 1.40136C6.06678 1.65202 7.13745 2.73602 7.37345 4.03469C7.41211 4.24936 7.41478 4.45869 7.41478 4.67069V4.66802ZM27.3281 7.93336C26.0321 7.68269 24.9628 6.59869 24.7254 5.29869C24.6854 5.08269 24.6841 4.87469 24.6841 4.66536C24.6841 4.45602 24.6841 4.24936 24.7254 4.03202C24.9628 2.73202 26.0321 1.64936 27.3281 1.39736C27.5561 1.35336 27.7814 1.33069 28.0041 1.33069C29.0508 1.33069 30.0161 1.80936 30.6494 2.66402H28.6668C27.5641 2.66402 26.6668 3.56136 26.6668 4.66402C26.6668 5.76669 27.5641 6.66402 28.6668 6.66402H30.6508C29.8814 7.70002 28.6228 8.18536 27.3281 7.93069V7.93336ZM26.7814 12.356C25.7148 10.492 23.7188 9.33202 21.5721 9.33202H10.4281C8.28145 9.33202 6.28545 10.4907 5.21878 12.356L2.47478 17.1574C1.72678 18.4654 1.33345 19.9534 1.33345 21.4587V23.3334C1.33345 25.1907 2.42545 26.7987 4.00011 27.5494V28.6667C4.00011 30.5054 5.49611 32 7.33345 32C9.17078 32 10.6668 30.5054 10.6668 28.6667V28H21.3334V28.6667C21.3334 30.5054 22.8281 32 24.6668 32C26.5054 32 28.0001 30.5054 28.0001 28.6667V27.5494C29.5748 26.7987 30.6668 25.1907 30.6668 23.3334V21.4587C30.6668 19.952 30.2721 18.4654 29.5254 17.1574L26.7814 12.356ZM6.37611 13.0174C7.20545 11.5667 8.75878 10.6654 10.4281 10.6654H21.5708C23.2414 10.6654 24.7934 11.5667 25.6214 13.0174L28.3654 17.8187C28.5214 18.092 28.6601 18.376 28.7801 18.6667H3.21878C3.33878 18.376 3.47611 18.0934 3.63211 17.8187L6.37611 13.0174ZM9.33345 28.6654C9.33345 29.768 8.43611 30.6654 7.33345 30.6654C6.23078 30.6654 5.33345 29.768 5.33345 28.6654V27.9507C5.55078 27.9814 5.77345 27.9987 6.00011 27.9987H9.33345V28.6654ZM26.6668 28.6654C26.6668 29.768 25.7694 30.6654 24.6668 30.6654C23.5641 30.6654 22.6668 29.768 22.6668 28.6654V27.9987H26.0001C26.2268 27.9987 26.4494 27.9827 26.6668 27.9507V28.6654ZM29.3334 23.332C29.3334 25.1707 27.8388 26.6654 26.0001 26.6654H6.00011C4.16278 26.6654 2.66678 25.1707 2.66678 23.332V21.4574C2.66678 20.9667 2.71745 20.4774 2.81478 19.9987H6.66678V21.9987C6.66678 22.3667 6.96545 22.6654 7.33345 22.6654C7.70145 22.6654 8.00011 22.3667 8.00011 21.9987V19.9987H24.0001V21.9987C24.0001 22.3667 24.2988 22.6654 24.6668 22.6654C25.0348 22.6654 25.3334 22.3667 25.3334 21.9987V19.9987H29.1854C29.2828 20.4774 29.3334 20.9654 29.3334 21.4574V23.332Z" fill="#BFCBE3"/>
</g>
<defs>
<clipPath id="clip0_5042_13105">
<rect width="32" height="32" fill="white"/>
</clipPath>
</defs>
</svg>
