<svg width="37" height="37" viewBox="0 0 37 37" fill="none" xmlns="http://www.w3.org/2000/svg">
<path d="M12.1093 8.95874C14.8166 8.95874 17.524 8.95874 20.3133 8.95874C20.3133 8.98727 20.3133 9.01581 20.3133 9.0452C20.3525 9.04253 20.3917 9.03985 20.4321 9.0371C20.585 9.04593 20.6383 9.06797 20.7451 9.1749C20.7451 9.20343 20.7451 9.23197 20.7451 9.26137C20.7736 9.26137 20.8021 9.26137 20.8315 9.26137C21.0051 9.55831 20.982 9.87781 20.961 10.2125C20.9468 10.241 20.9325 10.2695 20.9178 10.2989C20.8893 10.2989 20.8608 10.2989 20.8315 10.2989C20.8315 10.356 20.8315 10.4131 20.8315 10.4719C20.7745 10.4861 20.7175 10.5004 20.6588 10.5151C20.6588 10.5436 20.6588 10.5722 20.6588 10.6016C20.616 10.6016 20.5733 10.6016 20.5292 10.6016C20.5292 10.6301 20.5292 10.6586 20.5292 10.688C20.5007 10.688 20.4722 10.688 20.4429 10.688C20.4429 10.7166 20.4429 10.7451 20.4429 10.7745C20.4025 10.7747 20.3621 10.7749 20.3205 10.7751C19.3378 10.7795 18.355 10.7842 17.3722 10.7892C16.8969 10.7916 16.4217 10.7939 15.9464 10.796C15.5321 10.7979 15.1178 10.7999 14.7035 10.802C14.4842 10.8032 14.2649 10.8043 14.0455 10.8052C13.839 10.806 13.6324 10.807 13.4258 10.8082C13.3501 10.8086 13.2745 10.809 13.1988 10.8092C12.6159 10.7612 12.6159 10.7612 12.1093 10.9042C12.0374 10.9059 11.9653 10.906 11.8934 10.9042C11.8934 10.9327 11.8934 10.9613 11.8934 10.9907C11.8364 10.9907 11.7794 10.9907 11.7207 10.9907C11.7207 11.0192 11.7207 11.0477 11.7207 11.0771C11.6138 11.0985 11.6138 11.0985 11.5048 11.1204C11.5048 11.1489 11.5048 11.1774 11.5048 11.2068C11.4335 11.2354 11.3623 11.2639 11.2889 11.2933C11.2889 11.3218 11.2889 11.3503 11.2889 11.3797C11.2319 11.394 11.1749 11.4083 11.1162 11.423C11.1162 11.4515 11.1162 11.48 11.1162 11.5094C11.0877 11.5094 11.0592 11.5094 11.0298 11.5094C11.0156 11.5808 11.0013 11.6521 10.9866 11.7256C10.9581 11.7256 10.9296 11.7256 10.9003 11.7256C10.9003 11.7827 10.9003 11.8397 10.9003 11.8985C10.8718 11.8985 10.8433 11.8985 10.8139 11.8985C10.8139 11.9271 10.8139 11.9556 10.8139 11.985C10.7854 11.985 10.7569 11.985 10.7276 11.985C10.7231 12.0224 10.7187 12.0599 10.7141 12.0985C10.6844 12.2444 10.6844 12.2444 10.625 12.3579C10.5418 12.531 10.5022 12.7011 10.4582 12.8875C10.4116 13.079 10.3544 13.2668 10.2958 13.4549C10.2673 13.4549 10.2388 13.4549 10.2094 13.4549C10.2094 13.512 10.2094 13.569 10.2094 13.6278C10.1809 13.6278 10.1524 13.6278 10.1231 13.6278C10.1088 13.7705 10.0946 13.9132 10.0799 14.0601C10.0514 14.0601 10.0229 14.0601 9.99352 14.0601C9.99619 14.0887 9.99886 14.1172 10.0016 14.1466C9.99286 14.2869 9.95071 14.3946 9.89856 14.5241C9.83791 14.6962 9.80884 14.8751 9.77762 15.0545C9.74913 15.0545 9.72063 15.0545 9.69127 15.0545C9.69127 15.0973 9.69127 15.1401 9.69127 15.1842C9.66277 15.1842 9.63427 15.1842 9.60491 15.1842C9.60135 15.2359 9.59778 15.2876 9.59411 15.3409C9.56327 15.629 9.47334 15.9025 9.38901 16.1785C9.36051 16.1785 9.33202 16.1785 9.30265 16.1785C9.29948 16.2169 9.29948 16.2169 9.29624 16.256C9.27828 16.4462 9.25733 16.6095 9.17312 16.7838C9.14462 16.7838 9.11612 16.7838 9.08676 16.7838C9.08676 16.8551 9.08676 16.9264 9.08676 16.9999C9.05826 16.9999 9.02976 16.9999 9.0004 16.9999C8.99723 17.0422 8.99723 17.0422 8.99399 17.0854C8.97568 17.2997 8.95046 17.4898 8.87086 17.6917C8.84236 17.6917 8.81387 17.6917 8.78451 17.6917C8.78451 17.763 8.78451 17.8343 8.78451 17.9078C8.75601 17.9078 8.72751 17.9078 8.69815 17.9078C8.69993 17.9551 8.70171 18.0023 8.70354 18.051C8.69815 18.2104 8.69815 18.2104 8.61179 18.3401C8.58121 18.4405 8.55219 18.5413 8.52543 18.6428C8.58243 18.657 8.63942 18.6713 8.69815 18.686C8.69815 18.6575 8.69815 18.6289 8.69815 18.5995C10.3795 18.5995 12.0609 18.5995 13.7933 18.5995C13.7933 18.6281 13.7933 18.6566 13.7933 18.686C13.8339 18.6877 13.8339 18.6877 13.8753 18.6894C13.9105 18.6918 13.9458 18.6943 13.9822 18.6968C14.0173 18.6988 14.0523 18.7008 14.0884 18.7029C14.1819 18.7292 14.1819 18.7292 14.2376 18.8177C14.2527 18.8595 14.2527 18.8595 14.2682 18.9022C14.2967 18.9022 14.3252 18.9022 14.3546 18.9022C14.3546 18.9307 14.3546 18.9592 14.3546 18.9886C14.3831 18.9886 14.4116 18.9886 14.441 18.9886C14.5986 19.2714 14.5834 19.535 14.5705 19.8533C14.542 19.8533 14.5135 19.8533 14.4841 19.8533C14.4726 19.8952 14.461 19.9371 14.4491 19.9803C14.4321 20.024 14.4152 20.0677 14.3978 20.1127C14.355 20.1269 14.3123 20.1412 14.2682 20.1559C14.2682 20.1844 14.2682 20.213 14.2682 20.2424C14.2255 20.2424 14.1828 20.2424 14.1387 20.2424C14.1387 20.2709 14.1387 20.2994 14.1387 20.3288C14.0817 20.3288 14.0247 20.3288 13.966 20.3288C13.966 20.3574 13.966 20.3859 13.966 20.4153C13.5849 20.4542 13.2085 20.4641 12.8256 20.4621C12.7651 20.4619 12.7045 20.4618 12.644 20.4617C12.5147 20.4614 12.3854 20.461 12.2561 20.4605C12.0516 20.4597 11.8471 20.4592 11.6426 20.4589C11.0614 20.4579 10.4803 20.4563 9.89914 20.4544C9.57731 20.4533 9.25548 20.4526 8.93365 20.4521C8.73041 20.4519 8.52717 20.4512 8.32393 20.4502C8.19767 20.4497 8.07142 20.4496 7.94516 20.4495C7.85884 20.4494 7.77252 20.4488 7.68619 20.4482C7.60894 20.4483 7.60894 20.4483 7.53012 20.4484C7.48546 20.4483 7.4408 20.4481 7.39479 20.448C7.26717 20.4591 7.17305 20.4913 7.05734 20.545C7.05734 20.5735 7.05734 20.6021 7.05734 20.6315C6.91196 20.7366 6.85295 20.7612 6.66873 20.7612C6.66873 20.7897 6.66873 20.8182 6.66873 20.8476C6.62598 20.8476 6.58324 20.8476 6.53919 20.8476C6.53919 20.8761 6.53919 20.9047 6.53919 20.9341C6.4822 20.9341 6.4252 20.9341 6.36648 20.9341C6.36648 20.9626 6.36648 20.9911 6.36648 21.0205C6.29523 21.0348 6.22399 21.0491 6.15058 21.0638C6.15058 21.0923 6.15058 21.1208 6.15058 21.1502C6.10783 21.1502 6.06509 21.1502 6.02104 21.1502C6.02104 21.1788 6.02104 21.2073 6.02104 21.2367C5.98097 21.2536 5.94089 21.2706 5.8996 21.288C5.74882 21.3739 5.71537 21.4354 5.63243 21.5826C5.57486 21.6114 5.51729 21.6402 5.45972 21.669C5.42494 21.7577 5.42494 21.7577 5.41654 21.842C5.38804 21.842 5.35954 21.842 5.33018 21.842C5.33018 21.8705 5.33018 21.899 5.33018 21.9284C5.30168 21.9284 5.27318 21.9284 5.24382 21.9284C5.23937 21.957 5.23491 21.9855 5.23033 22.0149C5.20581 22.122 5.1758 22.2132 5.13587 22.3148C5.07992 22.4588 5.04715 22.5959 5.02793 22.7498C4.99943 22.7498 4.97093 22.7498 4.94157 22.7498C4.94157 23.0637 4.94157 23.3776 4.94157 23.7009C5.01281 23.7152 5.08406 23.7295 5.15746 23.7442C5.1913 23.7584 5.22515 23.7727 5.26001 23.7874C5.39737 23.8398 5.53006 23.8567 5.67561 23.8739C5.67561 23.9024 5.67561 23.9309 5.67561 23.9603C5.70177 23.961 5.72793 23.9616 5.75489 23.9622C6.02003 23.9773 6.20174 24.0408 6.43344 24.1679C6.56681 24.2333 6.69513 24.2593 6.84027 24.2861C6.96616 24.315 7.07234 24.3773 7.18688 24.4359C7.32664 24.4665 7.32664 24.4665 7.44595 24.4791C7.44595 24.5077 7.44595 24.5362 7.44595 24.5656C7.47512 24.5713 7.50429 24.5771 7.53434 24.583C7.57285 24.5906 7.61137 24.5983 7.65105 24.6061C7.70816 24.6174 7.70816 24.6174 7.76642 24.6289C7.86187 24.6488 7.95612 24.6708 8.05046 24.6953C8.05046 24.7238 8.05046 24.7524 8.05046 24.7818C8.09722 24.7791 8.09722 24.7791 8.14491 24.7763C8.27812 24.7823 8.35903 24.8186 8.48225 24.8682C8.57275 24.893 8.66363 24.9164 8.75482 24.9385C8.82403 24.9554 8.82403 24.9554 8.89465 24.9726C8.92954 24.9809 8.96444 24.9893 9.0004 24.9979C9.0004 25.0264 9.0004 25.055 9.0004 25.0844C9.03869 25.0897 9.07699 25.0951 9.11644 25.1006C9.24669 25.1252 9.35461 25.1607 9.47537 25.2141C9.47537 25.2426 9.47537 25.2711 9.47537 25.3005C9.50387 25.3005 9.53237 25.3005 9.56173 25.3005C9.57598 25.3576 9.59023 25.4147 9.60491 25.4735C9.63341 25.4735 9.6619 25.4735 9.69127 25.4735C9.69127 25.5163 9.69127 25.5591 9.69127 25.6032C9.71976 25.6032 9.74826 25.6032 9.77762 25.6032C9.78232 25.7131 9.78573 25.8228 9.78842 25.9328C9.79059 25.979 9.79059 25.979 9.7928 26.0262C9.79789 26.3038 9.69674 26.4484 9.51585 26.657C9.43219 26.7272 9.43219 26.7272 9.30265 26.7272C9.30265 26.7557 9.30265 26.7843 9.30265 26.8137C8.96881 26.8619 8.71935 26.8758 8.41158 26.7296C8.27599 26.669 8.1403 26.6419 7.99497 26.6146C7.92092 26.5975 7.92092 26.5975 7.87774 26.5543C7.81956 26.5443 7.761 26.5365 7.70233 26.53C7.64622 26.5237 7.59012 26.5175 7.53231 26.511C7.53231 26.4825 7.53231 26.454 7.53231 26.4246C7.48956 26.4246 7.44682 26.4246 7.40277 26.4246C7.40277 26.396 7.40277 26.3675 7.40277 26.3381C7.37773 26.336 7.35268 26.3339 7.32687 26.3317C7.12473 26.3123 6.94616 26.282 6.75509 26.2084C6.75509 26.1799 6.75509 26.1514 6.75509 26.122C6.68384 26.122 6.6126 26.122 6.53919 26.122C6.53919 26.0934 6.53919 26.0649 6.53919 26.0355C6.51153 26.0339 6.48387 26.0323 6.45536 26.0306C6.20862 26.0118 6.02815 25.9676 5.80515 25.8626C5.68516 25.8327 5.68516 25.8327 5.58925 25.8193C5.58925 25.7908 5.58925 25.7623 5.58925 25.7329C5.46101 25.7186 5.33277 25.7043 5.20064 25.6896C5.20064 25.6611 5.20064 25.6326 5.20064 25.6032C5.11515 25.6032 5.02965 25.6032 4.94157 25.6032C4.94157 25.9598 4.94157 26.3165 4.94157 26.684C4.97007 26.684 4.99856 26.684 5.02793 26.684C5.02793 26.8266 5.02793 26.9693 5.02793 27.1163C5.05642 27.1163 5.08492 27.1163 5.11428 27.1163C5.13617 27.1847 5.15769 27.2531 5.17905 27.3216C5.19107 27.3598 5.2031 27.3979 5.21548 27.4372C5.24382 27.5486 5.24382 27.5486 5.24382 27.7215C5.27232 27.7215 5.30082 27.7215 5.33018 27.7215C5.33018 27.7501 5.33018 27.7786 5.33018 27.808C5.35868 27.808 5.38717 27.808 5.41654 27.808C5.4201 27.8419 5.42366 27.8758 5.42733 27.9107C5.44719 28.0292 5.44719 28.0292 5.54068 28.0728C5.57096 28.0853 5.60124 28.0978 5.63243 28.1106C5.708 28.1755 5.708 28.1755 5.76197 28.2403C5.76197 28.2689 5.76197 28.2974 5.76197 28.3268C5.81897 28.3411 5.87596 28.3553 5.93469 28.37C5.93469 28.3986 5.93469 28.4271 5.93469 28.4565C5.97743 28.4565 6.02018 28.4565 6.06422 28.4565C6.06422 28.485 6.06422 28.5136 6.06422 28.543C6.09272 28.543 6.12122 28.543 6.15058 28.543C6.15058 28.5715 6.15058 28.6 6.15058 28.6294C6.29307 28.6437 6.43556 28.658 6.58237 28.6727C6.58237 28.7012 6.58237 28.7297 6.58237 28.7591C6.81036 28.7877 7.03834 28.8162 7.27324 28.8456C7.27324 28.8741 7.27324 28.9027 7.27324 28.9321C7.35606 28.9307 7.35606 28.9307 7.44056 28.9294C7.65916 28.9294 7.87758 28.9405 8.09364 28.9753C8.10789 28.9896 8.12214 29.0038 8.13682 29.0185C8.21665 29.0286 8.29679 29.0364 8.377 29.0428C8.4207 29.0465 8.46439 29.0501 8.50941 29.0538C8.54319 29.0564 8.57698 29.0591 8.61179 29.0617C8.61179 29.0903 8.61179 29.1188 8.61179 29.1482C8.68117 29.1475 8.68117 29.1475 8.75195 29.1467C8.81228 29.1463 8.87261 29.1459 8.93293 29.1455C8.96346 29.1451 8.99399 29.1448 9.02545 29.1444C9.10347 29.144 9.18149 29.146 9.25947 29.1482C9.27372 29.1625 9.28797 29.1767 9.30265 29.1914C9.36942 29.2007 9.43654 29.2075 9.50371 29.2131C9.54428 29.2166 9.58486 29.2202 9.62667 29.2239C9.66936 29.2274 9.71205 29.231 9.75603 29.2347C9.84016 29.2417 9.92427 29.2489 10.0084 29.2563C10.0458 29.2594 10.0833 29.2625 10.122 29.2658C10.2094 29.2779 10.2094 29.2779 10.2526 29.3211C10.376 29.3314 10.4987 29.3394 10.6223 29.3455C10.6571 29.3473 10.6919 29.3492 10.7278 29.3511C10.8141 29.3557 10.9004 29.3601 10.9866 29.3644C10.9866 29.3929 10.9866 29.4214 10.9866 29.4508C11.2289 29.4508 11.4711 29.4508 11.7207 29.4508C11.7207 29.4794 11.7207 29.5079 11.7207 29.5373C11.7516 29.5368 11.7825 29.5363 11.8143 29.5358C12.1451 29.5328 12.4708 29.5507 12.8002 29.5805C12.7999 29.557 12.7997 29.5335 12.7995 29.5093C12.7949 28.9484 12.8012 28.3881 12.8163 27.8274C12.8181 27.7585 12.8199 27.6896 12.8216 27.6207C12.8241 27.5233 12.8268 27.426 12.8297 27.3286C12.8321 27.2437 12.8321 27.2437 12.8345 27.1572C12.8433 27.0298 12.8433 27.0298 12.8865 26.9866C12.8932 26.9211 12.8932 26.9211 12.9 26.8542C12.9333 26.663 12.9898 26.4975 13.1024 26.3381C13.1452 26.3238 13.1879 26.3096 13.2319 26.2949C13.2319 26.2378 13.2319 26.1808 13.2319 26.122C13.2604 26.122 13.2889 26.122 13.3183 26.122C13.333 26.0751 13.333 26.0751 13.348 26.0274C13.416 25.8815 13.5032 25.7986 13.6206 25.6896C13.6446 25.6638 13.6687 25.6379 13.6934 25.6113C13.7501 25.5599 13.7501 25.5599 13.8365 25.5599C13.8365 25.5314 13.8365 25.5029 13.8365 25.4735C13.9362 25.4449 14.0359 25.4164 14.1387 25.387C14.1387 25.3585 14.1387 25.3299 14.1387 25.3005C14.2142 25.2725 14.2898 25.2446 14.3654 25.2168C14.4075 25.2012 14.4496 25.1857 14.4929 25.1697C14.6868 25.1021 14.8485 25.0784 15.0548 25.0755C15.1095 25.0746 15.1642 25.0738 15.2205 25.0729C15.2804 25.0722 15.3404 25.0714 15.4003 25.0707C15.4627 25.0698 15.5251 25.0689 15.5875 25.068C15.7539 25.0656 15.9204 25.0634 16.0868 25.0614C16.1895 25.0601 16.2921 25.0587 16.3948 25.0572C17.231 25.0456 18.0671 25.0352 18.9034 25.0427C18.9577 25.0431 19.0121 25.0435 19.068 25.0438C19.1359 25.0446 19.1359 25.0446 19.2052 25.0454C19.309 25.0416 19.3931 25.0241 19.4929 24.9979C19.5652 25.0106 19.6372 25.025 19.7088 25.0411C19.7658 25.0411 19.8228 25.0411 19.8815 25.0411C20.2154 25.0435 20.5493 25.0478 20.8831 25.0525C20.9939 25.0539 21.1046 25.0551 21.2154 25.0561C21.3758 25.0576 21.5362 25.0598 21.6966 25.0623C21.7455 25.0625 21.7945 25.0628 21.8449 25.0631C22.2201 25.0699 22.5695 25.1222 22.9041 25.3005C22.9041 25.3291 22.9041 25.3576 22.9041 25.387C22.9296 25.3939 22.9552 25.4007 22.9815 25.4078C23.2091 25.4751 23.3561 25.5408 23.5086 25.7329C23.5086 25.7614 23.5086 25.7899 23.5086 25.8193C23.5371 25.8193 23.5656 25.8193 23.5949 25.8193C23.5949 25.8479 23.5949 25.8764 23.5949 25.9058C23.6234 25.9058 23.6519 25.9058 23.6813 25.9058C23.6813 25.9486 23.6813 25.9914 23.6813 26.0355C23.7098 26.0355 23.7383 26.0355 23.7676 26.0355C23.7712 26.0765 23.7748 26.1175 23.7784 26.1598C23.7957 26.2994 23.7957 26.2994 23.8999 26.3543C23.9275 26.3632 23.9551 26.3722 23.9835 26.3813C23.9835 26.4241 23.9835 26.4669 23.9835 26.511C24.012 26.511 24.0405 26.511 24.0699 26.511C24.0756 26.5418 24.0814 26.5725 24.0873 26.6041C24.0949 26.6438 24.1025 26.6836 24.1104 26.7245C24.1216 26.7839 24.1216 26.7839 24.1331 26.8446C24.1466 26.9413 24.1466 26.9413 24.1994 26.9866C24.2033 27.1082 24.2044 27.2286 24.2037 27.3502C24.2036 27.4048 24.2036 27.4048 24.2035 27.4605C24.2032 27.5772 24.2027 27.694 24.2021 27.8107C24.2019 27.8897 24.2017 27.9686 24.2015 28.0476C24.2011 28.2415 24.2003 28.4355 24.1994 28.6294C24.2279 28.6294 24.2564 28.6294 24.2858 28.6294C24.2858 28.7436 24.2858 28.8577 24.2858 28.9753C24.2573 28.9753 24.2288 28.9753 24.1994 28.9753C24.2074 29.163 24.2074 29.163 24.2858 29.3211C24.2876 29.4076 24.2876 29.4941 24.2858 29.5805C24.3198 29.5774 24.3538 29.5743 24.3888 29.5711C24.7297 29.542 25.0665 29.5323 25.4084 29.5373C25.4084 29.5088 25.4084 29.4802 25.4084 29.4508C25.4609 29.4482 25.5134 29.4456 25.5675 29.4429C25.6359 29.4393 25.7044 29.4356 25.7728 29.4319C25.8074 29.4302 25.8421 29.4285 25.8778 29.4268C26.0454 29.4333 26.0454 29.4333 26.1857 29.3644C26.3335 29.3527 26.4811 29.3451 26.6293 29.3382C26.7877 29.3444 26.7877 29.3444 26.9197 29.2779C26.9871 29.2711 27.0547 29.2671 27.1223 29.2642C27.1631 29.2624 27.2038 29.2606 27.2458 29.2587C27.2887 29.257 27.3316 29.2553 27.3758 29.2536C27.4188 29.2517 27.4619 29.2499 27.5063 29.2479C27.613 29.2433 27.7197 29.2389 27.8265 29.2347C27.8265 29.2061 27.8265 29.1776 27.8265 29.1482C28.0545 29.1482 28.2824 29.1482 28.5173 29.1482C28.5173 29.1197 28.5173 29.0911 28.5173 29.0617C28.5475 29.0591 28.5777 29.0565 28.6088 29.0538C28.6481 29.0502 28.6874 29.0466 28.7278 29.0428C28.7669 29.0393 28.806 29.0358 28.8462 29.0322C28.9496 29.0241 28.9496 29.0241 29.0355 28.9753C29.1932 28.9549 29.3509 28.9377 29.509 28.9212C29.6746 28.9177 29.6746 28.9177 29.8127 28.8456C29.8809 28.8365 29.9493 28.8297 30.0178 28.824C30.168 28.8104 30.3133 28.7935 30.4604 28.7591C30.4604 28.7306 30.4604 28.7021 30.4604 28.6727C30.5886 28.6584 30.7169 28.6441 30.849 28.6294C30.849 28.6009 30.849 28.5724 30.849 28.543C30.8918 28.543 30.9345 28.543 30.9786 28.543C30.9786 28.5144 30.9786 28.4859 30.9786 28.4565C31.1679 28.3268 31.1679 28.3268 31.2808 28.3268C31.2808 28.2983 31.2808 28.2697 31.2808 28.2403C31.3093 28.2403 31.3378 28.2403 31.3672 28.2403C31.3787 28.2127 31.3903 28.1851 31.4022 28.1566C31.4535 28.0674 31.4535 28.0674 31.5831 28.0242C31.5831 27.9956 31.5831 27.9671 31.5831 27.9377C31.6116 27.9377 31.6401 27.9377 31.6694 27.9377C31.6837 27.8664 31.6979 27.795 31.7126 27.7215C31.7411 27.7215 31.7696 27.7215 31.799 27.7215C31.799 27.6502 31.799 27.5789 31.799 27.5054C31.8275 27.5054 31.8559 27.5054 31.8853 27.5054C31.8853 27.4483 31.8853 27.3913 31.8853 27.3325C31.9138 27.3325 31.9423 27.3325 31.9717 27.3325C31.9743 27.2861 31.9769 27.2398 31.9796 27.1921C31.9832 27.1317 31.9869 27.0713 31.9906 27.0109C31.9931 26.9651 31.9931 26.9651 31.9957 26.9183C32.01 26.6889 32.01 26.6889 32.058 26.6407C32.0648 26.5638 32.0689 26.4867 32.0717 26.4096C32.0744 26.3395 32.0744 26.3395 32.0772 26.2681C32.0797 26.1944 32.0797 26.1944 32.0823 26.1193C32.0851 26.0453 32.0851 26.0453 32.088 25.9699C32.0926 25.8476 32.097 25.7254 32.1012 25.6032C32.0759 25.6119 32.0507 25.6207 32.0246 25.6297C31.8417 25.6922 31.663 25.7493 31.4724 25.7842C31.4176 25.7945 31.4176 25.7945 31.3616 25.805C31.3349 25.8097 31.3083 25.8144 31.2808 25.8193C31.2808 25.8479 31.2808 25.8764 31.2808 25.9058C31.1811 25.9058 31.0813 25.9058 30.9786 25.9058C30.9786 25.9343 30.9786 25.9629 30.9786 25.9923C30.9363 25.9994 30.9363 25.9994 30.8932 26.0066C30.6683 26.0475 30.4921 26.1037 30.2877 26.2084C30.1635 26.2165 30.1635 26.2165 30.0718 26.2084C30.0718 26.237 30.0718 26.2655 30.0718 26.2949C29.9435 26.3091 29.8153 26.3234 29.6832 26.3381C29.6832 26.3666 29.6832 26.3952 29.6832 26.4246C29.5053 26.4805 29.3521 26.5224 29.165 26.511C29.165 26.5396 29.165 26.5681 29.165 26.5975C29.0225 26.6118 28.88 26.626 28.7332 26.6407C28.7332 26.6693 28.7332 26.6978 28.7332 26.7272C28.4155 26.8727 28.1252 26.8746 27.7833 26.8137C27.6802 26.7682 27.6802 26.7682 27.6106 26.7272C27.6106 26.6987 27.6106 26.6701 27.6106 26.6407C27.5821 26.6407 27.5536 26.6407 27.5242 26.6407C27.5242 26.6122 27.5242 26.5837 27.5242 26.5543C27.4815 26.54 27.4387 26.5257 27.3947 26.511C27.2725 26.3521 27.2972 26.1587 27.3002 25.9679C27.3003 25.9348 27.3003 25.9016 27.3003 25.8674C27.3014 25.7255 27.3064 25.6089 27.3515 25.4735C27.38 25.4735 27.4085 25.4735 27.4379 25.4735C27.4468 25.4494 27.4557 25.4253 27.4649 25.4005C27.5467 25.2627 27.6429 25.1605 27.7833 25.0844C27.9047 25.0667 28.0052 25.0737 28.1287 25.0844C28.1287 25.0558 28.1287 25.0273 28.1287 24.9979C28.1572 24.9979 28.1857 24.9979 28.2151 24.9979C28.2151 24.9694 28.2151 24.9408 28.2151 24.9115C28.249 24.9067 28.2829 24.902 28.3178 24.8971C28.5774 24.8579 28.7965 24.8081 29.0355 24.6953C29.2763 24.6064 29.5199 24.5382 29.7695 24.4791C29.7695 24.4506 29.7695 24.4221 29.7695 24.3927C29.8221 24.3873 29.8746 24.382 29.9288 24.3765C30.0758 24.3586 30.1935 24.3187 30.3309 24.263C30.4523 24.2576 30.4523 24.2576 30.5468 24.263C30.5468 24.2344 30.5468 24.2059 30.5468 24.1765C30.618 24.1765 30.6893 24.1765 30.7627 24.1765C30.7627 24.148 30.7627 24.1194 30.7627 24.09C30.8973 24.0125 31.0078 23.9887 31.1621 23.9766C31.2006 23.9733 31.2391 23.9701 31.2788 23.9668C31.3079 23.9646 31.3371 23.9625 31.3672 23.9603C31.3672 23.9318 31.3672 23.9033 31.3672 23.8739C31.4812 23.8739 31.5951 23.8739 31.7126 23.8739C31.7126 23.8453 31.7126 23.8168 31.7126 23.7874C31.8408 23.7589 31.9691 23.7303 32.1012 23.7009C32.0951 23.6046 32.0887 23.5082 32.0823 23.4118C32.0788 23.3582 32.0753 23.3045 32.0717 23.2492C32.0604 23.1222 32.0407 23.004 32.0148 22.8795C32.0148 22.8367 32.0148 22.7939 32.0148 22.7498C32.0024 22.6641 31.9888 22.5786 31.9744 22.4931C31.9669 22.4482 31.9593 22.4032 31.9516 22.3569C31.933 22.2558 31.9118 22.1573 31.8853 22.0581C31.8568 22.0581 31.8283 22.0581 31.799 22.0581C31.6694 21.8686 31.6694 21.8686 31.6694 21.7555C31.6409 21.7555 31.6124 21.7555 31.5831 21.7555C31.5831 21.7127 31.5831 21.6699 31.5831 21.6258C31.5118 21.5973 31.4406 21.5687 31.3672 21.5393C31.3672 21.4823 31.3672 21.4252 31.3672 21.3664C31.2959 21.3521 31.2247 21.3379 31.1513 21.3232C31.1513 21.2946 31.1513 21.2661 31.1513 21.2367C31.1228 21.2367 31.0943 21.2367 31.0649 21.2367C31.0649 21.2082 31.0649 21.1796 31.0649 21.1502C31.0079 21.1502 30.9509 21.1502 30.8922 21.1502C30.8922 21.1217 30.8922 21.0932 30.8922 21.0638C30.8209 21.0495 30.7497 21.0352 30.6763 21.0205C30.6763 20.992 30.6763 20.9635 30.6763 20.9341C30.6051 20.9341 30.5338 20.9341 30.4604 20.9341C30.4604 20.9055 30.4604 20.877 30.4604 20.8476C30.4381 20.844 30.4159 20.8405 30.3929 20.8368C30.238 20.7891 30.1214 20.7213 29.9854 20.6315C29.9549 20.5391 29.9549 20.5391 29.9423 20.4585C29.9178 20.4586 29.8934 20.4587 29.8682 20.4588C28.6831 20.4633 27.4995 20.4643 26.3152 20.4153C26.3152 20.3868 26.3152 20.3582 26.3152 20.3288C26.2894 20.3226 26.2636 20.3163 26.2369 20.3099C26.1614 20.2905 26.0869 20.2671 26.013 20.2424C26.013 20.2138 26.013 20.1853 26.013 20.1559C25.9702 20.1416 25.9275 20.1274 25.8834 20.1127C25.8834 20.0841 25.8834 20.0556 25.8834 20.0262C25.8549 20.0262 25.8264 20.0262 25.7971 20.0262C25.7971 19.9691 25.7971 19.9121 25.7971 19.8533C25.7686 19.8533 25.7401 19.8533 25.7107 19.8533C25.7107 19.6393 25.7107 19.4253 25.7107 19.2048C25.7392 19.2048 25.7677 19.2048 25.7971 19.2048C25.7971 19.1477 25.7971 19.0907 25.7971 19.0319C25.8256 19.0319 25.8541 19.0319 25.8834 19.0319C25.8977 18.9748 25.9119 18.9177 25.9266 18.8589C25.9542 18.8545 25.9818 18.85 26.0103 18.8454C26.0396 18.8356 26.069 18.8258 26.0993 18.8157C26.1136 18.7729 26.1278 18.7301 26.1425 18.686C26.2565 18.686 26.3705 18.686 26.4879 18.686C26.4879 18.6575 26.4879 18.6289 26.4879 18.5995C27.1576 18.5995 27.8273 18.5995 28.5173 18.5995C28.4888 18.4997 28.4603 18.3998 28.431 18.2969C28.4025 18.2969 28.374 18.2969 28.3446 18.2969C28.3446 18.1685 28.3446 18.0401 28.3446 17.9078C28.3161 17.9078 28.2876 17.9078 28.2583 17.9078C28.244 17.7652 28.2298 17.6225 28.2151 17.4755C28.1866 17.4755 28.1581 17.4755 28.1287 17.4755C28.0673 17.3102 28.032 17.1766 28.0424 16.9999C28.0139 16.9999 27.9854 16.9999 27.956 16.9999C27.9418 16.9001 27.9275 16.8002 27.9128 16.6973C27.8843 16.6973 27.8558 16.6973 27.8265 16.6973C27.8265 16.4548 27.8265 16.2123 27.8265 15.9624C27.855 15.9624 27.8835 15.9624 27.9128 15.9624C27.9271 15.891 27.9413 15.8197 27.956 15.7462C27.9845 15.7462 28.013 15.7462 28.0424 15.7462C28.0424 15.7177 28.0424 15.6891 28.0424 15.6597C28.0709 15.6597 28.0994 15.6597 28.1287 15.6597C28.1287 15.6312 28.1287 15.6027 28.1287 15.5733C28.4272 15.3983 28.7444 15.432 29.0787 15.4436C29.0787 15.4721 29.0787 15.5006 29.0787 15.53C29.1357 15.5443 29.1927 15.5586 29.2514 15.5733C29.2514 15.6018 29.2514 15.6303 29.2514 15.6597C29.2799 15.6597 29.3084 15.6597 29.3377 15.6597C29.5662 15.8826 29.6779 16.1518 29.6864 16.4729C29.6853 16.5041 29.6843 16.5354 29.6832 16.5676C29.7117 16.5676 29.7402 16.5676 29.7695 16.5676C29.8462 16.7068 29.8877 16.8432 29.9261 16.9972C29.9373 17.0413 29.9485 17.0854 29.9601 17.1308C29.9836 17.2499 29.9903 17.3546 29.9854 17.4755C30.0139 17.4755 30.0424 17.4755 30.0718 17.4755C30.1365 17.6212 30.1581 17.7005 30.1581 17.8646C30.1866 17.8646 30.2151 17.8646 30.2445 17.8646C30.2588 17.8075 30.273 17.7505 30.2877 17.6917C30.3162 17.6917 30.3447 17.6917 30.374 17.6917C30.374 17.6631 30.374 17.6346 30.374 17.6052C30.4595 17.5838 30.4595 17.5838 30.5468 17.562C30.561 17.5049 30.5753 17.4478 30.5899 17.389C30.6184 17.389 30.6469 17.389 30.6763 17.389C30.6763 17.3605 30.6763 17.332 30.6763 17.3026C30.7462 17.2285 30.8186 17.1568 30.8922 17.0864C30.9305 17.0463 30.9688 17.0062 31.0082 16.9648C31.1081 16.8702 31.1081 16.8702 31.1944 16.8702C31.1944 16.8417 31.1944 16.8132 31.1944 16.7838C31.2229 16.7838 31.2514 16.7838 31.2808 16.7838C31.2808 16.7552 31.2808 16.7267 31.2808 16.6973C31.3402 16.6271 31.3402 16.6271 31.4103 16.5676C31.4388 16.5676 31.4673 16.5676 31.4967 16.5676C31.4967 16.5391 31.4967 16.5106 31.4967 16.4812C31.5252 16.4812 31.5537 16.4812 31.5831 16.4812C31.5831 16.4526 31.5831 16.4241 31.5831 16.3947C31.6424 16.3244 31.6424 16.3244 31.7126 16.265C31.7411 16.265 31.7696 16.265 31.799 16.265C31.799 16.2365 31.799 16.2079 31.799 16.1785C31.8275 16.1785 31.8559 16.1785 31.8853 16.1785C31.8853 16.1357 31.8853 16.0929 31.8853 16.0488C31.9138 16.0488 31.9423 16.0488 31.9717 16.0488C31.9717 16.0203 31.9717 15.9918 31.9717 15.9624C32.0144 15.9624 32.0572 15.9624 32.1012 15.9624C32.1012 15.9338 32.1012 15.9053 32.1012 15.8759C32.1297 15.8759 32.1582 15.8759 32.1876 15.8759C32.1876 15.8474 32.1876 15.8188 32.1876 15.7894C32.2469 15.7192 32.2469 15.7192 32.3171 15.6597C32.3456 15.6597 32.3741 15.6597 32.4035 15.6597C32.4035 15.6312 32.4035 15.6027 32.4035 15.5733C32.6059 15.4548 32.7555 15.426 32.9891 15.4274C33.0443 15.427 33.0996 15.4267 33.1566 15.4264C33.3162 15.4443 33.4006 15.4744 33.5261 15.5733C33.5261 15.6018 33.5261 15.6303 33.5261 15.6597C33.5546 15.6597 33.5831 15.6597 33.6125 15.6597C33.6125 15.6883 33.6125 15.7168 33.6125 15.7462C33.6552 15.7605 33.698 15.7747 33.742 15.7894C33.742 15.8465 33.742 15.9036 33.742 15.9624C33.7705 15.9624 33.799 15.9624 33.8284 15.9624C33.8284 16.2049 33.8284 16.4474 33.8284 16.6973C33.7999 16.6973 33.7714 16.6973 33.742 16.6973C33.7304 16.7392 33.7189 16.7811 33.7069 16.8243C33.6815 16.8899 33.6815 16.8899 33.6557 16.9567C33.6129 16.971 33.5702 16.9852 33.5261 16.9999C33.5261 17.0285 33.5261 17.057 33.5261 17.0864C33.4976 17.0864 33.4691 17.0864 33.4398 17.0864C33.4282 17.114 33.4166 17.1417 33.4047 17.1702C33.3534 17.2593 33.3534 17.2593 33.2239 17.3026C33.2239 17.3311 33.2239 17.3596 33.2239 17.389C33.1954 17.389 33.1669 17.389 33.1375 17.389C33.1233 17.4318 33.109 17.4746 33.0943 17.5187C33.0658 17.5187 33.0373 17.5187 33.008 17.5187C33.008 17.5473 33.008 17.5758 33.008 17.6052C32.9795 17.6052 32.951 17.6052 32.9216 17.6052C32.9216 17.6337 32.9216 17.6623 32.9216 17.6917C32.8931 17.6917 32.8646 17.6917 32.8353 17.6917C32.821 17.7345 32.8068 17.7773 32.7921 17.8214C32.7636 17.8214 32.7351 17.8214 32.7057 17.8214C32.7057 17.8499 32.7057 17.8784 32.7057 17.9078C32.6772 17.9078 32.6487 17.9078 32.6194 17.9078C32.6194 17.9364 32.6194 17.9649 32.6194 17.9943C32.5909 17.9943 32.5624 17.9943 32.533 17.9943C32.5187 18.0371 32.5045 18.0799 32.4898 18.124C32.4613 18.124 32.4328 18.124 32.4035 18.124C32.4035 18.1525 32.4035 18.181 32.4035 18.2104C32.375 18.2104 32.3465 18.2104 32.3171 18.2104C32.3055 18.2381 32.2939 18.2657 32.282 18.2942C32.2307 18.3834 32.2307 18.3834 32.1012 18.4266C32.1012 18.4551 32.1012 18.4837 32.1012 18.5131C32.0727 18.5131 32.0442 18.5131 32.0148 18.5131C32.0033 18.5407 31.9917 18.5684 31.9798 18.5968C31.9285 18.686 31.9285 18.686 31.799 18.7292C31.799 18.7578 31.799 18.7863 31.799 18.8157C31.7705 18.8157 31.742 18.8157 31.7126 18.8157C31.701 18.8433 31.6894 18.871 31.6775 18.8995C31.6262 18.9886 31.6262 18.9886 31.4967 19.0319C31.4967 19.0604 31.4967 19.0889 31.4967 19.1183C31.4682 19.1183 31.4397 19.1183 31.4103 19.1183C31.3961 19.1754 31.3818 19.2325 31.3672 19.2913C31.3983 19.3028 31.4295 19.3144 31.4616 19.3264C31.583 19.3777 31.6903 19.4328 31.799 19.5074C31.799 19.5359 31.799 19.5645 31.799 19.5939C31.8702 19.6081 31.9414 19.6224 32.0148 19.6371C32.0148 19.6656 32.0148 19.6942 32.0148 19.7236C32.0389 19.7271 32.0629 19.7307 32.0877 19.7344C32.2194 19.7771 32.3021 19.8467 32.4035 19.9397C32.4035 19.9683 32.4035 19.9968 32.4035 20.0262C32.4747 20.0547 32.546 20.0833 32.6194 20.1127C32.6194 20.1412 32.6194 20.1697 32.6194 20.1991C32.6608 20.2165 32.6608 20.2165 32.703 20.2343C32.7921 20.2856 32.7921 20.2856 32.8353 20.4153C32.8637 20.4296 32.8922 20.4438 32.9216 20.4585C32.9216 20.4871 32.9216 20.5156 32.9216 20.545C32.9501 20.545 32.9786 20.545 33.008 20.545C33.008 20.5735 33.008 20.6021 33.008 20.6315C33.0365 20.6315 33.065 20.6315 33.0943 20.6315C33.1086 20.7028 33.1228 20.7741 33.1375 20.8476C33.166 20.8476 33.1945 20.8476 33.2239 20.8476C33.2239 20.9047 33.2239 20.9617 33.2239 21.0205C33.2524 21.0205 33.2809 21.0205 33.3102 21.0205C33.3102 21.0633 33.3102 21.1061 33.3102 21.1502C33.3387 21.1502 33.3672 21.1502 33.3966 21.1502C33.4108 21.2501 33.4251 21.35 33.4398 21.4529C33.4683 21.4529 33.4968 21.4529 33.5261 21.4529C33.6886 21.7443 33.7335 22.0308 33.7682 22.358C33.7708 22.4848 33.7708 22.4848 33.8284 22.5337C33.8326 22.6572 33.834 22.7797 33.8336 22.9032C33.8336 22.9425 33.8336 22.9817 33.8337 23.0221C33.8337 23.1546 33.8335 23.2871 33.8333 23.4196C33.8333 23.5142 33.8333 23.6087 33.8333 23.7033C33.8333 23.9609 33.833 24.2185 33.8327 24.4761C33.8325 24.745 33.8325 25.0138 33.8324 25.2827C33.8323 25.7343 33.832 26.1859 33.8316 26.6375C33.8312 27.1027 33.8309 27.5679 33.8307 28.0331C33.8307 28.0617 33.8307 28.0904 33.8307 28.1199C33.8307 28.2637 33.8306 28.4074 33.8305 28.5512C33.8301 29.7445 33.8293 30.9379 33.8284 32.1312C33.7999 32.1312 33.7714 32.1312 33.742 32.1312C33.746 32.1928 33.746 32.1928 33.7501 32.2555C33.7507 32.5304 33.6533 32.7984 33.5261 33.0391C33.4976 33.0391 33.4691 33.0391 33.4398 33.0391C33.4255 33.1247 33.4113 33.2103 33.3966 33.2985C33.3681 33.2985 33.3396 33.2985 33.3102 33.2985C33.3102 33.3413 33.3102 33.3841 33.3102 33.4282C33.2817 33.4282 33.2532 33.4282 33.2239 33.4282C33.2239 33.4567 33.2239 33.4853 33.2239 33.5147C33.1954 33.5147 33.1669 33.5147 33.1375 33.5147C33.1233 33.586 33.109 33.6573 33.0943 33.7308C33.0658 33.7308 33.0373 33.7308 33.008 33.7308C33.008 33.7594 33.008 33.7879 33.008 33.8173C32.9795 33.8173 32.951 33.8173 32.9216 33.8173C32.9216 33.8458 32.9216 33.8744 32.9216 33.9038C32.8622 33.974 32.8622 33.974 32.7921 34.0335C32.7636 34.0335 32.7351 34.0335 32.7057 34.0335C32.7057 34.062 32.7057 34.0905 32.7057 34.1199C32.5164 34.2496 32.5164 34.2496 32.4035 34.2496C32.4035 34.2782 32.4035 34.3067 32.4035 34.3361C32.2581 34.4412 32.1991 34.4658 32.0148 34.4658C32.0148 34.4943 32.0148 34.5229 32.0148 34.5522C31.9305 34.5832 31.8462 34.6142 31.7618 34.6451C31.6688 34.6799 31.6688 34.6799 31.5844 34.7292C31.4801 34.7758 31.4052 34.7772 31.2916 34.7738C31.2571 34.773 31.2226 34.7723 31.187 34.7714C31.148 34.7699 31.148 34.7699 31.1081 34.7684C31.1081 34.7969 31.1081 34.8255 31.1081 34.8549C30.4954 34.8549 29.8827 34.8549 29.2514 34.8549C29.2514 34.8263 29.2514 34.7978 29.2514 34.7684C29.2232 34.7689 29.1951 34.7694 29.166 34.7699C28.9588 34.7721 28.7644 34.7682 28.5605 34.7252C28.5605 34.6966 28.5605 34.6681 28.5605 34.6387C28.4893 34.6387 28.418 34.6387 28.3446 34.6387C28.3446 34.6102 28.3446 34.5816 28.3446 34.5522C28.3215 34.5469 28.2983 34.5415 28.2745 34.536C28.1519 34.5037 28.0328 34.4635 27.9128 34.4226C27.9128 34.394 27.9128 34.3655 27.9128 34.3361C27.887 34.3307 27.8612 34.3254 27.8346 34.3199C27.7401 34.2929 27.7401 34.2929 27.6106 34.2064C27.6106 34.1779 27.6106 34.1493 27.6106 34.1199C27.5536 34.1199 27.4966 34.1199 27.4379 34.1199C27.363 34.036 27.2909 33.9495 27.222 33.8605C27.1935 33.8463 27.165 33.832 27.1356 33.8173C27.0061 33.6228 27.0061 33.6228 27.0061 33.5147C26.9776 33.5147 26.9491 33.5147 26.9197 33.5147C26.9197 33.4576 26.9197 33.4005 26.9197 33.3417C26.8921 33.3328 26.8645 33.3239 26.8361 33.3147C26.747 33.2553 26.747 33.2553 26.7146 33.1202C26.7093 33.0587 26.7093 33.0587 26.7038 32.9959C26.6753 32.9959 26.6468 32.9959 26.6175 32.9959C26.6175 32.9674 26.6175 32.9388 26.6175 32.9094C26.589 32.9094 26.5605 32.9094 26.5311 32.9094C26.5093 32.8474 26.4877 32.7852 26.4663 32.723C26.4543 32.6884 26.4423 32.6538 26.4299 32.6181C26.4016 32.5203 26.4016 32.5203 26.4016 32.3906C26.3731 32.3906 26.3446 32.3906 26.3152 32.3906C26.3152 32.3336 26.3152 32.2765 26.3152 32.2177C26.2867 32.2177 26.2582 32.2177 26.2289 32.2177C26.0993 31.9313 26.0993 31.9313 26.0993 31.7854C26.0708 31.7854 26.0423 31.7854 26.013 31.7854C26.013 31.7283 26.013 31.6712 26.013 31.6125C25.9845 31.6125 25.956 31.6125 25.9266 31.6125C25.8081 31.4847 25.7971 31.4493 25.7971 31.2666C25.6195 31.2779 25.442 31.2894 25.2644 31.3012C25.204 31.3051 25.1436 31.309 25.0831 31.3129C24.9964 31.3184 24.9097 31.3241 24.823 31.3299C24.7708 31.3333 24.7185 31.3367 24.6647 31.3402C24.549 31.3399 24.549 31.3399 24.5017 31.3963C24.3903 31.4102 24.2789 31.4185 24.1671 31.4274C24.0713 31.4292 24.0713 31.4292 24.0267 31.4828C23.9236 31.4891 23.8216 31.4929 23.7184 31.4949C23.6873 31.4957 23.6563 31.4965 23.6243 31.4973C23.5245 31.4999 23.4248 31.5022 23.3251 31.5044C23.1944 31.5073 23.0637 31.5105 22.9331 31.5138C22.8882 31.5147 22.8882 31.5147 22.8424 31.5156C22.6851 31.5196 22.5395 31.5359 22.3859 31.5692C22.3194 31.5748 22.2527 31.5788 22.186 31.5814C22.1458 31.583 22.1056 31.5846 22.0641 31.5862C22.0198 31.5877 21.9755 31.5893 21.9298 31.5908C21.8829 31.5926 21.8359 31.5943 21.7875 31.5961C21.1106 31.6195 20.4334 31.6331 19.7564 31.6477C19.7007 31.649 19.7007 31.649 19.6439 31.6502C19.6095 31.6509 19.5751 31.6517 19.5396 31.6524C19.5096 31.653 19.4796 31.6537 19.4487 31.6543C19.2668 31.6572 19.0848 31.6551 18.9029 31.6542C18.8177 31.6539 18.7326 31.6536 18.6474 31.6533C18.5884 31.6531 18.5295 31.6528 18.4705 31.6524C18.3852 31.6519 18.3 31.6517 18.2147 31.6515C18.1638 31.6512 18.1129 31.651 18.0605 31.6508C17.9406 31.6472 17.9406 31.6472 17.8521 31.6989C17.8236 31.6847 17.7951 31.6704 17.7658 31.6557C17.6841 31.6509 17.6023 31.6489 17.5205 31.6482C17.469 31.6476 17.4175 31.647 17.3644 31.6464C17.3083 31.646 17.2523 31.6455 17.1945 31.645C17.1361 31.6444 17.0778 31.6437 17.0194 31.6429C16.7718 31.6399 16.5242 31.6373 16.2765 31.6351C16.125 31.6337 15.9734 31.6319 15.8219 31.6299C15.7372 31.6289 15.6526 31.6283 15.568 31.6277C15.2355 31.6232 14.9149 31.5935 14.5859 31.5458C14.4113 31.5219 14.2422 31.5123 14.066 31.5081C14.0353 31.5073 14.0046 31.5064 13.973 31.5056C13.878 31.503 13.783 31.501 13.688 31.499C13.6223 31.4973 13.5566 31.4956 13.4909 31.4939C13.3327 31.4898 13.1744 31.4862 13.0161 31.4828C13.0161 31.4542 13.0161 31.4257 13.0161 31.3963C12.9823 31.3968 12.9485 31.3973 12.9137 31.3978C12.8481 31.3984 12.8481 31.3984 12.7813 31.399C12.7377 31.3995 12.6941 31.4 12.6492 31.4005C12.5411 31.3963 12.5411 31.3963 12.4979 31.3531C12.3852 31.3425 12.2735 31.3346 12.1606 31.3287C12.1276 31.3269 12.0947 31.3251 12.0607 31.3232C11.789 31.309 11.5178 31.3051 11.2457 31.3098C11.1816 31.4382 11.1816 31.4382 11.1162 31.5692C11.0877 31.5692 11.0592 31.5692 11.0298 31.5692C11.0245 31.6085 11.0191 31.6477 11.0136 31.6881C10.99 31.8109 10.9619 31.8946 10.9003 32.0015C10.8718 32.0015 10.8433 32.0015 10.8139 32.0015C10.8139 32.0443 10.8139 32.0871 10.8139 32.1312C10.7854 32.1312 10.7569 32.1312 10.7276 32.1312C10.7133 32.2311 10.6991 32.331 10.6844 32.4339C10.6559 32.4339 10.6274 32.4339 10.598 32.4339C10.5918 32.466 10.5856 32.4981 10.5791 32.5311C10.5591 32.6293 10.5368 32.726 10.5117 32.823C10.4832 32.823 10.4547 32.823 10.4253 32.823C10.4111 32.8943 10.3968 32.9656 10.3821 33.0391C10.3536 33.0391 10.3251 33.0391 10.2958 33.0391C10.2958 33.0962 10.2958 33.1533 10.2958 33.212C10.2673 33.212 10.2388 33.212 10.2094 33.212C10.2094 33.2548 10.2094 33.2976 10.2094 33.3417C10.1809 33.3417 10.1524 33.3417 10.1231 33.3417C10.1115 33.3837 10.0999 33.4256 10.088 33.4687C10.0711 33.5124 10.0541 33.5561 10.0367 33.6011C9.99395 33.6154 9.9512 33.6297 9.90716 33.6444C9.85679 33.7272 9.85679 33.7272 9.8208 33.8173C9.80655 33.8458 9.7923 33.8744 9.77762 33.9038C9.74913 33.9038 9.72063 33.9038 9.69127 33.9038C9.69127 33.9466 9.69127 33.9894 9.69127 34.0335C9.66277 34.0335 9.63427 34.0335 9.60491 34.0335C9.60491 34.062 9.60491 34.0905 9.60491 34.1199C9.47945 34.2082 9.41486 34.2496 9.25947 34.2496C9.25947 34.2782 9.25947 34.3067 9.25947 34.3361C9.23098 34.3361 9.20248 34.3361 9.17312 34.3361C9.17312 34.3646 9.17312 34.3932 9.17312 34.4226C8.89245 34.5522 8.89245 34.5522 8.69815 34.5522C8.69815 34.5808 8.69815 34.6093 8.69815 34.6387C8.47937 34.7482 8.29621 34.787 8.05215 34.8025C7.96441 34.8022 7.96441 34.8022 7.92092 34.8549C7.8615 34.8591 7.80187 34.8604 7.7423 34.8605C7.68546 34.8607 7.68546 34.8607 7.62747 34.8609C7.58627 34.8608 7.54507 34.8607 7.50263 34.8606C7.43962 34.8607 7.43962 34.8607 7.37533 34.8607C7.28633 34.8608 7.19733 34.8607 7.10832 34.8605C6.97157 34.8603 6.83483 34.8605 6.69808 34.8608C6.61183 34.8608 6.52559 34.8607 6.43934 34.8606C6.39814 34.8607 6.35694 34.8608 6.31449 34.8609C6.2766 34.8607 6.23871 34.8606 6.19966 34.8605C6.16614 34.8604 6.13261 34.8604 6.09807 34.8604C6.02104 34.8549 6.02104 34.8549 5.97786 34.8116C5.83859 34.7882 5.69886 34.7699 5.55889 34.751C5.42854 34.7274 5.32103 34.6929 5.20064 34.6387C5.20064 34.6102 5.20064 34.5816 5.20064 34.5522C5.17036 34.5469 5.14008 34.5415 5.10889 34.536C4.97712 34.5074 4.8529 34.467 4.72567 34.4226C4.72567 34.394 4.72567 34.3655 4.72567 34.3361C4.68292 34.3361 4.64018 34.3361 4.59613 34.3361C4.59613 34.3076 4.59613 34.279 4.59613 34.2496C4.56942 34.2362 4.5427 34.2229 4.51517 34.2091C4.4558 34.1794 4.39643 34.1496 4.33706 34.1199C4.33706 34.0914 4.33706 34.0629 4.33706 34.0335C4.29431 34.0335 4.25157 34.0335 4.20752 34.0335C4.20752 34.0049 4.20752 33.9764 4.20752 33.947C4.17902 33.947 4.15053 33.947 4.12116 33.947C3.99163 33.7574 3.99163 33.7574 3.99163 33.6444C3.9658 33.6426 3.93997 33.6408 3.91337 33.639C3.81891 33.6011 3.81891 33.6011 3.74335 33.4741C3.68937 33.3417 3.68937 33.3417 3.68937 33.2553C3.66088 33.2553 3.63238 33.2553 3.60302 33.2553C3.60302 33.2125 3.60302 33.1697 3.60302 33.1256C3.57452 33.1256 3.54602 33.1256 3.51666 33.1256C3.50469 33.0886 3.49272 33.0517 3.48039 33.0136C3.46475 32.9659 3.44911 32.9181 3.433 32.8689C3.4097 32.7974 3.4097 32.7974 3.38594 32.7245C3.35523 32.6119 3.35523 32.6119 3.30076 32.5636C3.29453 32.5181 3.28829 32.4726 3.28187 32.4258C3.26433 32.2663 3.26433 32.2663 3.21355 32.144C3.16236 31.9717 3.15938 31.8112 3.16055 31.6333C3.16045 31.5968 3.16034 31.5604 3.16023 31.5228C3.15999 31.4008 3.16036 31.2789 3.16074 31.1569C3.16069 31.0693 3.16061 30.9818 3.16049 30.8942C3.16028 30.6564 3.16061 30.4186 3.16105 30.1808C3.16143 29.9315 3.16135 29.6822 3.16133 29.4329C3.16137 29.0138 3.16175 28.5947 3.16234 28.1757C3.16302 27.6924 3.16324 27.2091 3.16321 26.7258C3.16318 26.2102 3.16348 25.6946 3.16388 25.179C3.16397 25.0311 3.164 24.8831 3.16402 24.7352C3.16406 24.5017 3.16433 24.2682 3.16476 24.0346C3.16489 23.9494 3.16494 23.8641 3.16492 23.7788C3.16483 23.3041 3.17486 22.834 3.2144 22.3607C3.2429 22.3607 3.2714 22.3607 3.30076 22.3607C3.30076 22.2181 3.30076 22.0754 3.30076 21.9284C3.32926 21.9284 3.35776 21.9284 3.38712 21.9284C3.39514 21.8615 3.39514 21.8615 3.40331 21.7933C3.42766 21.6422 3.46427 21.5098 3.51666 21.3664C3.54516 21.3664 3.57365 21.3664 3.60302 21.3664C3.60302 21.3236 3.60302 21.2808 3.60302 21.2367C3.63151 21.2367 3.66001 21.2367 3.68937 21.2367C3.69472 21.1966 3.70006 21.1565 3.70557 21.1151C3.73255 20.9773 3.73255 20.9773 3.81891 20.8476C3.84741 20.8476 3.87591 20.8476 3.90527 20.8476C3.90527 20.8048 3.90527 20.762 3.90527 20.7179C3.93377 20.7179 3.96227 20.7179 3.99163 20.7179C4.00588 20.6609 4.02013 20.6038 4.03481 20.545C4.0633 20.545 4.0918 20.545 4.12116 20.545C4.12116 20.5022 4.12116 20.4594 4.12116 20.4153C4.14966 20.4153 4.17816 20.4153 4.20752 20.4153C4.20752 20.3868 4.20752 20.3582 4.20752 20.3288C4.23602 20.3288 4.26452 20.3288 4.29388 20.3288C4.30813 20.286 4.32238 20.2432 4.33706 20.1991C4.36556 20.1991 4.39406 20.1991 4.42342 20.1991C4.42342 20.1706 4.42342 20.1421 4.42342 20.1127C4.45192 20.1127 4.48041 20.1127 4.50978 20.1127C4.50978 20.0841 4.50978 20.0556 4.50978 20.0262C4.6991 19.8965 4.6991 19.8965 4.81203 19.8965C4.81203 19.868 4.81203 19.8394 4.81203 19.81C4.84053 19.81 4.86903 19.81 4.89839 19.81C4.89839 19.7815 4.89839 19.753 4.89839 19.7236C4.94114 19.7236 4.98388 19.7236 5.02793 19.7236C5.02793 19.695 5.02793 19.6665 5.02793 19.6371C5.09917 19.6228 5.17042 19.6086 5.24382 19.5939C5.24382 19.5653 5.24382 19.5368 5.24382 19.5074C5.30082 19.5074 5.35781 19.5074 5.41654 19.5074C5.41654 19.4789 5.41654 19.4503 5.41654 19.421C5.60586 19.2913 5.60586 19.2913 5.71879 19.2913C5.71879 19.2627 5.71879 19.2342 5.71879 19.2048C5.69029 19.2048 5.66179 19.2048 5.63243 19.2048C5.63243 19.1763 5.63243 19.1477 5.63243 19.1183C5.60393 19.1183 5.57544 19.1183 5.54607 19.1183C5.47591 19.0589 5.47591 19.0589 5.41654 18.9886C5.41654 18.9601 5.41654 18.9316 5.41654 18.9022C5.38804 18.9022 5.35954 18.9022 5.33018 18.9022C5.33018 18.8736 5.33018 18.8451 5.33018 18.8157C5.30168 18.8157 5.27318 18.8157 5.24382 18.8157C5.17365 18.7563 5.17365 18.7563 5.11428 18.686C5.11428 18.6575 5.11428 18.6289 5.11428 18.5995C5.08579 18.5995 5.05729 18.5995 5.02793 18.5995C5.02793 18.571 5.02793 18.5425 5.02793 18.5131C4.99943 18.5131 4.97093 18.5131 4.94157 18.5131C4.8714 18.4536 4.8714 18.4536 4.81203 18.3834C4.81203 18.3548 4.81203 18.3263 4.81203 18.2969C4.78353 18.2969 4.75503 18.2969 4.72567 18.2969C4.72567 18.2684 4.72567 18.2398 4.72567 18.2104C4.69717 18.2104 4.66868 18.2104 4.63931 18.2104C4.56915 18.151 4.56915 18.151 4.50978 18.0808C4.50978 18.0522 4.50978 18.0237 4.50978 17.9943C4.48128 17.9943 4.45278 17.9943 4.42342 17.9943C4.42342 17.9658 4.42342 17.9372 4.42342 17.9078C4.39492 17.9078 4.36642 17.9078 4.33706 17.9078C4.26689 17.8484 4.26689 17.8484 4.20752 17.7781C4.20752 17.7496 4.20752 17.7211 4.20752 17.6917C4.17902 17.6917 4.15053 17.6917 4.12116 17.6917C4.12116 17.6631 4.12116 17.6346 4.12116 17.6052C4.09267 17.6052 4.06417 17.6052 4.03481 17.6052C3.96464 17.5458 3.96464 17.5458 3.90527 17.4755C3.90527 17.447 3.90527 17.4184 3.90527 17.389C3.87677 17.389 3.84827 17.389 3.81891 17.389C3.81891 17.3605 3.81891 17.332 3.81891 17.3026C3.79041 17.3026 3.76191 17.3026 3.73255 17.3026C3.66239 17.2431 3.66239 17.2431 3.60302 17.1729C3.60302 17.1443 3.60302 17.1158 3.60302 17.0864C3.57452 17.0864 3.54602 17.0864 3.51666 17.0864C3.461 17.0232 3.461 17.0232 3.40331 16.9405C3.38405 16.9134 3.3648 16.8863 3.34495 16.8584C3.30076 16.7838 3.30076 16.7838 3.30076 16.6973C3.27226 16.6973 3.24377 16.6973 3.2144 16.6973C3.13294 16.3711 3.15059 16.0902 3.30076 15.7894C3.32926 15.7894 3.35776 15.7894 3.38712 15.7894C3.38712 15.7466 3.38712 15.7038 3.38712 15.6597C3.41562 15.6597 3.44412 15.6597 3.47348 15.6597C3.47348 15.6312 3.47348 15.6027 3.47348 15.5733C3.67772 15.4523 3.84757 15.4234 4.08068 15.4274C4.11066 15.4269 4.14063 15.4264 4.17151 15.4258C4.36233 15.4269 4.48913 15.4531 4.63931 15.5733C4.63931 15.6018 4.63931 15.6303 4.63931 15.6597C4.66781 15.6597 4.69631 15.6597 4.72567 15.6597C4.72567 15.6883 4.72567 15.7168 4.72567 15.7462C4.75328 15.7578 4.78089 15.7694 4.80933 15.7813C4.89839 15.8327 4.89839 15.8327 4.94157 15.9624C4.96828 15.9686 4.995 15.9749 5.02253 15.9813C5.14618 16.0141 5.17884 16.0712 5.24382 16.1785C5.24382 16.2071 5.24382 16.2356 5.24382 16.265C5.27232 16.265 5.30082 16.265 5.33018 16.265C5.33018 16.2935 5.33018 16.3221 5.33018 16.3515C5.37293 16.3657 5.41567 16.38 5.45972 16.3947C5.45972 16.4232 5.45972 16.4518 5.45972 16.4812C5.48821 16.4812 5.51671 16.4812 5.54607 16.4812C5.54607 16.5097 5.54607 16.5382 5.54607 16.5676C5.57457 16.5676 5.60307 16.5676 5.63243 16.5676C5.63243 16.5962 5.63243 16.6247 5.63243 16.6541C5.67518 16.6684 5.71793 16.6826 5.76197 16.6973C5.76197 16.7259 5.76197 16.7544 5.76197 16.7838C5.79047 16.7838 5.81897 16.7838 5.84833 16.7838C5.84833 16.8123 5.84833 16.8408 5.84833 16.8702C5.87683 16.8702 5.90532 16.8702 5.93469 16.8702C5.93469 16.8988 5.93469 16.9273 5.93469 16.9567C5.96853 16.9701 6.00237 16.9835 6.03724 16.9972C6.15058 17.0432 6.15058 17.0432 6.23694 17.0864C6.23694 17.1435 6.23694 17.2005 6.23694 17.2593C6.27969 17.2736 6.32243 17.2879 6.36648 17.3026C6.36648 17.3311 6.36648 17.3596 6.36648 17.389C6.39497 17.389 6.42347 17.389 6.45283 17.389C6.45283 17.4176 6.45283 17.4461 6.45283 17.4755C6.48133 17.4755 6.50983 17.4755 6.53919 17.4755C6.53919 17.504 6.53919 17.5326 6.53919 17.562C6.58194 17.5762 6.62469 17.5905 6.66873 17.6052C6.66873 17.6337 6.66873 17.6623 6.66873 17.6917C6.69723 17.6917 6.72573 17.6917 6.75509 17.6917C6.75509 17.7202 6.75509 17.7487 6.75509 17.7781C6.78359 17.7781 6.81208 17.7781 6.84145 17.7781C6.84145 17.8067 6.84145 17.8352 6.84145 17.8646C6.86994 17.8646 6.89844 17.8646 6.9278 17.8646C6.93098 17.8223 6.93098 17.8223 6.93421 17.7791C6.95252 17.5649 6.97775 17.3748 7.05734 17.1729C7.08584 17.1729 7.11434 17.1729 7.1437 17.1729C7.1437 17.1015 7.1437 17.0302 7.1437 16.9567C7.1722 16.9567 7.2007 16.9567 7.23006 16.9567C7.22739 16.9148 7.22471 16.8729 7.22196 16.8297C7.22072 16.6275 7.28845 16.452 7.3596 16.265C7.38809 16.265 7.41659 16.265 7.44595 16.265C7.44595 16.1937 7.44595 16.1223 7.44595 16.0488C7.47445 16.0488 7.50295 16.0488 7.53231 16.0488C7.53142 16.0034 7.53053 15.9579 7.52961 15.911C7.53184 15.7753 7.54376 15.6611 7.57549 15.53C7.60399 15.53 7.63249 15.53 7.66185 15.53C7.66185 15.473 7.66185 15.4159 7.66185 15.3571C7.69035 15.3571 7.71885 15.3571 7.74821 15.3571C7.74464 15.3232 7.74108 15.2894 7.73741 15.2544C7.75002 15.0714 7.80564 14.9384 7.87892 14.772C7.92124 14.6646 7.94489 14.5628 7.9641 14.4492C7.9926 14.4492 8.0211 14.4492 8.05046 14.4492C8.05848 14.373 8.05848 14.373 8.06665 14.2952C8.08778 14.1232 8.12842 13.966 8.18 13.8008C8.2085 13.8008 8.23699 13.8008 8.26636 13.8008C8.26636 13.7009 8.26636 13.601 8.26636 13.4981C8.29485 13.4981 8.32335 13.4981 8.35271 13.4981C8.35806 13.4464 8.3634 13.3947 8.36891 13.3414C8.38826 13.1836 8.42631 13.0422 8.48225 12.8929C8.51075 12.8929 8.53925 12.8929 8.56861 12.8929C8.56505 12.859 8.56148 12.8251 8.55781 12.7902C8.57044 12.6068 8.62841 12.4758 8.7 12.3084C8.7533 12.1701 8.77172 12.0457 8.78451 11.8985C8.813 11.8985 8.8415 11.8985 8.87086 11.8985C8.87704 11.8738 8.88322 11.849 8.88959 11.8236C8.92652 11.6756 8.96346 11.5277 9.0004 11.3797C9.0289 11.3797 9.0574 11.3797 9.08676 11.3797C9.08676 11.3227 9.08676 11.2656 9.08676 11.2068C9.11526 11.2068 9.14375 11.2068 9.17312 11.2068C9.17312 11.164 9.17312 11.1212 9.17312 11.0771C9.20161 11.0771 9.23011 11.0771 9.25947 11.0771C9.26749 11.029 9.26749 11.029 9.27567 10.9798C9.30071 10.8695 9.33448 10.7863 9.38901 10.688C9.41751 10.688 9.44601 10.688 9.47537 10.688C9.47537 10.6452 9.47537 10.6024 9.47537 10.5583C9.50387 10.5583 9.53237 10.5583 9.56173 10.5583C9.57331 10.5325 9.58488 10.5066 9.59681 10.48C9.64805 10.3855 9.69541 10.3243 9.77762 10.2557C9.80612 10.2557 9.83462 10.2557 9.86398 10.2557C9.87823 10.1986 9.89248 10.1416 9.90716 10.0828C9.93566 10.0828 9.96416 10.0828 9.99352 10.0828C9.99352 10.0542 9.99352 10.0257 9.99352 9.99631C10.079 9.97491 10.079 9.97491 10.1662 9.95308C10.1662 9.92455 10.1662 9.89602 10.1662 9.86662C10.209 9.86662 10.2517 9.86662 10.2958 9.86662C10.2958 9.83808 10.2958 9.80955 10.2958 9.78015C10.3243 9.78015 10.3528 9.78015 10.3821 9.78015C10.3821 9.75162 10.3821 9.72309 10.3821 9.69369C10.4927 9.59441 10.5324 9.56399 10.6844 9.56399C10.6844 9.53546 10.6844 9.50693 10.6844 9.47753C10.999 9.3293 10.999 9.3293 11.2025 9.34783C11.2025 9.3193 11.2025 9.29076 11.2025 9.26137C11.5056 9.11986 11.7753 9.05792 12.1093 9.0452C12.1093 9.01667 12.1093 8.98814 12.1093 8.95874ZM14.8728 26.9434C14.8728 26.9719 14.8728 27.0004 14.8728 27.0298C14.8443 27.0298 14.8158 27.0298 14.7864 27.0298C14.7721 27.1012 14.7579 27.1725 14.7432 27.246C14.7147 27.246 14.6862 27.246 14.6569 27.246C14.6569 27.3173 14.6569 27.3887 14.6569 27.4622C14.6284 27.4622 14.5999 27.4622 14.5705 27.4622C14.5592 27.6494 14.6011 27.8028 14.6569 27.9809C14.6284 27.9809 14.5999 27.9809 14.5705 27.9809C14.5741 28.0148 14.5777 28.0486 14.5815 28.0834C14.5859 28.1272 14.5903 28.1709 14.5948 28.216C14.5993 28.2597 14.6038 28.3033 14.6085 28.3482C14.6102 28.384 14.6119 28.4197 14.6137 28.4565C14.5923 28.4779 14.5923 28.4779 14.5705 28.4997C14.5667 28.5925 14.5659 28.6854 14.5663 28.7782C14.5664 28.8346 14.5666 28.8911 14.5667 28.9492C14.5671 29.0092 14.5674 29.0693 14.5678 29.1293C14.568 29.1895 14.5682 29.2497 14.5684 29.3099C14.5689 29.4578 14.5696 29.6056 14.5705 29.7535C14.6116 29.7561 14.6528 29.7587 14.6951 29.7614C14.7764 29.7668 14.7764 29.7668 14.8593 29.7724C14.9397 29.7776 14.9397 29.7776 15.0217 29.783C15.175 29.7967 15.175 29.7967 15.28 29.819C15.4372 29.8487 15.5941 29.8502 15.7535 29.8536C15.7899 29.8545 15.8262 29.8554 15.8636 29.8563C15.9849 29.8592 16.1062 29.8618 16.2275 29.8642C16.2698 29.8651 16.3121 29.8661 16.3556 29.867C17.8302 29.8977 19.3056 29.8956 20.7802 29.867C20.8193 29.8663 20.8584 29.8656 20.8987 29.8649C21.2982 29.8579 21.6947 29.8416 22.0923 29.8004C22.1256 29.7971 22.159 29.7938 22.1934 29.7904C22.2724 29.7814 22.3509 29.7679 22.4291 29.7535C22.4863 29.639 22.4779 29.5517 22.478 29.4237C22.4781 29.3512 22.4781 29.3512 22.4782 29.2773C22.478 29.2267 22.4778 29.1761 22.4777 29.1239C22.4778 29.0731 22.478 29.0223 22.4782 28.97C22.4781 28.9217 22.4781 28.8735 22.478 28.8238C22.4779 28.757 22.4779 28.757 22.4779 28.6889C22.4838 28.5881 22.4838 28.5881 22.4291 28.543C22.4189 28.3039 22.4189 28.3039 22.4723 28.1971C22.4795 28.0656 22.4795 28.0656 22.4723 27.9377C22.458 27.9234 22.4438 27.9092 22.4291 27.8945C22.4237 27.774 22.4191 27.6675 22.4549 27.5515C22.4767 27.4395 22.4536 27.3828 22.4102 27.2784C22.3978 27.2479 22.3854 27.2173 22.3726 27.1859C22.3627 27.1629 22.3529 27.14 22.3427 27.1163C22.3142 27.1163 22.2857 27.1163 22.2564 27.1163C22.2564 27.0878 22.2564 27.0592 22.2564 27.0298C22.2279 27.0298 22.1994 27.0298 22.17 27.0298C22.17 27.0013 22.17 26.9728 22.17 26.9434C21.7989 26.8592 21.4406 26.8445 21.0614 26.8457C20.999 26.8456 20.9367 26.8454 20.8744 26.8453C20.7065 26.8449 20.5386 26.845 20.3707 26.8453C20.1942 26.8455 20.0177 26.8453 19.8412 26.8452C19.545 26.845 19.2488 26.8452 18.9526 26.8456C18.6111 26.8461 18.2695 26.8459 17.928 26.8455C17.6337 26.8451 17.3394 26.845 17.0451 26.8453C16.8698 26.8454 16.6945 26.8454 16.5192 26.8451C16.3543 26.8449 16.1895 26.845 16.0247 26.8455C15.9645 26.8457 15.9043 26.8456 15.8441 26.8454C15.5097 26.8445 15.1976 26.8602 14.8728 26.9434ZM5.02793 29.9696C5.02169 30.0258 5.01546 30.082 5.00903 30.1399C4.99014 30.3101 4.99014 30.3101 4.94157 30.3587C4.93034 30.5723 4.93034 30.5723 4.96314 30.7814C4.98923 30.8975 4.99024 31.0045 4.99082 31.1236C4.99165 31.1716 4.99249 31.2196 4.99335 31.269C4.99479 31.3689 4.9956 31.4688 4.99571 31.5686C5.00331 31.9165 5.07586 32.1724 5.24382 32.4771C5.27232 32.4771 5.30082 32.4771 5.33018 32.4771C5.34443 32.5199 5.35868 32.5627 5.37336 32.6068C5.40186 32.6068 5.43035 32.6068 5.45972 32.6068C5.45972 32.6353 5.45972 32.6639 5.45972 32.6933C5.48821 32.6933 5.51671 32.6933 5.54607 32.6933C5.54607 32.7218 5.54607 32.7503 5.54607 32.7797C5.60307 32.794 5.66007 32.8083 5.71879 32.823C5.71879 32.8515 5.71879 32.88 5.71879 32.9094C5.76154 32.9094 5.80428 32.9094 5.84833 32.9094C5.84833 32.938 5.84833 32.9665 5.84833 32.9959C5.94354 33.019 6.03893 33.0414 6.13439 33.0634C6.18749 33.076 6.24059 33.0885 6.2953 33.1014C6.45141 33.1254 6.55883 33.1139 6.71191 33.0824C6.81266 33.0968 6.91341 33.1112 7.01416 33.1256C7.40835 33.1494 7.84989 33.1503 8.19467 32.9319C8.21833 32.9102 8.24198 32.8885 8.26636 32.8662C8.26636 32.8377 8.26636 32.8091 8.26636 32.7797C8.29485 32.7797 8.32335 32.7797 8.35271 32.7797C8.35271 32.7512 8.35271 32.7227 8.35271 32.6933C8.39546 32.6933 8.43821 32.6933 8.48225 32.6933C8.48225 32.6647 8.48225 32.6362 8.48225 32.6068C8.51075 32.6068 8.53925 32.6068 8.56861 32.6068C8.56861 32.5783 8.56861 32.5497 8.56861 32.5203C8.59711 32.5203 8.62561 32.5203 8.65497 32.5203C8.66922 32.449 8.68347 32.3777 8.69815 32.3042C8.72665 32.3042 8.75514 32.3042 8.78451 32.3042C8.78451 32.2614 8.78451 32.2186 8.78451 32.1745C8.813 32.1745 8.8415 32.1745 8.87086 32.1745C8.87086 32.1174 8.87086 32.0603 8.87086 32.0015C8.89936 32.0015 8.92786 32.0015 8.95722 32.0015C9.05612 31.7935 9.05612 31.7935 9.08676 31.5692C9.11526 31.5692 9.14375 31.5692 9.17312 31.5692C9.17312 31.4979 9.17312 31.4266 9.17312 31.3531C9.20161 31.3531 9.23011 31.3531 9.25947 31.3531C9.27372 31.2675 9.28797 31.1819 9.30265 31.0937C9.33115 31.0937 9.35965 31.0937 9.38901 31.0937C9.38901 31.0651 9.38901 31.0366 9.38901 31.0072C9.3633 31.0048 9.3376 31.0024 9.31111 31C9.19493 30.989 9.07877 30.9779 8.96262 30.9667C8.92215 30.9629 8.88169 30.9591 8.84 30.9553C8.80131 30.9515 8.76263 30.9477 8.72277 30.9439C8.68705 30.9405 8.65132 30.9371 8.61451 30.9336C8.52543 30.9207 8.52543 30.9207 8.43907 30.8775C8.33843 30.8642 8.23775 30.8555 8.13665 30.8464C8.05046 30.8343 8.05046 30.8343 8.00728 30.791C7.90568 30.7879 7.80398 30.7874 7.70233 30.7883C7.64661 30.7887 7.5909 30.7891 7.53349 30.7895C7.49036 30.79 7.44722 30.7905 7.40277 30.791C7.40277 30.7625 7.40277 30.734 7.40277 30.7046C7.35652 30.6988 7.31027 30.6931 7.26261 30.6872C7.20228 30.6795 7.14196 30.6718 7.08163 30.664C7.0511 30.6603 7.02057 30.6565 6.98912 30.6526C6.75998 30.623 6.75998 30.623 6.71191 30.5749C6.64631 30.5718 6.58057 30.5713 6.5149 30.5722C6.47923 30.5726 6.44355 30.573 6.40679 30.5734C6.37924 30.5739 6.35168 30.5744 6.3233 30.5749C6.30905 30.5463 6.2948 30.5178 6.28012 30.4884C6.06551 30.4139 5.8579 30.3825 5.63243 30.3587C5.63243 30.3302 5.63243 30.3017 5.63243 30.2723C5.58968 30.2723 5.54694 30.2723 5.50289 30.2723C5.50289 30.2437 5.50289 30.2152 5.50289 30.1858C5.4459 30.1858 5.3889 30.1858 5.33018 30.1858C5.33018 30.1573 5.33018 30.1287 5.33018 30.0993C5.25893 30.0851 5.18769 30.0708 5.11428 30.0561C5.11428 30.0276 5.11428 29.999 5.11428 29.9696C5.08579 29.9696 5.05729 29.9696 5.02793 29.9696ZM31.7126 30.0993C31.7126 30.1279 31.7126 30.1564 31.7126 30.1858C31.5147 30.2689 31.3119 30.3353 31.1081 30.4019C31.1081 30.4305 31.1081 30.459 31.1081 30.4884C31.0814 30.4947 31.0547 30.5009 31.0271 30.5073C30.934 30.5287 30.934 30.5287 30.849 30.5749C30.8276 30.5321 30.8276 30.5321 30.8058 30.4884C30.8058 30.5169 30.8058 30.5455 30.8058 30.5749C30.7649 30.5731 30.7239 30.5713 30.6817 30.5695C30.5079 30.5691 30.3467 30.6027 30.1774 30.6392C30.042 30.6676 29.9067 30.6867 29.7695 30.7046C29.7695 30.7331 29.7695 30.7616 29.7695 30.791C29.7264 30.7905 29.6833 30.79 29.6388 30.7895C29.5831 30.7891 29.5274 30.7887 29.47 30.7883C29.4144 30.7878 29.3588 30.7873 29.3015 30.7868C29.1709 30.7752 29.1709 30.7752 29.1218 30.8343C29.0555 30.8423 28.9888 30.8482 28.9221 30.8532C28.787 30.8652 28.6753 30.8819 28.5443 30.9207C28.2547 31.0007 27.953 31.0072 27.6538 31.0072C27.6538 31.0357 27.6538 31.0643 27.6538 31.0937C27.6823 31.0937 27.7108 31.0937 27.7401 31.0937C27.7401 31.1507 27.7401 31.2078 27.7401 31.2666C27.7686 31.2666 27.7971 31.2666 27.8265 31.2666C27.8318 31.2898 27.8372 31.313 27.8427 31.3368C27.8749 31.4596 27.9151 31.5788 27.956 31.6989C27.9845 31.6989 28.013 31.6989 28.0424 31.6989C28.0424 31.756 28.0424 31.8131 28.0424 31.8718C28.0709 31.8718 28.0994 31.8718 28.1287 31.8718C28.143 31.9717 28.1572 32.0716 28.1719 32.1745C28.2004 32.1745 28.2289 32.1745 28.2583 32.1745C28.2583 32.2173 28.2583 32.2601 28.2583 32.3042C28.2868 32.3042 28.3153 32.3042 28.3446 32.3042C28.3446 32.3327 28.3446 32.3612 28.3446 32.3906C28.3731 32.3906 28.4016 32.3906 28.431 32.3906C28.4452 32.462 28.4595 32.5333 28.4742 32.6068C28.5027 32.6068 28.5312 32.6068 28.5605 32.6068C28.5605 32.6353 28.5605 32.6639 28.5605 32.6933C28.6996 32.7934 28.6996 32.7934 28.8628 32.823C28.8628 32.8515 28.8628 32.88 28.8628 32.9094C28.8913 32.9094 28.9198 32.9094 28.9491 32.9094C28.9491 32.938 28.9491 32.9665 28.9491 32.9959C29.3286 33.1155 29.6883 33.1448 30.0825 33.1401C30.1751 33.1391 30.2677 33.1392 30.3604 33.1395C30.6265 33.1384 30.8559 33.1345 31.1081 33.0391C31.1655 33.024 31.223 33.0092 31.2808 32.9959C31.2808 32.9674 31.2808 32.9388 31.2808 32.9094C31.312 32.8996 31.3431 32.8898 31.3753 32.8797C31.5211 32.8116 31.6071 32.7275 31.7126 32.6068C31.7126 32.5783 31.7126 32.5497 31.7126 32.5203C31.7411 32.5203 31.7696 32.5203 31.799 32.5203C31.799 32.4775 31.799 32.4347 31.799 32.3906C31.8275 32.3906 31.8559 32.3906 31.8853 32.3906C31.8853 32.3621 31.8853 32.3336 31.8853 32.3042C31.9138 32.3042 31.9423 32.3042 31.9717 32.3042C31.9863 32.2286 32.0006 32.1529 32.0148 32.0772C32.0269 32.014 32.0269 32.014 32.0391 31.9495C32.0612 31.808 32.0584 31.6716 32.0553 31.5287C32.0578 31.4064 32.0774 31.2995 32.1012 31.1801C32.087 31.1659 32.0727 31.1516 32.058 31.1369C32.0526 31.0288 32.0526 31.0288 32.058 30.9207C32.0794 30.8993 32.0794 30.8993 32.1012 30.8775C32.105 30.81 32.1058 30.7423 32.1054 30.6747C32.1053 30.6339 32.1051 30.593 32.105 30.551C32.1046 30.508 32.1043 30.4651 32.1039 30.4209C32.1037 30.3778 32.1035 30.3347 32.1033 30.2902C32.1028 30.1834 32.1021 30.0765 32.1012 29.9696C31.9586 29.9696 31.8412 30.0421 31.7126 30.0993Z" fill="#BFCBE3"/>
<path d="M20.4702 12.3284C20.5338 12.3569 20.5968 12.3864 20.6591 12.4176C20.6591 12.4461 20.6591 12.4747 20.6591 12.5041C20.7161 12.5041 20.7731 12.5041 20.8318 12.5041C20.8754 12.5815 20.919 12.6589 20.9625 12.7363C21.0001 12.8058 21.0001 12.8058 21.0477 12.8499C21.0538 12.9654 21.0496 13.0801 21.0477 13.1958C21.0762 13.1958 21.1047 13.1958 21.1341 13.1958C21.1846 13.3679 21.2316 13.538 21.2636 13.7146C21.2921 13.7146 21.3206 13.7146 21.35 13.7146C21.35 13.8144 21.35 13.9143 21.35 14.0172C21.3785 14.0172 21.407 14.0172 21.4363 14.0172C21.4399 14.0653 21.4435 14.1135 21.4471 14.1631C21.4613 14.3223 21.4613 14.3223 21.5686 14.382C21.61 14.394 21.61 14.394 21.6522 14.4063C21.6522 14.4776 21.6522 14.5489 21.6522 14.6224C21.6807 14.6224 21.7092 14.6224 21.7386 14.6224C21.7528 14.7223 21.7671 14.8222 21.7818 14.9251C21.8103 14.9251 21.8388 14.9251 21.8681 14.9251C21.8681 14.9536 21.8681 14.9821 21.8681 15.0115C21.8966 15.0115 21.9251 15.0115 21.9545 15.0115C21.9545 15.0543 21.9545 15.0971 21.9545 15.1412C21.983 15.1412 22.0115 15.1412 22.0408 15.1412C22.0551 15.2126 22.0693 15.2839 22.084 15.3574C22.1125 15.3574 22.141 15.3574 22.1704 15.3574C22.1877 15.3962 22.1877 15.3962 22.2055 15.4357C22.252 15.5322 22.252 15.5322 22.3269 15.6006C22.3465 15.6202 22.3661 15.6398 22.3863 15.66C22.3863 15.6885 22.3863 15.7171 22.3863 15.7465C22.4148 15.7465 22.4433 15.7465 22.4726 15.7465C22.4726 15.7893 22.4726 15.8321 22.4726 15.8762C22.5011 15.8762 22.5296 15.8762 22.559 15.8762C22.559 15.9047 22.559 15.9332 22.559 15.9626C22.5875 15.9626 22.616 15.9626 22.6454 15.9626C22.7749 16.1522 22.7749 16.1522 22.7749 16.2653C22.8034 16.2653 22.8319 16.2653 22.8612 16.2653C22.8612 16.2938 22.8612 16.3223 22.8612 16.3517C22.904 16.366 22.9467 16.3803 22.9908 16.395C22.9908 16.4235 22.9908 16.452 22.9908 16.4814C23.0193 16.4814 23.0478 16.4814 23.0771 16.4814C23.0771 16.51 23.0771 16.5385 23.0771 16.5679C23.1056 16.5679 23.1341 16.5679 23.1635 16.5679C23.1635 16.5964 23.1635 16.625 23.1635 16.6544C23.2062 16.6686 23.249 16.6829 23.293 16.6976C23.293 16.7261 23.293 16.7547 23.293 16.7841C23.3206 16.7885 23.3483 16.793 23.3767 16.7976C23.4061 16.8074 23.4355 16.8172 23.4658 16.8273C23.48 16.8701 23.4943 16.9129 23.5089 16.957C23.5959 16.9887 23.5959 16.9887 23.6817 17.0002C23.6817 17.0287 23.6817 17.0573 23.6817 17.0867C23.7101 17.0867 23.7386 17.0867 23.768 17.0867C23.7823 17.1437 23.7965 17.2008 23.8112 17.2596C23.8682 17.2739 23.9252 17.2881 23.9839 17.3028C23.9839 17.3314 23.9839 17.3599 23.9839 17.3893C24.0124 17.3893 24.0409 17.3893 24.0703 17.3893C24.1909 17.5929 24.2167 17.7571 24.2079 17.9892C24.2073 18.0189 24.2067 18.0487 24.2061 18.0793C24.2046 18.152 24.2023 18.2246 24.1998 18.2972C24.1713 18.2972 24.1428 18.2972 24.1134 18.2972C24.0992 18.3685 24.0849 18.4398 24.0703 18.5133C24.0418 18.5133 24.0133 18.5133 23.9839 18.5133C23.9839 18.5419 23.9839 18.5704 23.9839 18.5998C23.9554 18.5998 23.9269 18.5998 23.8975 18.5998C23.8975 18.6283 23.8975 18.6569 23.8975 18.6863C23.6662 18.9024 23.6662 18.9024 23.5089 18.9024C23.4947 18.9452 23.4804 18.988 23.4658 19.0321C23.4373 19.0321 23.4088 19.0321 23.3794 19.0321C23.3794 19.0607 23.3794 19.0892 23.3794 19.1186C23.3509 19.1186 23.3224 19.1186 23.293 19.1186C23.293 19.1471 23.293 19.1757 23.293 19.2051C23.2337 19.2753 23.2337 19.2753 23.1635 19.3348C23.135 19.3348 23.1065 19.3348 23.0771 19.3348C23.0771 19.3633 23.0771 19.3918 23.0771 19.4212C23.0486 19.4212 23.0201 19.4212 22.9908 19.4212C22.9908 19.4498 22.9908 19.4783 22.9908 19.5077C22.9314 19.5779 22.9314 19.5779 22.8612 19.6374C22.8327 19.6374 22.8043 19.6374 22.7749 19.6374C22.7749 19.6659 22.7749 19.6944 22.7749 19.7238C22.7464 19.7238 22.7179 19.7238 22.6885 19.7238C22.6832 19.7497 22.6778 19.7756 22.6723 19.8022C22.6454 19.8968 22.6454 19.8968 22.559 20.0265C22.5305 20.0265 22.502 20.0265 22.4726 20.0265C22.4726 20.055 22.4726 20.0835 22.4726 20.1129C22.4441 20.1129 22.4156 20.1129 22.3863 20.1129C22.3827 20.1379 22.3792 20.1629 22.3755 20.1886C22.3337 20.3141 22.2703 20.3739 22.1704 20.4588C22.1419 20.4588 22.1134 20.4588 22.084 20.4588C22.076 20.5163 22.076 20.5163 22.0678 20.575C22.0427 20.7082 22.019 20.8153 21.9545 20.9344C21.8627 20.9695 21.8627 20.9695 21.7818 20.9776C21.7675 21.0632 21.7533 21.1488 21.7386 21.237C21.7101 21.237 21.6816 21.237 21.6522 21.237C21.6522 21.2798 21.6522 21.3226 21.6522 21.3667C21.6237 21.3667 21.5952 21.3667 21.5659 21.3667C21.5659 21.4237 21.5659 21.4808 21.5659 21.5396C21.5374 21.5396 21.5089 21.5396 21.4795 21.5396C21.4653 21.6395 21.451 21.7393 21.4363 21.8422C21.4078 21.8422 21.3793 21.8422 21.35 21.8422C21.35 21.9136 21.35 21.9849 21.35 22.0584C21.3215 22.0584 21.293 22.0584 21.2636 22.0584C21.2636 22.1583 21.2636 22.2581 21.2636 22.361C21.2351 22.361 21.2066 22.361 21.1773 22.361C21.163 22.4609 21.1488 22.5607 21.1341 22.6636C21.1056 22.6636 21.0771 22.6636 21.0477 22.6636C21.0522 22.6975 21.0566 22.7314 21.0612 22.7663C21.0423 22.9858 20.9601 23.1759 20.8318 23.3554C20.7411 23.3844 20.7411 23.3844 20.6591 23.3986C20.6087 23.4815 20.6087 23.4815 20.5728 23.5715C20.4864 23.658 20.4864 23.658 20.3628 23.6695C20.3136 23.6692 20.2645 23.669 20.2138 23.6688C20.165 23.669 20.1162 23.6692 20.0659 23.6695C19.9288 23.6583 19.8327 23.63 19.7092 23.5715C19.7092 23.543 19.7092 23.5145 19.7092 23.4851C19.6833 23.4815 19.6575 23.4779 19.6309 23.4742C19.5093 23.4325 19.4726 23.3775 19.4069 23.2689C19.4069 23.2404 19.4069 23.2118 19.4069 23.1824C19.3784 23.1824 19.3499 23.1824 19.3206 23.1824C19.3206 23.1539 19.3206 23.1254 19.3206 23.096C19.2921 23.096 19.2636 23.096 19.2342 23.096C19.2271 23.0374 19.2271 23.0374 19.2199 22.9776C19.213 22.9266 19.2062 22.8756 19.1991 22.8231C19.1926 22.7724 19.1861 22.7217 19.1794 22.6696C19.1468 22.5295 19.1224 22.4948 19.0183 22.4042C19.0102 22.2881 19.0102 22.2881 19.0183 22.1881C18.9898 22.1881 18.9613 22.1881 18.932 22.1881C18.9177 22.0454 18.9035 21.9028 18.8888 21.7558C18.8603 21.7558 18.8318 21.7558 18.8024 21.7558C18.8024 21.713 18.8024 21.6702 18.8024 21.6261C18.7739 21.6261 18.7454 21.6261 18.7161 21.6261C18.5865 21.3451 18.5865 21.3451 18.5865 21.1505C18.558 21.1505 18.5295 21.1505 18.5002 21.1505C18.5002 21.1077 18.5002 21.0649 18.5002 21.0208C18.4717 21.0208 18.4432 21.0208 18.4138 21.0208C18.4138 20.9637 18.4138 20.9067 18.4138 20.8479C18.3853 20.8479 18.3568 20.8479 18.3274 20.8479C18.3061 20.7409 18.3061 20.7409 18.2843 20.6317C18.2558 20.6317 18.2273 20.6317 18.1979 20.6317C18.1979 20.6032 18.1979 20.5747 18.1979 20.5453C18.1694 20.5453 18.1409 20.5453 18.1115 20.5453C18.1115 20.5025 18.1115 20.4597 18.1115 20.4156C18.0831 20.4156 18.0546 20.4156 18.0252 20.4156C18.0109 20.3585 17.9967 20.3014 17.982 20.2426C17.9535 20.2426 17.925 20.2426 17.8957 20.2426C17.8957 20.1998 17.8957 20.157 17.8957 20.1129C17.8672 20.1129 17.8387 20.1129 17.8093 20.1129C17.8093 20.0844 17.8093 20.0559 17.8093 20.0265C17.7808 20.0265 17.7523 20.0265 17.7229 20.0265C17.7016 19.9195 17.7016 19.9195 17.6798 19.8103C17.6513 19.8103 17.6228 19.8103 17.5934 19.8103C17.5934 19.7818 17.5934 19.7532 17.5934 19.7238C17.5649 19.7238 17.5364 19.7238 17.507 19.7238C17.507 19.6953 17.507 19.6668 17.507 19.6374C17.4643 19.6231 17.4215 19.6088 17.3775 19.5942C17.3775 19.5656 17.3775 19.5371 17.3775 19.5077C17.349 19.5077 17.3205 19.5077 17.2911 19.5077C17.2911 19.4792 17.2911 19.4506 17.2911 19.4212C17.2626 19.4212 17.2342 19.4212 17.2048 19.4212C17.1346 19.3618 17.1346 19.3618 17.0753 19.2915C17.0753 19.263 17.0753 19.2345 17.0753 19.2051C17.0183 19.1908 16.9613 19.1765 16.9025 19.1618C16.8812 19.0762 16.8812 19.0762 16.8594 18.9889C16.8309 18.9889 16.8024 18.9889 16.773 18.9889C16.773 18.9604 16.773 18.9318 16.773 18.9024C16.7445 18.9024 16.716 18.9024 16.6866 18.9024C16.6866 18.8739 16.6866 18.8454 16.6866 18.816C16.6439 18.816 16.6011 18.816 16.5571 18.816C16.5571 18.7874 16.5571 18.7589 16.5571 18.7295C16.5001 18.7152 16.4431 18.701 16.3844 18.6863C16.3844 18.6577 16.3844 18.6292 16.3844 18.5998C16.3559 18.5998 16.3274 18.5998 16.298 18.5998C16.2838 18.5427 16.2695 18.4857 16.2548 18.4269C16.2264 18.4269 16.1979 18.4269 16.1685 18.4269C16.1685 18.3841 16.1685 18.3413 16.1685 18.2972C16.14 18.2972 16.1115 18.2972 16.0821 18.2972C16.0759 18.2517 16.0697 18.2062 16.0632 18.1594C16.0431 18.0021 16.0431 18.0021 16.0093 17.8811C15.9923 17.7521 16.0261 17.6777 16.0821 17.5622C16.1106 17.5622 16.1391 17.5622 16.1685 17.5622C16.1685 17.5337 16.1685 17.5052 16.1685 17.4758C16.197 17.4758 16.2255 17.4758 16.2548 17.4758C16.2691 17.4044 16.2833 17.3331 16.298 17.2596C16.3265 17.2596 16.355 17.2596 16.3844 17.2596C16.3844 17.2311 16.3844 17.2025 16.3844 17.1731C16.4414 17.1731 16.4984 17.1731 16.5571 17.1731C16.5714 17.1161 16.5856 17.059 16.6003 17.0002C16.6858 16.9788 16.6858 16.9788 16.773 16.957C16.773 16.9284 16.773 16.8999 16.773 16.8705C16.8015 16.8705 16.83 16.8705 16.8594 16.8705C16.8709 16.8429 16.8825 16.8152 16.8944 16.7868C16.9457 16.6976 16.9457 16.6976 17.0753 16.6544C17.0753 16.6258 17.0753 16.5973 17.0753 16.5679C17.1037 16.5679 17.1322 16.5679 17.1616 16.5679C17.183 16.5037 17.183 16.5037 17.2048 16.4382C17.2333 16.4382 17.2618 16.4382 17.2911 16.4382C17.2911 16.4097 17.2911 16.3811 17.2911 16.3517C17.3196 16.3517 17.3481 16.3517 17.3775 16.3517C17.3891 16.3259 17.4007 16.3 17.4126 16.2734C17.4638 16.1789 17.5112 16.1177 17.5934 16.0491C17.6219 16.0491 17.6504 16.0491 17.6798 16.0491C17.6931 16.0152 17.7065 15.9813 17.7202 15.9464C17.7661 15.8329 17.7661 15.8329 17.8093 15.7465C17.8378 15.7465 17.8663 15.7465 17.8957 15.7465C17.8957 15.7179 17.8957 15.6894 17.8957 15.66C17.9242 15.66 17.9527 15.66 17.982 15.66C17.9963 15.5887 18.0105 15.5173 18.0252 15.4439C18.0537 15.4439 18.0822 15.4439 18.1115 15.4439C18.1115 15.4153 18.1115 15.3868 18.1115 15.3574C18.14 15.3574 18.1685 15.3574 18.1979 15.3574C18.2033 15.3253 18.2086 15.2932 18.2141 15.2601C18.2391 15.1498 18.2729 15.0666 18.3274 14.9683C18.3559 14.9683 18.3844 14.9683 18.4138 14.9683C18.4138 14.9255 18.4138 14.8827 18.4138 14.8386C18.4423 14.8386 18.4708 14.8386 18.5002 14.8386C18.5055 14.8145 18.5108 14.7905 18.5164 14.7656C18.5459 14.6561 18.5861 14.5542 18.6297 14.4495C18.6582 14.4495 18.6867 14.4495 18.7161 14.4495C18.7205 14.4201 18.725 14.3907 18.7295 14.3603C18.7582 14.2377 18.8015 14.131 18.8528 14.0163C18.9178 13.8616 18.9673 13.7014 19.0183 13.5416C19.0468 13.5416 19.0753 13.5416 19.1047 13.5416C19.1047 13.4703 19.1047 13.399 19.1047 13.3255C19.1332 13.3255 19.1617 13.3255 19.191 13.3255C19.2053 13.1828 19.2195 13.0401 19.2342 12.8931C19.2627 12.8931 19.2912 12.8931 19.3206 12.8931C19.3241 12.8628 19.3277 12.8325 19.3314 12.8013C19.3721 12.6449 19.4348 12.5426 19.5365 12.4176C19.5935 12.4176 19.6505 12.4176 19.7092 12.4176C19.7092 12.3891 19.7092 12.3605 19.7092 12.3311C19.9246 12.2233 20.2445 12.27 20.4702 12.3284ZM20.0546 15.5735C20.0404 15.6449 20.0261 15.7162 20.0114 15.7897C19.9829 15.7897 19.9544 15.7897 19.9251 15.7897C19.9251 15.8468 19.9251 15.9038 19.9251 15.9626C19.8966 15.9626 19.8681 15.9626 19.8387 15.9626C19.8387 15.9912 19.8387 16.0197 19.8387 16.0491C19.8102 16.0491 19.7817 16.0491 19.7524 16.0491C19.7162 16.1192 19.6802 16.1895 19.6444 16.2599C19.6143 16.3185 19.6143 16.3185 19.5837 16.3784C19.5305 16.4756 19.5305 16.4756 19.5365 16.5679C19.508 16.5679 19.4795 16.5679 19.4501 16.5679C19.3501 16.7071 19.3501 16.7071 19.3206 16.8705C19.2818 16.8852 19.2818 16.8852 19.2423 16.9002C19.1234 16.9717 19.0856 17.0538 19.0183 17.1731C18.9756 17.1945 18.9756 17.1945 18.932 17.2164C18.932 17.2449 18.932 17.2734 18.932 17.3028C18.9035 17.3028 18.875 17.3028 18.8456 17.3028C18.8313 17.3599 18.8171 17.417 18.8024 17.4758C18.7766 17.4793 18.7508 17.4829 18.7242 17.4866C18.6025 17.5283 18.5659 17.5834 18.5002 17.6919C18.5002 17.7205 18.5002 17.749 18.5002 17.7784C18.4432 17.8069 18.3862 17.8355 18.3274 17.8649C18.3274 17.9077 18.3274 17.9505 18.3274 17.9946C18.3559 17.9946 18.3844 17.9946 18.4138 17.9946C18.4138 18.0231 18.4138 18.0516 18.4138 18.081C18.4423 18.081 18.4708 18.081 18.5002 18.081C18.5144 18.1238 18.5287 18.1666 18.5433 18.2107C18.5718 18.2107 18.6003 18.2107 18.6297 18.2107C18.6297 18.2393 18.6297 18.2678 18.6297 18.2972C18.6582 18.2972 18.6867 18.2972 18.7161 18.2972C18.7259 18.3284 18.7356 18.3596 18.7457 18.3918C18.8136 18.5374 18.9026 18.6193 19.0183 18.7295C19.0544 18.779 19.0544 18.779 19.0912 18.8295C19.1099 18.8536 19.1286 18.8776 19.1478 18.9024C19.1763 18.9024 19.2048 18.9024 19.2342 18.9024C19.2342 18.931 19.2342 18.9595 19.2342 18.9889C19.2627 18.9889 19.2912 18.9889 19.3206 18.9889C19.3206 19.0317 19.3206 19.0745 19.3206 19.1186C19.3491 19.1186 19.3776 19.1186 19.4069 19.1186C19.4212 19.1899 19.4354 19.2613 19.4501 19.3348C19.4786 19.3348 19.5071 19.3348 19.5365 19.3348C19.565 19.4204 19.5935 19.506 19.6228 19.5942C19.6513 19.5942 19.6798 19.5942 19.7092 19.5942C19.7234 19.6655 19.7377 19.7368 19.7524 19.8103C19.7809 19.8103 19.8094 19.8103 19.8387 19.8103C19.8387 19.8531 19.8387 19.8959 19.8387 19.94C19.8672 19.94 19.8957 19.94 19.9251 19.94C19.9393 19.9971 19.9536 20.0541 19.9682 20.1129C19.9967 20.1129 20.0252 20.1129 20.0546 20.1129C20.0689 20.17 20.0831 20.2271 20.0978 20.2859C20.1405 20.2716 20.1833 20.2573 20.2273 20.2426C20.2588 20.1717 20.2872 20.0994 20.3137 20.0265C20.3368 19.989 20.36 19.9516 20.3838 19.913C20.454 19.8114 20.454 19.8114 20.4432 19.6806C20.4717 19.6806 20.5002 19.6806 20.5296 19.6806C20.5296 19.6521 20.5296 19.6235 20.5296 19.5942C20.5581 19.5942 20.5866 19.5942 20.6159 19.5942C20.6355 19.5522 20.6551 19.5103 20.6753 19.4672C20.7455 19.3348 20.7455 19.3348 20.8318 19.2915C20.8318 19.2487 20.8318 19.2059 20.8318 19.1618C20.8603 19.1618 20.8888 19.1618 20.9182 19.1618C20.9396 19.0762 20.9396 19.0762 20.9614 18.9889C20.9899 18.9889 21.0184 18.9889 21.0477 18.9889C21.0477 18.9604 21.0477 18.9318 21.0477 18.9024C21.0762 18.9024 21.1047 18.9024 21.1341 18.9024C21.1341 18.8739 21.1341 18.8454 21.1341 18.816C21.1626 18.816 21.1911 18.816 21.2204 18.816C21.3204 18.6767 21.3204 18.6767 21.35 18.5133C21.3785 18.5133 21.407 18.5133 21.4363 18.5133C21.4363 18.4848 21.4363 18.4563 21.4363 18.4269C21.4648 18.4269 21.4933 18.4269 21.5227 18.4269C21.5227 18.3841 21.5227 18.3413 21.5227 18.2972C21.5654 18.2972 21.6082 18.2972 21.6522 18.2972C21.6522 18.2686 21.6522 18.2401 21.6522 18.2107C21.6807 18.2107 21.7092 18.2107 21.7386 18.2107C21.8106 18.1531 21.8106 18.1531 21.8681 18.081C21.8681 18.0525 21.8681 18.024 21.8681 17.9946C21.8966 17.9946 21.9251 17.9946 21.9545 17.9946C21.974 17.825 21.974 17.825 21.882 17.7431C21.835 17.7057 21.835 17.7057 21.7872 17.6676C21.6737 17.5762 21.6047 17.5125 21.5227 17.3893C21.4942 17.3893 21.4657 17.3893 21.4363 17.3893C21.4363 17.3608 21.4363 17.3322 21.4363 17.3028C21.3356 17.1876 21.3356 17.1876 21.2204 17.0867C21.1919 17.0867 21.1634 17.0867 21.1341 17.0867C21.1341 17.0581 21.1341 17.0296 21.1341 17.0002C21.1056 17.0002 21.0771 17.0002 21.0477 17.0002C21.0477 16.9574 21.0477 16.9146 21.0477 16.8705C21.0192 16.8705 20.9907 16.8705 20.9614 16.8705C20.9471 16.7992 20.9329 16.7279 20.9182 16.6544C20.8897 16.6544 20.8612 16.6544 20.8318 16.6544C20.8318 16.6258 20.8318 16.5973 20.8318 16.5679C20.8033 16.5679 20.7748 16.5679 20.7455 16.5679C20.7321 16.534 20.7188 16.5001 20.705 16.4652C20.6622 16.355 20.6622 16.355 20.6159 16.2653C20.5874 16.2653 20.5589 16.2653 20.5296 16.2653C20.5296 16.2082 20.5296 16.1511 20.5296 16.0923C20.5011 16.0923 20.4726 16.0923 20.4432 16.0923C20.4432 16.0495 20.4432 16.0067 20.4432 15.9626C20.4147 15.9626 20.3862 15.9626 20.3569 15.9626C20.3355 15.877 20.3355 15.877 20.3137 15.7897C20.2852 15.7897 20.2567 15.7897 20.2273 15.7897C20.2273 15.7184 20.2273 15.647 20.2273 15.5735C20.1703 15.5735 20.1133 15.5735 20.0546 15.5735Z" fill="#BFCBE3"/>
<path d="M26.8337 4.28992C26.8337 4.31845 26.8337 4.34699 26.8337 4.37638C26.9335 4.39065 27.0332 4.40492 27.136 4.41962C27.136 4.44815 27.136 4.47668 27.136 4.50608C27.1645 4.50608 27.193 4.50608 27.2224 4.50608C27.2224 4.53461 27.2224 4.56315 27.2224 4.59255C27.2509 4.59255 27.2794 4.59255 27.3087 4.59255C27.4825 4.94188 27.6541 5.31927 27.6541 5.71658C27.6826 5.71658 27.7111 5.71658 27.7405 5.71658C27.7405 5.78792 27.7405 5.85925 27.7405 5.93275C27.769 5.93275 27.7975 5.93275 27.8269 5.93275C27.9564 6.21376 27.9564 6.21376 27.9564 6.4083C27.9849 6.4083 28.0134 6.4083 28.0428 6.4083C28.0428 6.4511 28.0428 6.4939 28.0428 6.538C28.0713 6.538 28.0998 6.538 28.1291 6.538C28.1434 6.63786 28.1576 6.73773 28.1723 6.84062C28.2008 6.84062 28.2293 6.84062 28.2587 6.84062C28.2949 6.90354 28.3308 6.96662 28.3666 7.02976C28.3866 7.06487 28.4067 7.09998 28.4273 7.13616C28.4745 7.22971 28.4745 7.22971 28.4745 7.31618C28.5004 7.32599 28.5262 7.3358 28.5528 7.3459C28.6737 7.41851 28.7155 7.49304 28.7768 7.6188C28.7768 7.6616 28.7768 7.7044 28.7768 7.7485C28.8053 7.7485 28.8338 7.7485 28.8632 7.7485C28.8632 7.77703 28.8632 7.80557 28.8632 7.83497C28.8917 7.83497 28.9202 7.83497 28.9495 7.83497C28.9495 7.8635 28.9495 7.89203 28.9495 7.92143C28.978 7.92143 29.0065 7.92143 29.0359 7.92143C29.0501 7.99276 29.0644 8.0641 29.0791 8.13759C29.1076 8.13759 29.1361 8.13759 29.1654 8.13759C29.1654 8.16613 29.1654 8.19466 29.1654 8.22406C29.2224 8.23832 29.2794 8.25259 29.3381 8.26729C29.3408 8.29404 29.3435 8.32079 29.3462 8.34835C29.3733 8.45142 29.3733 8.45142 29.4866 8.48885C29.5231 8.50134 29.5596 8.51382 29.5972 8.52668C29.6836 8.61315 29.6836 8.61315 29.6836 8.74284C29.7406 8.75711 29.7976 8.77138 29.8563 8.78608C29.8563 8.81461 29.8563 8.84314 29.8563 8.87254C29.8848 8.87254 29.9133 8.87254 29.9426 8.87254C29.9426 8.90107 29.9426 8.92961 29.9426 8.959C29.9774 8.9706 30.0121 8.98219 30.0479 8.99413C30.0844 9.01107 30.1209 9.02801 30.1585 9.04547C30.1728 9.08827 30.187 9.13107 30.2017 9.17517C30.2302 9.17517 30.2587 9.17517 30.2881 9.17517C30.2881 9.2037 30.2881 9.23223 30.2881 9.26163C30.3166 9.26163 30.3451 9.26163 30.3744 9.26163C30.3744 9.29016 30.3744 9.3187 30.3744 9.3481C30.4172 9.36236 30.4599 9.37663 30.504 9.39133C30.504 9.44839 30.504 9.50546 30.504 9.56426C30.5325 9.56426 30.561 9.56426 30.5903 9.56426C30.6188 9.64986 30.6473 9.73546 30.6767 9.82365C30.6624 9.83792 30.6482 9.85218 30.6335 9.86688C30.6229 9.99819 30.6169 10.1294 30.6109 10.261C30.5903 10.3857 30.5903 10.3857 30.5293 10.4671C30.4608 10.5154 30.4608 10.5154 30.3744 10.5154C30.3744 10.5439 30.3744 10.5724 30.3744 10.6018C30.3317 10.6018 30.2889 10.6018 30.2449 10.6018C30.2449 10.6304 30.2449 10.6589 30.2449 10.6883C30.2164 10.6883 30.1879 10.6883 30.1585 10.6883C30.1585 10.7168 30.1585 10.7454 30.1585 10.7748C30.1015 10.789 30.0445 10.8033 29.9858 10.818C29.9858 10.8465 29.9858 10.8751 29.9858 10.9045C29.9573 10.9045 29.9288 10.9045 29.8995 10.9045C29.8852 10.9473 29.871 10.9901 29.8563 11.0342C29.7994 11.0644 29.7418 11.0933 29.6836 11.1206C29.6693 11.1492 29.6551 11.1777 29.6404 11.2071C29.6119 11.2071 29.5834 11.2071 29.554 11.2071C29.5398 11.2641 29.5255 11.3212 29.5108 11.38C29.4841 11.3827 29.4574 11.3854 29.4299 11.3881C29.3996 11.3997 29.3693 11.4113 29.3381 11.4232C29.3087 11.495 29.2799 11.5671 29.2518 11.6394C29.1946 11.6689 29.137 11.6978 29.0791 11.7259C29.0443 11.8145 29.0443 11.8145 29.0359 11.8988C29.0074 11.8988 28.9789 11.8988 28.9495 11.8988C28.9495 11.9273 28.9495 11.9559 28.9495 11.9853C28.921 11.9853 28.8925 11.9853 28.8632 11.9853C28.8632 12.0281 28.8632 12.0709 28.8632 12.115C28.8347 12.115 28.8062 12.115 28.7768 12.115C28.7247 12.2158 28.6833 12.3094 28.6473 12.4176C28.6188 12.4176 28.5903 12.4176 28.5609 12.4176C28.5609 12.4604 28.5609 12.5032 28.5609 12.5473C28.5324 12.5473 28.5039 12.5473 28.4745 12.5473C28.4603 12.6043 28.446 12.6614 28.4314 12.7202C28.4029 12.7202 28.3744 12.7202 28.345 12.7202C28.345 12.763 28.345 12.8058 28.345 12.8499C28.3165 12.8499 28.288 12.8499 28.2587 12.8499C28.2587 12.907 28.2587 12.964 28.2587 13.0228C28.2302 13.0228 28.2017 13.0228 28.1723 13.0228C28.158 13.0942 28.1438 13.1655 28.1291 13.239C28.1006 13.239 28.0721 13.239 28.0428 13.239C28.0428 13.2961 28.0428 13.3531 28.0428 13.4119C28.0143 13.4119 27.9858 13.4119 27.9564 13.4119C27.9519 13.4476 27.9475 13.4833 27.9429 13.52C27.9093 13.6913 27.8693 13.8637 27.7837 14.0172C27.7409 14.0314 27.6982 14.0457 27.6541 14.0604C27.6506 14.1121 27.647 14.1638 27.6434 14.2171C27.6125 14.5052 27.5226 14.7787 27.4383 15.0548C27.4098 15.0548 27.3813 15.0548 27.3519 15.0548C27.3483 15.094 27.3448 15.1332 27.3411 15.1736C27.3039 15.3349 27.2633 15.3851 27.136 15.4871C27.0195 15.5577 26.9727 15.5735 26.8337 15.5735C26.8337 15.6021 26.8337 15.6306 26.8337 15.66C26.5951 15.6684 26.4125 15.6491 26.1861 15.5735C26.1861 15.545 26.1861 15.5165 26.1861 15.4871C26.1006 15.4728 26.0151 15.4585 25.927 15.4438C25.9127 15.3868 25.8985 15.3297 25.8838 15.2709C25.8553 15.2709 25.8268 15.2709 25.7974 15.2709C25.7974 15.2281 25.7974 15.1853 25.7974 15.1412C25.7689 15.1412 25.7404 15.1412 25.7111 15.1412C25.7111 15.0556 25.7111 14.97 25.7111 14.8818C25.6826 14.8818 25.6541 14.8818 25.6247 14.8818C25.5747 14.7317 25.5786 14.6068 25.5815 14.4495C25.5531 14.4495 25.5246 14.4495 25.4952 14.4495C25.4952 14.3782 25.4952 14.3068 25.4952 14.2333C25.4667 14.2333 25.4382 14.2333 25.4088 14.2333C25.3661 14.0764 25.3233 13.9195 25.2793 13.7578C25.2508 13.7578 25.2223 13.7578 25.1929 13.7578C25.1567 13.6814 25.1207 13.6048 25.085 13.5281C25.065 13.4855 25.0449 13.4428 25.0243 13.3989C24.977 13.2822 24.977 13.2822 24.977 13.1525C24.9485 13.1525 24.92 13.1525 24.8907 13.1525C24.8907 13.0812 24.8907 13.0099 24.8907 12.9364C24.8622 12.9364 24.8337 12.9364 24.8043 12.9364C24.8043 12.8936 24.8043 12.8508 24.8043 12.8067C24.7758 12.8067 24.7473 12.8067 24.718 12.8067C24.6966 12.6997 24.6966 12.6997 24.6748 12.5905C24.6463 12.5905 24.6178 12.5905 24.5884 12.5905C24.5884 12.562 24.5884 12.5334 24.5884 12.5041C24.5599 12.5041 24.5314 12.5041 24.5021 12.5041C24.5021 12.447 24.5021 12.3899 24.5021 12.3311C24.4593 12.3169 24.4166 12.3026 24.3725 12.2879C24.3725 12.2594 24.3725 12.2308 24.3725 12.2014C24.344 12.2014 24.3155 12.2014 24.2862 12.2014C24.2862 12.1444 24.2862 12.0873 24.2862 12.0285C24.2523 12.0196 24.2185 12.0107 24.1836 12.0015C24.0703 11.942 24.0703 11.942 24.0136 11.8069C24.0038 11.7659 23.994 11.7249 23.9839 11.6826C23.9554 11.6826 23.9269 11.6826 23.8976 11.6826C23.768 11.533 23.768 11.533 23.768 11.4232C23.711 11.409 23.654 11.3947 23.5953 11.38C23.5739 11.2944 23.5739 11.2944 23.5521 11.2071C23.5236 11.2071 23.4951 11.2071 23.4658 11.2071C23.4658 11.1785 23.4658 11.15 23.4658 11.1206C23.4088 11.1064 23.3518 11.0921 23.2931 11.0774C23.2717 10.9918 23.2717 10.9918 23.2499 10.9045C23.1929 10.9045 23.1359 10.9045 23.0772 10.9045C23.0772 10.8759 23.0772 10.8474 23.0772 10.818C23.0344 10.8037 22.9917 10.7895 22.9476 10.7748C22.9476 10.7462 22.9476 10.7177 22.9476 10.6883C22.9191 10.6883 22.8906 10.6883 22.8613 10.6883C22.8613 10.6598 22.8613 10.6312 22.8613 10.6018C22.8328 10.6018 22.8043 10.6018 22.7749 10.6018C22.7749 10.5733 22.7749 10.5448 22.7749 10.5154C22.7322 10.5011 22.6894 10.4868 22.6454 10.4721C22.6454 10.4436 22.6454 10.4151 22.6454 10.3857C22.6169 10.3857 22.5884 10.3857 22.559 10.3857C22.559 10.3286 22.559 10.2715 22.559 10.2127C22.5305 10.2127 22.502 10.2127 22.4727 10.2127C22.4727 10.0273 22.4727 9.84181 22.4727 9.65072C22.5012 9.65072 22.5297 9.65072 22.559 9.65072C22.559 9.59365 22.559 9.53659 22.559 9.47779C22.5875 9.47779 22.616 9.47779 22.6454 9.47779C22.6596 9.40646 22.6739 9.33513 22.6886 9.26163C22.717 9.26163 22.7455 9.26163 22.7749 9.26163C22.7749 9.2331 22.7749 9.20456 22.7749 9.17517C22.8855 9.07588 22.9252 9.04547 23.0772 9.04547C23.0772 9.01694 23.0772 8.9884 23.0772 8.959C23.1057 8.959 23.1342 8.959 23.1635 8.959C23.1635 8.93047 23.1635 8.90194 23.1635 8.87254C23.192 8.87254 23.2205 8.87254 23.2499 8.87254C23.2713 8.80834 23.2713 8.80834 23.2931 8.74284C23.3216 8.74284 23.3501 8.74284 23.3794 8.74284C23.3794 8.71431 23.3794 8.68578 23.3794 8.65638C23.4079 8.65638 23.4364 8.65638 23.4658 8.65638C23.4658 8.62785 23.4658 8.59931 23.4658 8.56991C23.5251 8.49966 23.5251 8.49966 23.5953 8.44022C23.6238 8.44022 23.6523 8.44022 23.6817 8.44022C23.6817 8.41168 23.6817 8.38315 23.6817 8.35375C23.7102 8.35375 23.7387 8.35375 23.768 8.35375C23.768 8.32522 23.768 8.29669 23.768 8.26729C23.8245 8.20861 23.8824 8.15121 23.9407 8.09436C24.0857 7.9323 24.0857 7.9323 24.1998 7.7485C24.2283 7.7485 24.2568 7.7485 24.2862 7.7485C24.2862 7.71997 24.2862 7.69143 24.2862 7.66204C24.3147 7.66204 24.3432 7.66204 24.3725 7.66204C24.3859 7.62815 24.3993 7.59427 24.413 7.55936C24.4589 7.44588 24.4589 7.44588 24.5021 7.35941C24.5306 7.35941 24.5591 7.35941 24.5884 7.35941C24.5884 7.31661 24.5884 7.27381 24.5884 7.22971C24.6169 7.22971 24.6454 7.22971 24.6748 7.22971C24.6801 7.19761 24.6855 7.16551 24.691 7.13244C24.716 7.02214 24.7498 6.9389 24.8043 6.84062C24.8328 6.84062 24.8613 6.84062 24.8907 6.84062C24.8907 6.79782 24.8907 6.75502 24.8907 6.71093C24.9192 6.71093 24.9477 6.71093 24.977 6.71093C24.9851 6.66278 24.9851 6.66278 24.9932 6.61365C25.0183 6.50335 25.052 6.42011 25.1066 6.32184C25.1351 6.32184 25.1636 6.32184 25.1929 6.32184C25.1991 6.29709 25.2053 6.27235 25.2117 6.24686C25.2486 6.09892 25.2855 5.95098 25.3225 5.80305C25.351 5.80305 25.3795 5.80305 25.4088 5.80305C25.4413 5.64505 25.4693 5.4867 25.4952 5.32749C25.5237 5.32749 25.5522 5.32749 25.5815 5.32749C25.5847 5.28912 25.5847 5.28912 25.588 5.24998C25.6059 5.05984 25.6269 4.8965 25.7111 4.72224C25.7396 4.72224 25.7681 4.72224 25.7974 4.72224C25.7974 4.67944 25.7974 4.63664 25.7974 4.59255C25.8259 4.59255 25.8544 4.59255 25.8838 4.59255C25.8958 4.55376 25.8958 4.55376 25.9081 4.51419C26.1079 4.2098 26.5162 4.27701 26.8337 4.28992ZM26.4613 7.58638C26.3842 7.66866 26.3842 7.66866 26.402 7.83497C26.3165 7.87777 26.3165 7.87777 26.2292 7.92143C26.2292 7.99276 26.2292 8.0641 26.2292 8.13759C26.1865 8.15186 26.1437 8.16613 26.0997 8.18082C26.0997 8.20936 26.0997 8.23789 26.0997 8.26729C26.0712 8.26729 26.0427 8.26729 26.0133 8.26729C25.9677 8.33784 25.9251 8.4103 25.8838 8.48345C25.7914 8.62794 25.7021 8.75181 25.5815 8.87254C25.5664 8.90286 25.5513 8.93317 25.5357 8.96441C25.4952 9.04547 25.4952 9.04547 25.4088 9.0887C25.4088 9.11724 25.4088 9.14577 25.4088 9.17517C25.3803 9.17517 25.3518 9.17517 25.3225 9.17517C25.3109 9.20281 25.2993 9.23045 25.2874 9.25893C25.2361 9.3481 25.2361 9.3481 25.1066 9.39133C25.1066 9.41986 25.1066 9.44839 25.1066 9.47779C25.0781 9.47779 25.0496 9.47779 25.0202 9.47779C24.9202 9.61705 24.9202 9.61705 24.8907 9.78042C24.8337 9.80895 24.7767 9.83748 24.718 9.86688C24.718 9.89542 24.718 9.92395 24.718 9.95335C24.8036 10.0263 24.89 10.0983 24.977 10.1695C24.9913 10.198 25.0055 10.2266 25.0202 10.256C25.0487 10.256 25.0772 10.256 25.1066 10.256C25.1066 10.2845 25.1066 10.313 25.1066 10.3424C25.1351 10.3424 25.1636 10.3424 25.1929 10.3424C25.1929 10.3852 25.1929 10.428 25.1929 10.4721C25.2214 10.4721 25.2499 10.4721 25.2793 10.4721C25.2793 10.5007 25.2793 10.5292 25.2793 10.5586C25.322 10.5586 25.3648 10.5586 25.4088 10.5586C25.4204 10.5898 25.432 10.621 25.4439 10.6532C25.4951 10.7747 25.5502 10.8822 25.6247 10.9909C25.6532 10.9909 25.6817 10.9909 25.7111 10.9909C25.7111 11.0195 25.7111 11.048 25.7111 11.0774C25.7396 11.0774 25.7681 11.0774 25.7974 11.0774C25.8108 11.1113 25.8242 11.1452 25.8379 11.1801C25.8807 11.2902 25.8807 11.2902 25.927 11.38C25.9555 11.38 25.984 11.38 26.0133 11.38C26.0133 11.4228 26.0133 11.4656 26.0133 11.5097C26.0418 11.5097 26.0703 11.5097 26.0997 11.5097C26.1139 11.581 26.1282 11.6524 26.1429 11.7259C26.1999 11.7401 26.2569 11.7544 26.3156 11.7691C26.3209 11.7923 26.3263 11.8155 26.3318 11.8394C26.364 11.9621 26.4042 12.0813 26.4451 12.2014C26.4736 12.2014 26.5021 12.2014 26.5315 12.2014C26.5315 12.23 26.5315 12.2585 26.5315 12.2879C26.56 12.2879 26.5885 12.2879 26.6178 12.2879C26.6178 12.2308 26.6178 12.1738 26.6178 12.115C26.6463 12.115 26.6748 12.115 26.7042 12.115C26.7185 12.0436 26.7327 11.9723 26.7474 11.8988C26.7759 11.8988 26.8044 11.8988 26.8337 11.8988C26.8337 11.856 26.8337 11.8132 26.8337 11.7691C26.8622 11.7691 26.8907 11.7691 26.9201 11.7691C26.9201 11.7406 26.9201 11.712 26.9201 11.6826C26.9486 11.6826 26.9771 11.6826 27.0065 11.6826C27.06 11.5541 27.1058 11.4296 27.136 11.2935C27.1645 11.2935 27.193 11.2935 27.2224 11.2935C27.2224 11.2507 27.2224 11.2079 27.2224 11.1639C27.2651 11.1496 27.3078 11.1353 27.3519 11.1206C27.3653 11.0858 27.3786 11.0511 27.3924 11.0152C27.4482 10.8804 27.4849 10.8792 27.611 10.818C27.6559 10.747 27.6993 10.675 27.7405 10.6018C27.769 10.5876 27.7975 10.5733 27.8269 10.5586C27.8269 10.5301 27.8269 10.5015 27.8269 10.4721C27.8554 10.4721 27.8839 10.4721 27.9132 10.4721C27.9346 10.3865 27.9346 10.3865 27.9564 10.2992C28.0134 10.2849 28.0704 10.2707 28.1291 10.256C28.1291 10.1989 28.1291 10.1418 28.1291 10.083C28.1576 10.083 28.1861 10.083 28.2155 10.083C28.2155 10.0545 28.2155 10.026 28.2155 9.99658C28.2867 9.98231 28.358 9.96805 28.4314 9.95335C28.4038 9.91946 28.3762 9.88558 28.3477 9.85067C28.2587 9.73719 28.2587 9.73719 28.2155 9.65072C28.187 9.65072 28.1585 9.65072 28.1291 9.65072C28.1291 9.62219 28.1291 9.59365 28.1291 9.56426C28.1006 9.56426 28.0721 9.56426 28.0428 9.56426C28.0428 9.53572 28.0428 9.50719 28.0428 9.47779C28.0143 9.47779 27.9858 9.47779 27.9564 9.47779C27.9421 9.43499 27.9279 9.39219 27.9132 9.3481C27.8847 9.3481 27.8562 9.3481 27.8269 9.3481C27.8269 9.31956 27.8269 9.29103 27.8269 9.26163C27.7984 9.26163 27.7699 9.26163 27.7405 9.26163C27.7405 9.2331 27.7405 9.20456 27.7405 9.17517C27.712 9.17517 27.6835 9.17517 27.6541 9.17517C27.6399 9.10383 27.6256 9.0325 27.611 8.959C27.5825 8.959 27.554 8.959 27.5246 8.959C27.5246 8.93047 27.5246 8.90194 27.5246 8.87254C27.4961 8.87254 27.4676 8.87254 27.4383 8.87254C27.4383 8.84401 27.4383 8.81547 27.4383 8.78608C27.3968 8.74461 27.3968 8.74461 27.3546 8.70231C27.2655 8.61315 27.2655 8.61315 27.2224 8.48345C27.1939 8.48345 27.1654 8.48345 27.136 8.48345C27.136 8.44065 27.136 8.39785 27.136 8.35375C27.1075 8.35375 27.079 8.35375 27.0496 8.35375C27.0354 8.28242 27.0211 8.21109 27.0065 8.13759C26.978 8.13759 26.9495 8.13759 26.9201 8.13759C26.9201 8.10906 26.9201 8.08053 26.9201 8.05113C26.8916 8.05113 26.8631 8.05113 26.8337 8.05113C26.8284 8.02705 26.8231 8.00298 26.8176 7.97817C26.788 7.86864 26.7478 7.76669 26.7042 7.66204C26.6757 7.66204 26.6472 7.66204 26.6178 7.66204C26.6178 7.61924 26.6178 7.57644 26.6178 7.53234C26.5281 7.52355 26.5281 7.52355 26.4613 7.58638Z" fill="#BFCBE3"/>
</svg>
