<svg width="32" height="32" viewBox="0 0 32 32" fill="none" xmlns="http://www.w3.org/2000/svg">
<g clip-path="url(#clip0_5042_13113)">
<path d="M16.0002 6.66659C16.7122 6.66659 17.3815 6.38926 17.8855 5.88526C18.3895 5.38126 18.6668 4.71193 18.6668 3.99993C18.6668 2.45859 17.0828 0.631926 16.9402 0.474593C16.5028 -0.11874 15.4602 -0.0720736 15.0975 0.427926C14.9175 0.630593 13.3335 2.45726 13.3335 4.00393C13.3335 4.71326 13.6108 5.38126 14.1148 5.88526C14.6188 6.38926 15.2882 6.66659 16.0002 6.66659ZM16.0002 1.42259C16.5522 2.07593 17.3335 3.25993 17.3335 3.99993C17.3335 4.35593 17.1948 4.69059 16.9428 4.94259C16.4375 5.44526 15.5628 5.44526 15.0575 4.94259C14.8068 4.69059 14.6668 4.35726 14.6668 4.00393C14.6668 3.27593 15.4188 2.12126 16.0002 1.42259ZM8.00016 6.66659C8.71216 6.66659 9.3815 6.38926 9.8855 5.88526C10.3895 5.38126 10.6668 4.71193 10.6668 3.99993C10.6668 2.45859 9.08283 0.631926 8.94016 0.474593C8.50283 -0.11874 7.46016 -0.0720736 7.0975 0.427926C6.9175 0.630593 5.3335 2.45726 5.3335 4.00393C5.3335 4.71326 5.61083 5.38126 6.11483 5.88526C6.61883 6.38926 7.28816 6.66659 8.00016 6.66659ZM8.00016 1.42259C8.55216 2.07593 9.3335 3.25993 9.3335 3.99993C9.3335 4.35593 9.19483 4.69059 8.94283 4.94259C8.4375 5.44526 7.56283 5.44526 7.0575 4.94259C6.80683 4.69059 6.66683 4.35726 6.66683 4.00393C6.66683 3.27593 7.41883 2.12126 8.00016 1.42259ZM24.0002 6.66659C24.7122 6.66659 25.3815 6.38926 25.8855 5.88526C26.3895 5.38126 26.6668 4.71193 26.6668 3.99993C26.6668 2.45859 25.0828 0.631926 24.9402 0.474593C24.5028 -0.11874 23.4602 -0.0720736 23.0975 0.427926C22.9175 0.630593 21.3335 2.45726 21.3335 4.00393C21.3335 4.71326 21.6108 5.38126 22.1148 5.88526C22.6188 6.38926 23.2882 6.66659 24.0002 6.66659ZM24.0002 1.42259C24.5522 2.07593 25.3335 3.25993 25.3335 3.99993C25.3335 4.35593 25.1948 4.69059 24.9428 4.94259C24.4375 5.44526 23.5628 5.44526 23.0575 4.94259C22.8068 4.69059 22.6668 4.35726 22.6668 4.00393C22.6668 3.27593 23.4188 2.12126 24.0002 1.42259ZM29.5255 17.1573L26.7815 12.3559C25.7148 10.4919 23.7188 9.33193 21.5722 9.33193H10.4282C8.2815 9.33193 6.2855 10.4906 5.21883 12.3559L2.47483 17.1573C1.72683 18.4639 1.3335 19.9519 1.3335 21.4586V23.3333C1.3335 25.1906 2.4255 26.7986 4.00016 27.5493V28.6666C4.00016 30.5053 5.49483 31.9999 7.3335 31.9999C9.17216 31.9999 10.6668 30.5053 10.6668 28.6666V27.9999H21.3335V28.6666C21.3335 30.5053 22.8282 31.9999 24.6668 31.9999C26.5055 31.9999 28.0002 30.5053 28.0002 28.6666V27.5493C29.5748 26.7986 30.6668 25.1906 30.6668 23.3333V21.4586C30.6668 19.9519 30.2722 18.4653 29.5255 17.1573ZM6.3775 13.0186C7.2055 11.5679 8.7575 10.6666 10.4282 10.6666H21.5708C23.2415 10.6666 24.7935 11.5679 25.6215 13.0186L28.3655 17.8199C28.5215 18.0933 28.6602 18.3773 28.7802 18.6679H3.22016C3.34016 18.3773 3.4775 18.0946 3.63483 17.8199L6.3775 13.0186ZM9.3335 28.6666C9.3335 29.7693 8.43616 30.6666 7.3335 30.6666C6.23083 30.6666 5.3335 29.7693 5.3335 28.6666V27.9519C5.55083 27.9826 5.7735 27.9999 6.00016 27.9999H9.3335V28.6666ZM26.6668 28.6666C26.6668 29.7693 25.7695 30.6666 24.6668 30.6666C23.5642 30.6666 22.6668 29.7693 22.6668 28.6666V27.9999H26.0002C26.2268 27.9999 26.4495 27.9839 26.6668 27.9519V28.6666ZM29.3335 23.3333C29.3335 25.1719 27.8388 26.6666 26.0002 26.6666H6.00016C4.1615 26.6666 2.66683 25.1719 2.66683 23.3333V21.4586C2.66683 20.9679 2.7175 20.4786 2.81483 19.9999H6.66683V21.9999C6.66683 22.3679 6.9655 22.6666 7.3335 22.6666C7.7015 22.6666 8.00016 22.3679 8.00016 21.9999V19.9999H24.0002V21.9999C24.0002 22.3679 24.2988 22.6666 24.6668 22.6666C25.0348 22.6666 25.3335 22.3679 25.3335 21.9999V19.9999H29.1855C29.2828 20.4786 29.3335 20.9666 29.3335 21.4586V23.3333Z" fill="#BFCBE3"/>
</g>
<defs>
<clipPath id="clip0_5042_13113">
<rect width="32" height="32" fill="white"/>
</clipPath>
</defs>
</svg>
