<svg width="22" height="22" viewBox="0 0 22 22" fill="none" xmlns="http://www.w3.org/2000/svg">
<g clip-path="url(#clip0_4409_3407)">
<path d="M11 22C4.93442 22 0 17.0656 0 11C0 4.93442 4.93442 0 11 0C17.0656 0 22 4.93442 22 11C22 17.0656 17.0656 22 11 22ZM11 1.83333C5.9455 1.83333 1.83333 5.9455 1.83333 11C1.83333 16.0545 5.9455 20.1667 11 20.1667C16.0545 20.1667 20.1667 16.0545 20.1667 11C20.1667 5.9455 16.0545 1.83333 11 1.83333ZM13.5181 12.8068L12.5382 13.5868C10.6398 12.8617 9.23908 11.5188 8.41317 9.46183L9.19325 8.48192C9.60208 8.07308 9.60208 7.40942 9.19325 7.00058L8.27658 5.80708C7.86775 5.39825 7.20408 5.39825 6.79525 5.80708L6.24525 6.28558C5.73925 6.79067 5.5 7.45617 5.5 8.11892C5.5 11.7856 10.4766 16.5 13.8811 16.5C14.5438 16.5 15.2093 16.2607 15.7144 15.7548L16.1929 15.2048C16.6018 14.7959 16.6018 14.1322 16.1929 13.7234L14.9994 12.8068C14.5906 12.3979 13.9269 12.3979 13.5181 12.8068Z" fill="#7E8872"/>
</g>
<defs>
<clipPath id="clip0_4409_3407">
<rect width="22" height="22" fill="white"/>
</clipPath>
</defs>
</svg>
