<svg width="22" height="22" viewBox="0 0 22 22" fill="none" xmlns="http://www.w3.org/2000/svg">
<g clip-path="url(#clip0_1_6372)">
<path d="M12.375 5.95834C12.375 6.23029 12.2944 6.49613 12.1433 6.72225C11.9922 6.94837 11.7774 7.1246 11.5262 7.22867C11.2749 7.33274 10.9985 7.35997 10.7318 7.30692C10.465 7.25386 10.22 7.12291 10.0277 6.93061C9.83544 6.73831 9.70448 6.49331 9.65143 6.22659C9.59837 5.95986 9.6256 5.6834 9.72967 5.43215C9.83374 5.1809 10.01 4.96615 10.2361 4.81507C10.4622 4.66398 10.7281 4.58334 11 4.58334C11.3647 4.58334 11.7144 4.7282 11.9723 4.98607C12.2301 5.24393 12.375 5.59367 12.375 5.95834ZM22 11C22 8.82441 21.3549 6.69767 20.1462 4.88873C18.9375 3.07979 17.2195 1.66989 15.2095 0.83733C13.1995 0.00476615 10.9878 -0.213071 8.85401 0.211367C6.72022 0.635804 4.76021 1.68345 3.22183 3.22183C1.68345 4.76021 0.635804 6.72022 0.211367 8.85401C-0.213071 10.9878 0.00476615 13.1995 0.83733 15.2095C1.66989 17.2195 3.07979 18.9375 4.88873 20.1462C6.69767 21.3549 8.82441 22 11 22H22V11ZM20.1667 11V20.1667H11C9.18701 20.1667 7.41473 19.6291 5.90728 18.6218C4.39983 17.6146 3.22491 16.1829 2.53111 14.5079C1.83731 12.8329 1.65578 10.9898 2.00947 9.21168C2.36317 7.43352 3.23621 5.80017 4.51819 4.51819C5.80017 3.23621 7.43352 2.36317 9.21168 2.00947C10.9898 1.65578 12.8329 1.83731 14.5079 2.53111C16.1829 3.22491 17.6146 4.39983 18.6218 5.90728C19.6291 7.41473 20.1667 9.18701 20.1667 11ZM12.8333 11C12.8333 10.5138 12.6402 10.0475 12.2964 9.70364C11.9526 9.35983 11.4862 9.16667 11 9.16667H9.16667V11H11V17.4167H12.8333V11Z" fill="#FF8C33"/>
</g>
<defs>
<clipPath id="clip0_1_6372">
<rect width="22" height="22" fill="white"/>
</clipPath>
</defs>
</svg>
