<svg width="24" height="24" viewBox="0 0 24 24" fill="none" xmlns="http://www.w3.org/2000/svg">
<path d="M22.994 11.954C23 10.748 22.542 9.292 20.423 8.904C20.313 8.694 20.192 8.483 20.059 8.271C21.127 6.792 21.045 5.42 19.811 4.186C18.576 2.95 17.204 2.869 15.724 3.941C15.515 3.809 15.306 3.689 15.097 3.581C14.715 1.469 13.273 1.001 12.07 1.001C10.383 1.001 9.29904 1.892 8.98404 3.625C8.77604 3.734 8.56604 3.855 8.35504 3.987C6.88204 2.923 5.50904 3.014 4.26204 4.259C3.01904 5.503 2.92904 6.877 3.99004 8.35C3.85704 8.562 3.73504 8.773 3.62404 8.983C1.89504 9.299 1.01504 10.328 1.00604 12.046C1.00004 13.252 1.45804 14.708 3.57704 15.096C3.68704 15.306 3.80804 15.517 3.94204 15.729C2.87304 17.208 2.95504 18.58 4.18904 19.814C5.42404 21.05 6.79704 21.131 8.27604 20.059C8.48504 20.191 8.69404 20.311 8.90304 20.419C9.28504 22.531 10.727 22.999 11.93 22.999C13.715 22.999 14.701 22.108 15.016 20.375C15.224 20.266 15.434 20.145 15.645 20.013C17.996 21.782 19.737 19.741 19.738 19.741C20.952 18.592 21.072 17.123 20.01 15.649C20.143 15.437 20.265 15.226 20.376 15.017C22.105 14.701 22.985 13.672 22.994 11.954ZM14.462 14.462C13.645 15.28 12.869 15.736 11.792 15.672C10.776 15.611 10.019 14.944 9.53804 14.462C7.90404 12.829 7.90404 11.171 9.53804 9.537C10.42 8.653 11.292 8.251 12.208 8.328C13.223 8.406 13.981 9.056 14.462 9.538C16.095 11.171 16.096 12.829 14.462 14.463V14.462Z" fill="#FAF1FD"/>
</svg>
