<svg width="24" height="24" viewBox="0 0 24 24" fill="none" xmlns="http://www.w3.org/2000/svg">
<g clip-path="url(#clip0_3819_2853)">
<path d="M10.984 8.296C11.073 8.656 10.772 9 10.393 9H5.607C5.228 9 4.927 8.656 5.016 8.296C5.34 6.979 6.553 6 8 6C9.447 6 10.66 6.979 10.984 8.296ZM0.0149973 7.296C-0.0720027 7.656 0.222997 8 0.592997 8H3V7.5C3 6.52 3.407 5.636 4.058 5H2.932C1.518 5 0.331997 5.979 0.0149973 7.296ZM15.407 8C15.777 8 16.072 7.656 15.985 7.296C15.668 5.979 14.482 5 13.068 5H11.942C12.593 5.636 13 6.52 13 7.5V8H15.407ZM3 4C4.105 4 5 3.105 5 2C5 0.895 4.105 0 3 0C1.895 0 0.999997 0.895 0.999997 2C0.999997 3.105 1.895 4 3 4ZM8 5C9.105 5 10 4.105 10 3C10 1.895 9.105 1 8 1C6.895 1 6 1.895 6 3C6 4.105 6.895 5 8 5ZM13 4C14.105 4 15 3.105 15 2C15 0.895 14.105 0 13 0C11.895 0 11 0.895 11 2C11 3.105 11.895 4 13 4ZM23.341 12.345L15.639 20.754C13.745 22.822 11.069 24 8.265 24H4.003C1.794 24 0.00299729 22.209 0.00299729 20V15C0.00299729 12.791 1.794 11 4.003 11H11.79C13.164 11 14.25 12.26 13.954 13.685C13.761 14.611 12.95 15.283 12.014 15.417L7.852 16C7.305 16.078 6.925 16.585 7.004 17.131C7.082 17.678 7.589 18.057 8.135 17.979L12.387 17.383C14.449 17.089 16.004 15.296 16.004 13.213C16.004 12.994 15.972 12.784 15.939 12.575L19.48 8.838C19.935 8.338 20.577 8.035 21.274 8.003C21.966 7.969 22.637 8.212 23.152 8.681C24.204 9.639 24.29 11.282 23.341 12.345Z" fill="#FAF1FD"/>
</g>
<defs>
<clipPath id="clip0_3819_2853">
<rect width="24" height="24" fill="white"/>
</clipPath>
</defs>
</svg>
