<svg width="22" height="22" viewBox="0 0 22 22" fill="none" xmlns="http://www.w3.org/2000/svg">
<path d="M18.6999 17.875L4.94995 4.125M9.34995 9.57144C9.00765 9.94882 8.79995 10.4445 8.79995 10.9874C8.79995 12.1697 9.78492 13.1282 11 13.1282C11.5602 13.1282 12.0715 12.9244 12.4599 12.5889M18.7355 13.1282C19.4929 11.9944 19.7999 11.0698 19.7999 11.0698C19.7999 11.0698 17.7974 4.675 11 4.675C10.6183 4.675 10.2518 4.69516 9.89995 4.7332M15.9499 15.9037C14.6873 16.7091 13.0618 17.2787 11 17.245C4.28713 17.1352 2.19995 11.0698 2.19995 11.0698C2.19995 11.0698 3.16965 7.97324 6.04995 6.08971" stroke="#B5B5B5" stroke-width="1.5" stroke-linecap="round"/>
</svg>
