<svg width="22" height="22" viewBox="0 0 22 22" fill="none" xmlns="http://www.w3.org/2000/svg">
<path d="M11 14.6655C13.0243 14.6655 14.6653 13.0245 14.6653 11.0003C14.6653 8.97597 13.0243 7.33496 11 7.33496C8.97572 7.33496 7.33472 8.97597 7.33472 11.0003C7.33472 13.0245 8.97572 14.6655 11 14.6655Z" fill="#FF6F00"/>
<path d="M21.3279 8.63506C19.9067 6.32042 16.6739 2.43701 11 2.43701C5.32608 2.43701 2.09328 6.32042 0.672061 8.63506C-0.22402 10.0844 -0.22402 11.9158 0.672061 13.3652C2.09328 15.6798 5.32608 19.5632 11 19.5632C16.6739 19.5632 19.9067 15.6798 21.3279 13.3652C22.224 11.9158 22.224 10.0844 21.3279 8.63506ZM11 16.498C7.96356 16.498 5.50202 14.0365 5.50202 11.0001C5.50202 7.96366 7.96356 5.50212 11 5.50212C14.0364 5.50212 16.4979 7.96366 16.4979 11.0001C16.4949 14.0353 14.0352 16.495 11 16.498Z" fill="#FF6F00"/>
</svg>
