<svg width="22" height="22" viewBox="0 0 22 22" fill="none" xmlns="http://www.w3.org/2000/svg">
<g clip-path="url(#clip0_1_6359)">
<path d="M10.0833 1.83333C10.0833 0.820417 10.9037 0 11.9166 0C12.9295 0 13.7499 0.820417 13.7499 1.83333C13.7499 2.84625 12.9295 3.66667 11.9166 3.66667C10.9037 3.66667 10.0833 2.84625 10.0833 1.83333ZM10.9468 4.58333C11.5435 5.16633 11.9166 5.97667 11.9166 6.875V7.33333H14.123C14.4622 7.33333 14.7326 7.018 14.6529 6.688C14.3623 5.48075 13.2751 4.58333 11.9789 4.58333H10.9468ZM7.33327 4.58333C8.34619 4.58333 9.16661 3.76292 9.16661 2.75C9.16661 1.73708 8.34619 0.916667 7.33327 0.916667C6.32036 0.916667 5.49994 1.73708 5.49994 2.75C5.49994 3.76292 6.32036 4.58333 7.33327 4.58333ZM0.543523 7.33333H2.74994V6.875C2.74994 5.97667 3.12302 5.16633 3.71977 4.58333H2.68761C1.39144 4.58333 0.304273 5.48075 0.0136901 6.688C-0.0660599 7.018 0.204357 7.33333 0.543523 7.33333ZM21.2987 11.9304L15.0617 18.931C13.3237 20.8817 10.8294 22 8.21694 22H3.66569C1.64352 22 -0.000976562 20.3555 -0.000976562 18.3333V13.75C-0.000976562 11.7278 1.64352 10.0833 3.66569 10.0833H11.7846C12.8287 10.0833 13.7454 10.6416 14.2495 11.4757L17.1984 8.23625C17.6934 7.69083 18.3727 7.37092 19.1097 7.337C19.854 7.30125 20.5525 7.557 21.0979 8.05383C22.2108 9.06858 22.3006 10.8084 21.2978 11.9313L21.2987 11.9304ZM19.8641 9.40775C19.6817 9.24183 19.4461 9.16117 19.1968 9.16758C18.9493 9.1795 18.721 9.28583 18.556 9.46917L14.4979 13.9288C14.1441 14.9096 13.2705 15.6613 12.1934 15.8153L7.46252 16.4908C6.96019 16.5587 6.49636 16.214 6.42486 15.7135C6.35336 15.2121 6.70169 14.7483 7.20311 14.6768L11.934 14.0012C12.4464 13.9278 12.8324 13.4823 12.8324 12.9644C12.8324 12.3869 12.3621 11.9176 11.7846 11.9176H3.66661C2.65552 11.9176 1.83327 12.7398 1.83327 13.7509V18.3342C1.83327 19.3453 2.65552 20.1676 3.66661 20.1676H8.21786C10.3069 20.1676 12.3025 19.2729 13.6931 17.7127L19.931 10.7113C20.2684 10.3336 20.2381 9.74967 19.865 9.40867L19.8641 9.40775ZM5.13969 8.25H9.52686C9.87427 8.25 10.1502 7.93467 10.0686 7.60467C9.77161 6.39742 8.65969 5.5 7.33327 5.5C6.00686 5.5 4.89494 6.39742 4.59794 7.60467C4.51636 7.93467 4.79319 8.25 5.13969 8.25ZM2.74994 3.66667C3.76286 3.66667 4.58327 2.84625 4.58327 1.83333C4.58327 0.820417 3.76286 0 2.74994 0C1.73702 0 0.916607 0.820417 0.916607 1.83333C0.916607 2.84625 1.73702 3.66667 2.74994 3.66667Z" fill="#FF6F00"/>
</g>
<defs>
<clipPath id="clip0_1_6359">
<rect width="22" height="22" fill="white"/>
</clipPath>
</defs>
</svg>
