<svg width="32" height="32" viewBox="0 0 32 32" fill="none" xmlns="http://www.w3.org/2000/svg">
<path fill-rule="evenodd" clip-rule="evenodd" d="M21.8623 18.3751C21.7998 18.3751 21.7373 18.3751 21.6748 18.3126C21.4248 18.1876 21.3623 17.9376 21.4873 17.6876L22.1748 16.4376C22.2998 16.2501 22.5498 16.1876 22.7373 16.3126C22.9873 16.4376 23.0498 16.6876 22.9248 16.8751L22.2373 18.1251C22.1748 18.3126 22.0498 18.3751 21.8623 18.3751Z" fill="#BFCBE3"/>
<path fill-rule="evenodd" clip-rule="evenodd" d="M23.2373 18.375C23.1123 18.375 22.9248 18.3125 22.8623 18.125L22.1748 16.875C22.0498 16.6875 22.1123 16.4375 22.3623 16.3125C22.5498 16.1875 22.7998 16.25 22.9248 16.5L23.6123 17.75C23.7373 17.9375 23.6748 18.1875 23.4873 18.3125C23.3623 18.375 23.2998 18.375 23.2373 18.375Z" fill="#BFCBE3"/>
<path fill-rule="evenodd" clip-rule="evenodd" d="M22.5498 20.9376C22.4248 20.9376 22.2373 20.8751 22.1748 20.6876L21.4873 19.5001C21.3623 19.3126 21.4248 19.0626 21.6748 18.9376C21.8623 18.8126 22.1123 18.8751 22.2373 19.0626L22.9248 20.2501C23.0498 20.5001 22.9873 20.7501 22.7998 20.8751C22.7373 20.9376 22.6123 20.9376 22.5498 20.9376Z" fill="#BFCBE3"/>
<path fill-rule="evenodd" clip-rule="evenodd" d="M22.5498 20.9376C22.4873 20.9376 22.4248 20.9376 22.3623 20.8751C22.1123 20.7501 22.0498 20.5001 22.1748 20.2501L22.8623 19.0626C22.9873 18.8751 23.2373 18.8126 23.4873 18.9376C23.6748 19.0626 23.7373 19.3126 23.6123 19.5001L22.9248 20.6876C22.8623 20.8751 22.7373 20.9376 22.5498 20.9376Z" fill="#BFCBE3"/>
<path fill-rule="evenodd" clip-rule="evenodd" d="M24.4873 19.0626C24.4248 19.0626 24.3623 19.0626 24.2998 19.0001L23.0498 18.3126C22.7998 18.1876 22.7373 17.9376 22.8623 17.6876C22.9873 17.5001 23.2373 17.4376 23.4248 17.5626L24.6748 18.2501C24.9248 18.3751 24.9873 18.6251 24.8623 18.8126C24.7998 19.0001 24.6748 19.0626 24.4873 19.0626Z" fill="#BFCBE3"/>
<path fill-rule="evenodd" clip-rule="evenodd" d="M23.2373 19.75C23.1123 19.75 22.9248 19.6875 22.8623 19.5C22.7373 19.3125 22.7998 19.0625 23.0498 18.9375L24.2998 18.25C24.4873 18.125 24.7373 18.1875 24.8623 18.4375C24.9873 18.625 24.9248 18.875 24.7373 19L23.4873 19.6875C23.3623 19.75 23.2998 19.75 23.2373 19.75Z" fill="#BFCBE3"/>
<path fill-rule="evenodd" clip-rule="evenodd" d="M20.6748 19.0626C20.5498 19.0626 20.3623 19.0001 20.2998 18.8126C20.1748 18.6251 20.2373 18.3751 20.4873 18.2501L21.6748 17.5626C21.8623 17.4376 22.1123 17.5001 22.2373 17.6876C22.3623 17.9376 22.2998 18.1876 22.1123 18.3126L20.9248 19.0001C20.8623 19.0626 20.7373 19.0626 20.6748 19.0626Z" fill="#BFCBE3"/>
<path fill-rule="evenodd" clip-rule="evenodd" d="M21.8623 19.7501C21.7998 19.7501 21.7373 19.7501 21.6748 19.6876L20.4873 19.0001C20.2373 18.8751 20.1748 18.6251 20.2998 18.3751C20.4248 18.1876 20.6748 18.1251 20.9248 18.2501L22.1123 18.9376C22.2998 19.0626 22.3623 19.3126 22.2373 19.5001C22.1748 19.6876 22.0498 19.7501 21.8623 19.7501Z" fill="#BFCBE3"/>
<path fill-rule="evenodd" clip-rule="evenodd" d="M22.9873 30.8125H22.9248C21.7998 30.75 20.8623 28.75 20.7998 28.5625C19.4248 25.9375 19.6748 24 19.7998 22.75C19.8623 22.0625 19.9248 21.5625 19.7373 21.1875C19.6123 21 19.5498 20.8125 19.4248 20.625C18.9248 19.75 18.5498 19.125 18.5498 17.5625C18.5498 16 19.1748 14.9375 20.5498 14.3125C21.6123 13.75 22.6123 14.125 23.4873 14.5C23.8623 14.625 24.1748 14.75 24.5498 14.8125C25.4873 15.0625 26.1123 14.8125 26.7998 14.5625C27.1748 14.4375 27.5498 14.25 28.0498 14.1875C29.2998 13.9375 30.3623 14.25 31.1123 15.125C32.0498 16.25 32.2373 18.25 31.5498 19.9375C31.2373 20.625 30.9873 20.9375 30.7998 21.1875C30.6123 21.4375 30.6123 21.4375 30.7998 23.0625C31.1123 25.5 30.0498 29.0625 28.6123 30.3125C27.9873 30.875 27.5498 30.875 27.2373 30.75C27.0498 30.6875 26.6123 30.4375 26.4248 29.6875C26.3623 29.3125 26.4248 28.8125 26.4873 28.375C26.4873 28.0625 26.4873 27.8125 26.4873 27.625C26.5498 25.3125 25.9248 24.1875 25.3623 24.125C24.8623 24.125 24.2998 24.75 24.1123 25.9375C24.0498 26.25 24.0498 27.0625 24.0498 27.8125C24.1123 29.25 24.1123 29.875 23.9873 30.1875C23.9248 30.1875 23.9248 30.1875 23.9248 30.1875C23.6123 30.75 23.2373 30.8125 22.9873 30.8125ZM20.4873 20.8125C20.7998 21.375 20.7373 22.0625 20.6748 22.8125C20.4873 24.0625 20.2998 25.75 21.5498 28.1875C21.5498 28.1875 21.5498 28.1875 21.6123 28.1875C21.9248 29 22.6123 29.9375 22.9873 29.9375C23.0498 30 23.1123 29.875 23.1748 29.8125C23.2373 29.5625 23.2373 28.5 23.1748 27.8125C23.1748 27 23.1748 26.1875 23.2373 25.8125C23.4248 24.25 24.4248 23.1875 25.4248 23.25C25.9248 23.3125 27.4873 23.75 27.3623 27.625C27.3623 27.875 27.3623 28.125 27.2998 28.4375C27.2998 28.8125 27.2998 29.25 27.2998 29.5625C27.3623 29.8125 27.4248 29.875 27.4873 29.9375C27.5498 29.9375 27.7373 29.875 27.9873 29.6875V29.625C29.2373 28.625 30.2373 25.25 29.9248 23.1875C29.7373 21.375 29.6748 21.1875 30.1123 20.625C30.2373 20.4375 30.4248 20.1875 30.7373 19.5625C31.2998 18.1875 31.1748 16.5625 30.4248 15.625C29.9248 15.0625 29.1748 14.8125 28.1748 15.0625C27.7998 15.125 27.4873 15.25 27.1123 15.375C26.3623 15.625 25.5498 15.9375 24.2998 15.6875C23.9248 15.5625 23.5498 15.4375 23.1748 15.3125C22.3623 15 21.6123 14.6875 20.9248 15.0625C19.8623 15.5625 19.4248 16.375 19.4248 17.5625C19.4248 18.875 19.7373 19.375 20.1748 20.1875C20.2998 20.375 20.3623 20.5625 20.4873 20.8125Z" fill="#BFCBE3"/>
<path fill-rule="evenodd" clip-rule="evenodd" d="M28.9248 20.9375C28.8623 20.9375 28.7998 20.9375 28.7373 20.875C28.4873 20.75 28.4248 20.5 28.5498 20.25C28.6748 20.125 28.7373 20 28.8623 19.8125C28.9873 19.5625 29.1748 19.375 29.2373 19.0625C29.2998 19.0625 29.2998 19 29.2998 19C29.6123 18.3125 29.7373 17 29.2373 16.5625C29.1748 16.5625 29.1748 16.5625 29.1748 16.5625C29.1123 16.5 28.9248 16.4375 28.5498 16.5C28.0498 16.625 27.6748 16.75 27.2373 16.9375C26.9873 17.0625 26.7373 16.9375 26.6748 16.75C26.5498 16.5 26.6748 16.25 26.8623 16.1875C27.2998 15.9375 27.7998 15.75 28.2998 15.625C28.3623 15.625 28.3623 15.625 28.3623 15.625C28.9873 15.5 29.4873 15.625 29.7998 15.9375C30.7373 16.6875 30.5498 18.375 30.1123 19.375C29.9248 19.75 29.7373 20.0625 29.5498 20.3125C29.4873 20.4375 29.3623 20.5625 29.2998 20.6875C29.2373 20.875 29.1123 20.9375 28.9248 20.9375Z" fill="#BFCBE3"/>
<path fill-rule="evenodd" clip-rule="evenodd" d="M23.5498 32C23.4248 32 23.3623 32 23.2998 32C23.1748 32 23.1123 32 22.9873 32C16.2373 31.9375 9.42484 31.9375 2.67484 32C2.61234 32 2.48734 32 2.42484 32C1.17484 32 0.11234 32 0.0498397 30.0625C-0.0751603 26.4375 -0.0126603 24.5625 0.79984 23.25C1.61234 21.8125 3.23734 21.1875 5.86234 20.25C6.54984 20 7.11234 19.875 7.48734 19.75C8.67484 19.375 8.79984 19.375 9.04984 18.4375L9.42484 16.875L10.2998 17.125L9.92484 18.6875C9.54984 20.0625 8.98734 20.25 7.73734 20.5625C7.36234 20.6875 6.79984 20.875 6.17484 21.125C1.17484 22.875 0.67484 23.25 0.92484 30.0625C0.98734 30.75 1.11234 30.9375 1.23734 31C1.42484 31.125 1.86234 31.125 2.42484 31.125C2.48734 31.125 2.61234 31.125 2.67484 31.125C9.42484 31.0625 16.2373 31.0625 22.9873 31.125C23.1123 31.125 23.1748 31.125 23.2998 31.125C23.9248 31.125 24.3623 31.125 24.5498 30.9375C24.6748 30.8125 24.7373 30.5 24.7373 30.0625C24.8623 26.8125 24.8623 25.1875 24.3623 24.0625L25.1748 23.6875C25.7998 25.0625 25.7373 27.125 25.6123 30.0625C25.6123 30.8125 25.4873 31.25 25.1748 31.5625C24.7998 31.9375 24.2373 32 23.5498 32ZM19.8623 21.1875C19.7998 21.1875 19.7373 21.125 19.6748 21.125H19.6123L19.5498 21.0625C18.8623 20.875 18.3623 20.6875 17.9873 20.5625C16.7373 20.25 16.2373 20.0625 15.7998 18.6875L15.4248 17.25L16.2998 17L16.6748 18.4375C16.9248 19.375 17.0498 19.375 18.2373 19.75C18.6123 19.875 19.1123 20 19.7998 20.25C19.9873 20.25 20.1123 20.375 20.2373 20.4375L19.8623 21.1875Z" fill="#BFCBE3"/>
<path fill-rule="evenodd" clip-rule="evenodd" d="M5.98741 10.25C5.79991 10.25 5.61241 10.125 5.61241 9.93751C4.98741 8.25001 5.11241 6.43751 5.79991 4.81251C6.4874 3.37501 7.6124 2.06251 9.1124 1.18751C10.6124 0.312512 12.3624 -0.124988 13.9874 1.19638e-05C15.8624 0.187512 17.5499 1.00001 18.8624 2.43751C20.5499 4.18751 20.5499 6.87501 20.3624 9.43751C20.3624 9.68751 20.1749 9.87501 19.9249 9.87501C19.6749 9.87501 19.4874 9.62501 19.4874 9.37501C19.6749 6.43751 19.5499 4.43751 18.2374 3.06251C15.4249 0.0625119 11.7999 0.625012 9.5499 1.93751C7.17491 3.37501 5.29991 6.31251 6.42491 9.68751C6.48741 9.87501 6.3624 10.125 6.11241 10.25C6.11241 10.25 6.04991 10.25 5.98741 10.25Z" fill="#BFCBE3"/>
<path fill-rule="evenodd" clip-rule="evenodd" d="M12.9873 18.1875C10.9873 18.1875 9.1123 17.375 7.6748 16C6.2998 14.5625 5.4873 12.6875 5.4873 10.6875C5.4873 10.5625 5.4873 10.375 5.5498 10.25C5.5498 10.125 5.5498 9.9375 5.5498 9.8125C5.5498 9.5625 5.7373 9.375 5.9248 9.375C6.1123 9.3125 6.3623 9.4375 6.4248 9.6875L8.7998 7.5625C9.8623 6.5625 11.2373 6.3125 12.7373 6.0625C13.5498 5.875 14.4248 5.75 15.2373 5.4375C16.2373 5.125 17.1748 5.3125 17.9873 6C18.6748 6.625 19.1748 7.5 19.6748 8.25C19.9248 8.5625 20.1123 8.875 20.2998 9.1875C20.3623 9.25 20.3623 9.3125 20.3623 9.375V9.5C20.4248 9.875 20.4873 10.25 20.4873 10.6875C20.4873 12.6875 19.7373 14.5625 18.2998 16C16.8623 17.375 14.9873 18.1875 12.9873 18.1875ZM6.3623 10.875C6.4873 14.4375 9.4248 17.3125 12.9873 17.3125C16.6748 17.3125 19.6123 14.3125 19.6123 10.6875C19.6123 10.3125 19.5498 10 19.5498 9.625H19.4873C19.2998 9.3125 19.1123 9 18.9248 8.6875C17.8623 6.9375 16.9873 5.75 15.4873 6.25C14.6123 6.5625 13.7373 6.75 12.8623 6.875C11.4873 7.125 10.2373 7.375 9.3623 8.1875L6.5498 10.75C6.4873 10.8125 6.4248 10.8125 6.3623 10.875Z" fill="#BFCBE3"/>
<path fill-rule="evenodd" clip-rule="evenodd" d="M12.8625 24.0625C12.7375 24.0625 12.6125 24 12.55 23.9375L8.79998 19.75C8.61248 19.5625 8.67498 19.25 8.79998 19.125C8.98748 18.9375 9.29998 18.9375 9.42498 19.125L12.8625 22.9375L16.2375 19.125C16.3625 18.9375 16.675 18.9375 16.8625 19.125C17.05 19.25 17.05 19.5625 16.8625 19.6875L13.175 23.875C13.1125 24 12.9875 24.0625 12.8625 24.0625Z" fill="#BFCBE3"/>
<path fill-rule="evenodd" clip-rule="evenodd" d="M9.1748 26.8125H3.1123C2.8623 26.8125 2.6748 26.625 2.6748 26.375V24.0625C2.6748 23.8125 2.8623 23.625 3.1123 23.625H9.1748C9.4248 23.625 9.6123 23.8125 9.6123 24.0625V26.375C9.6123 26.625 9.4248 26.8125 9.1748 26.8125ZM3.5498 25.9375H8.7373V24.5H3.5498V25.9375Z" fill="#BFCBE3"/>
</svg>
