<svg width="32" height="32" viewBox="0 0 32 32" fill="none" xmlns="http://www.w3.org/2000/svg">
<g clip-path="url(#clip0_5042_3465)">
<path d="M16.028 16C20.44 16 24.028 12.412 24.028 8C24.028 3.588 20.44 0 16.028 0C11.616 0 8.028 3.588 8.028 8C8.028 12.412 11.616 16 16.028 16ZM16.028 1.33333C19.704 1.33333 22.6947 4.324 22.6947 8C22.6947 11.676 19.704 14.6667 16.028 14.6667C12.352 14.6667 9.36133 11.676 9.36133 8C9.36133 4.324 12.3533 1.33333 16.028 1.33333ZM22 18.6667H10C6.692 18.6667 4 21.3587 4 24.6667V32H5.33333V24.6667C5.33333 22.0933 7.42667 20 10 20H10.6667V24.0853C9.50533 24.3733 8.63867 25.4173 8.63867 26.6667C8.63867 28.1373 9.83467 29.3333 11.3053 29.3333C12.776 29.3333 13.972 28.1373 13.972 26.6667C13.972 25.4387 13.132 24.412 12 24.104V20H20V24.7347C18.48 25.044 17.3333 26.3907 17.3333 28V32H18.6667V28C18.6667 26.8973 19.564 26 20.6667 26C21.7693 26 22.6667 26.8973 22.6667 28V32H24V28C24 26.3893 22.8533 25.044 21.3333 24.7347V20H22C24.5733 20 26.6667 22.0933 26.6667 24.6667V32H28V24.6667C28 21.3587 25.308 18.6667 22 18.6667ZM12.6387 26.6667C12.6387 27.4027 12.0413 28 11.3053 28C10.5693 28 9.972 27.4027 9.972 26.6667C9.972 25.9307 10.5693 25.3333 11.3053 25.3333C12.0413 25.3333 12.6387 25.9307 12.6387 26.6667Z" fill="#BFCBE3"/>
</g>
<defs>
<clipPath id="clip0_5042_3465">
<rect width="32" height="32" fill="white"/>
</clipPath>
</defs>
</svg>
