<svg width="22" height="22" viewBox="0 0 22 22" fill="none" xmlns="http://www.w3.org/2000/svg">
<g clip-path="url(#clip0_1_6380)">
<path d="M17.4165 3.66667H17.3239C16.8977 1.57758 15.0469 0 12.8332 0H4.5832C2.05595 0 -0.000134799 2.05608 -0.000134799 4.58333V16.3671C-0.0496348 17.8915 1.81853 18.8925 3.06062 18.0052L5.78037 16.192C6.41287 17.9676 8.09312 19.25 10.0832 19.25H15.3054L18.9382 21.6718C20.1812 22.5583 22.0484 21.5582 21.9999 20.0338V8.25C21.9999 5.72275 19.9438 3.66667 17.4165 3.66667ZM2.04312 16.4798C1.99728 16.5523 1.79745 16.4441 1.8332 16.3671V4.58333C1.8332 3.06717 3.06703 1.83333 4.5832 1.83333H12.8332C14.3494 1.83333 15.5832 3.06717 15.5832 4.58333V11C15.5832 12.5162 14.3494 13.75 12.8332 13.75H6.41653C6.23503 13.7491 6.06545 13.8215 5.90778 13.904L2.04312 16.4798ZM20.1665 20.0338C20.2023 20.1126 19.9988 20.2198 19.9557 20.1465L16.0919 17.5707C15.9416 17.4707 15.7647 17.4167 15.5832 17.4167H10.0832C8.8897 17.4167 7.88137 16.6476 7.50187 15.5833H12.8332C15.3604 15.5833 17.4165 13.5273 17.4165 11V5.5C18.9327 5.5 20.1665 6.73383 20.1665 8.25V20.0338ZM7.0582 11H5.49987C4.99387 11 4.5832 10.5893 4.5832 10.0833V5.5C4.5832 4.994 4.99387 4.58333 5.49987 4.58333H7.0582C7.46337 4.58333 7.79153 4.9115 7.79153 5.31667C7.79153 5.72183 7.46337 6.05 7.0582 6.05H6.04895V7.05925H7.0582C7.46337 7.05925 7.79153 7.38742 7.79153 7.79258C7.79153 8.19775 7.46337 8.52592 7.0582 8.52592H6.04895V9.53517H7.0582C7.46337 9.53517 7.79153 9.86333 7.79153 10.2685C7.79153 10.6737 7.46337 11.0018 7.0582 11.0018V11ZM8.7082 10.3153V5.42117C8.7082 4.95825 9.08312 4.58333 9.54603 4.58333C9.87053 4.58333 10.1648 4.77033 10.3041 5.06367L11.6177 7.84208V5.26808C11.6177 4.89042 11.9239 4.58333 12.3024 4.58333C12.681 4.58333 12.9872 4.8895 12.9872 5.26808V10.1622C12.9872 10.6251 12.6123 11 12.1494 11C11.8258 11 11.5306 10.813 11.3922 10.5206L10.0795 7.74767V10.3153C10.0795 10.6929 9.77337 11 9.39478 11C9.0162 11 8.71003 10.6938 8.71003 10.3153H8.7082Z" fill="#FF8C33"/>
</g>
<defs>
<clipPath id="clip0_1_6380">
<rect width="22" height="22" fill="white"/>
</clipPath>
</defs>
</svg>
