<svg width="23" height="23" viewBox="0 0 23 23" fill="none" xmlns="http://www.w3.org/2000/svg">
<g clip-path="url(#clip0_1_1713)">
<path d="M11.5 23C17.8513 23 23 17.8513 23 11.5C23 5.14872 17.8513 0 11.5 0C5.14872 0 0 5.14872 0 11.5C0.00687305 17.8484 5.15155 22.9931 11.5 23ZM10.5417 5.75C10.5417 5.22073 10.9707 4.79168 11.5 4.79168C12.0293 4.79168 12.4583 5.22073 12.4583 5.75V13.4167C12.4583 13.946 12.0293 14.375 11.5 14.375C10.9707 14.375 10.5417 13.946 10.5417 13.4167V5.75ZM11.5 17.25C12.0293 17.25 12.4583 17.679 12.4583 18.2083C12.4583 18.7376 12.0293 19.1666 11.5 19.1666C10.9707 19.1666 10.5417 18.7376 10.5417 18.2083C10.5417 17.679 10.9707 17.25 11.5 17.25Z" fill="#D85A5A"/>
</g>
<defs>
<clipPath id="clip0_1_1713">
<rect width="23" height="23" fill="white"/>
</clipPath>
</defs>
</svg>
