<svg width="20" height="20" viewBox="0 0 20 20" fill="none" xmlns="http://www.w3.org/2000/svg">
<g clip-path="url(#clip0_4409_5700)">
<path d="M19.3925 7.84907C18.1 5.74407 15.16 2.2124 9.99998 2.2124C4.83998 2.2124 1.89998 5.74407 0.607482 7.84907C0.207922 8.49532 -0.00372314 9.2401 -0.00372314 9.9999C-0.00372314 10.7597 0.207922 11.5045 0.607482 12.1507C1.89998 14.2557 4.83998 17.7874 9.99998 17.7874C15.16 17.7874 18.1 14.2557 19.3925 12.1507C19.792 11.5045 20.0037 10.7597 20.0037 9.9999C20.0037 9.2401 19.792 8.49532 19.3925 7.84907ZM17.9716 11.2782C16.8616 13.0832 14.3491 16.1207 9.99998 16.1207C5.65082 16.1207 3.13831 13.0832 2.02832 11.2782C1.79093 10.8941 1.66519 10.4515 1.66519 9.9999C1.66519 9.54834 1.79093 9.1057 2.02832 8.72157C3.13831 6.91657 5.65082 3.87907 9.99998 3.87907C14.3491 3.87907 16.8616 6.91324 17.9716 8.72157C18.209 9.1057 18.3348 9.54834 18.3348 9.9999C18.3348 10.4515 18.209 10.8941 17.9716 11.2782Z" fill="#959EB1"/>
<path d="M9.99998 5.8335C9.17589 5.8335 8.37031 6.07787 7.68511 6.53571C6.9999 6.99355 6.46585 7.64429 6.15048 8.40565C5.83512 9.16701 5.7526 10.0048 5.91338 10.813C6.07415 11.6213 6.47098 12.3637 7.0537 12.9464C7.63642 13.5292 8.37885 13.926 9.18711 14.0868C9.99536 14.2475 10.8331 14.165 11.5945 13.8497C12.3559 13.5343 13.0066 13.0002 13.4644 12.315C13.9223 11.6298 14.1666 10.8243 14.1666 10.0002C14.1653 8.8955 13.7259 7.83646 12.9448 7.05535C12.1637 6.27423 11.1046 5.83482 9.99998 5.8335ZM9.99998 12.5002C9.50553 12.5002 9.02218 12.3535 8.61106 12.0788C8.19993 11.8041 7.8795 11.4137 7.69028 10.9569C7.50106 10.5001 7.45155 9.99739 7.54802 9.51244C7.64448 9.02748 7.88258 8.58203 8.23221 8.2324C8.58185 7.88276 9.0273 7.64466 9.51226 7.5482C9.99721 7.45174 10.4999 7.50124 10.9567 7.69046C11.4135 7.87968 11.804 8.20011 12.0787 8.61124C12.3534 9.02236 12.5 9.50571 12.5 10.0002C12.5 10.6632 12.2366 11.2991 11.7677 11.7679C11.2989 12.2368 10.663 12.5002 9.99998 12.5002Z" fill="#959EB1"/>
</g>
<defs>
<clipPath id="clip0_4409_5700">
<rect width="20" height="20" fill="white"/>
</clipPath>
</defs>
</svg>
