<svg width="37" height="37" viewBox="0 0 37 37" fill="none" xmlns="http://www.w3.org/2000/svg">
<g clip-path="url(#clip0_5042_2165)">
<path d="M8.94167 21.5833H5.39583C2.42042 21.5833 0 24.0037 0 26.9792V33.1458C0 35.2718 1.72975 37 3.85417 37C5.97858 37 7.70833 35.2718 7.70833 33.1458V26.2083H8.94167C9.96225 26.2083 10.7917 25.3789 10.7917 24.3583V23.4333C10.7917 22.4127 9.96071 21.5833 8.94167 21.5833ZM9.25 24.3583C9.25 24.5279 9.11125 24.6667 8.94167 24.6667H6.9375C6.512 24.6667 6.16667 25.012 6.16667 25.4375V33.1458C6.16667 34.4208 5.12912 35.4583 3.85417 35.4583C2.57921 35.4583 1.54167 34.4208 1.54167 33.1458V26.9792C1.54167 24.8532 3.27142 23.125 5.39583 23.125H8.94167C9.11125 23.125 9.25 23.2637 9.25 23.4333V24.3583ZM24.1687 0H18.9995C11.9233 0 6.16667 5.75504 6.16667 12.8313V15.335C6.16667 16.2584 6.56596 17.1356 7.26279 17.743C7.8255 18.2333 8.53929 18.5 9.26542 18.5C11.507 18.3088 13.633 17.5657 15.4706 16.6885C15.4537 16.7795 15.4167 16.8627 15.4167 16.9583C15.4167 17.8093 16.1073 18.5 16.9583 18.5C17.8093 18.5 18.5 17.8093 18.5 16.9583C18.5 16.3139 18.1038 15.7651 17.5426 15.5338C19.0858 14.5518 20.461 13.4171 21.6558 12.2146C22.9647 13.5096 24.3244 14.6058 25.7289 15.5123C25.1153 15.7158 24.6667 16.2754 24.6667 16.9568C24.6667 17.8078 25.3573 18.4985 26.2083 18.4985C27.0593 18.4985 27.75 17.8078 27.75 16.9568C27.75 16.8396 27.7084 16.7348 27.6837 16.6253C29.5538 17.5673 31.4947 18.1932 33.5004 18.4707C34.3653 18.5956 35.2425 18.3242 35.9085 17.743C36.6022 17.1372 37 16.2646 37 15.3442V12.8297C37 5.75504 31.245 0 24.1687 0ZM21.2411 10.3508C18.3397 13.4665 14.5533 16.2322 9.46275 16.9445C9.04033 17.0015 8.61329 16.8735 8.27567 16.5806C7.91492 16.2677 7.70833 15.8129 7.70833 15.335V12.8313C7.70833 6.60604 12.7743 1.54167 18.9995 1.54167H24.1687C25.069 1.54167 25.9462 1.6465 26.7865 1.84692C26.1713 3.24675 24.3707 6.94521 21.2411 10.3508ZM35.4583 15.3458C35.4583 15.819 35.2533 16.2707 34.8956 16.5822C34.558 16.8751 34.1356 17.0015 33.7101 16.9445C29.7742 16.3987 26.0788 14.4315 22.7118 11.0923C25.92 7.48942 27.6945 3.67379 28.268 2.3125C32.4721 3.95746 35.4568 8.05367 35.4568 12.8313L35.4583 15.3458ZM35.6495 22.607C35.5169 22.9076 33.0703 28.2957 27.75 30.9366V36.2292C27.75 36.6547 27.4047 37 26.9792 37C26.5537 37 26.2083 36.6547 26.2083 36.2292V31.581C24.8285 32.0698 23.2946 32.375 21.5833 32.375C19.9754 32.375 18.4306 32.1067 16.9583 31.5826V36.2292C16.9583 36.6547 16.613 37 16.1875 37C15.762 37 15.4167 36.6547 15.4167 36.2292V30.9135C14.4531 30.431 13.5235 29.8405 12.634 29.119C12.304 28.8508 12.2516 28.3651 12.5199 28.0352C12.7881 27.7053 13.2722 27.6513 13.6052 27.9211C15.9886 29.8528 18.6727 30.8333 21.5833 30.8333C30.2305 30.8333 34.2019 22.072 34.2404 21.9842C34.4115 21.5941 34.8694 21.4168 35.2564 21.591C35.6464 21.7622 35.8222 22.217 35.6495 22.607Z" fill="#BFCBE3"/>
</g>
<defs>
<clipPath id="clip0_5042_2165">
<rect width="37" height="37" fill="white"/>
</clipPath>
</defs>
</svg>
