<svg width="37" height="37" viewBox="0 0 37 37" fill="none" xmlns="http://www.w3.org/2000/svg">
<g clip-path="url(#clip0_5023_12930)">
<path d="M11.3615 31.1602C11.2403 31.1602 11.1242 31.21 11.0385 31.2987C10.9529 31.3874 10.9048 31.5077 10.9048 31.6331C10.9048 31.7586 10.9529 31.8789 11.0385 31.9676C11.1242 32.0563 11.2403 32.1061 11.3615 32.1061H20.6451C20.7663 32.1061 20.8824 32.0563 20.968 31.9676C21.0537 31.8789 21.1018 31.7586 21.1018 31.6331C21.1018 31.5077 21.0537 31.3874 20.968 31.2987C20.8824 31.21 20.7663 31.1602 20.6451 31.1602H11.3615Z" fill="#BFCBE3"/>
<path d="M2.65198 32.0624C2.76507 32.0622 2.87407 32.0186 2.95789 31.9399C3.04171 31.8613 3.09438 31.7533 3.10572 31.6367C3.11705 31.5202 3.08624 31.4034 3.01925 31.3091C2.95225 31.2147 2.85384 31.1494 2.74306 31.1259C2.4825 31.0706 2.23916 30.9495 2.03468 30.7733C1.8302 30.5972 1.67091 30.3714 1.57097 30.1161C1.47104 29.8608 1.43355 29.5839 1.46184 29.31C1.49013 29.0361 1.58332 28.7736 1.73313 28.546C1.85039 28.625 1.96571 28.7076 2.08449 28.7962C2.49736 29.1041 2.95174 29.4428 3.66106 29.5922C3.66682 32.3208 3.65962 32.8685 3.65462 32.9474C3.66547 32.8307 3.71796 32.7225 3.80182 32.6439C3.88568 32.5652 3.99486 32.5218 4.10798 32.5222C4.04255 32.523 3.97805 32.5384 3.91885 32.5672C3.85965 32.5961 3.80713 32.6378 3.76486 32.6896C3.72259 32.7413 3.69155 32.8019 3.67385 32.8671C3.65614 32.9324 3.65218 33.0008 3.66224 33.0677V34.345C3.66227 34.7037 3.79984 35.0477 4.04471 35.3013C4.28959 35.555 4.6217 35.6975 4.96803 35.6976C4.9765 35.6976 4.98438 35.6976 4.9926 35.6976C5.33777 35.6853 5.66473 35.5342 5.90402 35.2762C6.1433 35.0183 6.27606 34.6739 6.27407 34.3162V33.7655C6.27418 33.6867 6.30442 33.6113 6.35817 33.5556C6.41192 33.5 6.48478 33.4687 6.56078 33.4686H6.65016C6.72616 33.4687 6.79902 33.5 6.85277 33.5556C6.90651 33.6113 6.93676 33.6867 6.93687 33.7655C6.9353 33.9957 6.97773 34.2241 7.06173 34.4373C7.14572 34.6505 7.26962 34.8444 7.42629 35.0079C7.58296 35.1713 7.7693 35.301 7.97457 35.3895C8.17985 35.478 8.4 35.5236 8.62235 35.5236C8.84471 35.5236 9.06486 35.478 9.27013 35.3895C9.47541 35.301 9.66175 35.1713 9.81842 35.0079C9.97508 34.8444 10.099 34.6505 10.183 34.4373C10.267 34.2241 10.3094 33.9957 10.3078 33.7655V29.9251C10.3078 29.7997 10.2597 29.6794 10.1741 29.5907C10.0884 29.502 9.97228 29.4521 9.85117 29.4521C9.73005 29.4521 9.61389 29.502 9.52825 29.5907C9.44261 29.6794 9.3945 29.7997 9.3945 29.9251V33.7655C9.39557 33.8712 9.37638 33.9761 9.33806 34.0741C9.29973 34.1721 9.24303 34.2612 9.17122 34.3364C9.09942 34.4115 9.01394 34.4712 8.91972 34.5119C8.82551 34.5526 8.72444 34.5736 8.62235 34.5736C8.52027 34.5736 8.4192 34.5526 8.32498 34.5119C8.23077 34.4712 8.14529 34.4115 8.07348 34.3364C8.00168 34.2612 7.94497 34.1721 7.90665 34.0741C7.86832 33.9761 7.84914 33.8712 7.85021 33.7655C7.84987 33.436 7.72337 33.1201 7.49844 32.8871C7.27352 32.6541 6.96854 32.523 6.65042 32.5226H6.56103C6.24288 32.5229 5.93785 32.6539 5.71287 32.8869C5.48789 33.1199 5.36134 33.4359 5.36098 33.7654V34.3161C5.36662 34.3986 5.34788 34.4809 5.30726 34.552C5.26664 34.6232 5.20607 34.6799 5.13359 34.7146C5.06112 34.7492 4.98017 34.7602 4.90152 34.7461C4.82286 34.7319 4.75023 34.6933 4.69326 34.6354C4.65586 34.5977 4.62617 34.5526 4.60595 34.5028C4.58573 34.4529 4.5754 34.3994 4.57558 34.3453V32.9956C4.57561 32.963 4.5722 32.9304 4.56541 32.8985C4.57499 32.6919 4.5755 32.3624 4.57626 31.8109C4.57711 31.2095 4.57626 30.4435 4.57456 29.668C5.69726 29.6383 6.2983 29.1927 6.82936 28.7966C7.33008 28.4231 7.76269 28.1006 8.66789 28.1006C9.57818 28.1006 10.031 28.4253 10.5554 28.8011C11.1079 29.1972 11.7342 29.6462 12.8629 29.6687C12.8629 29.6687 12.9035 29.6698 12.9169 29.6699C12.9338 29.6699 12.9684 29.6691 12.971 29.6689C14.1107 29.6458 14.7163 29.195 15.2516 28.7963C15.7529 28.423 16.1857 28.1006 17.0914 28.1006C17.9972 28.1006 18.4294 28.4231 18.93 28.7966C19.2604 29.0429 19.6343 29.3219 20.1471 29.4949C20.2622 29.5337 20.3876 29.5236 20.4955 29.4667C20.6035 29.4098 20.6852 29.3108 20.7227 29.1916C20.7602 29.0723 20.7504 28.9424 20.6955 28.8306C20.6406 28.7188 20.545 28.6342 20.4299 28.5953C20.0525 28.4681 19.7665 28.2549 19.464 28.029C18.9145 27.6192 18.2917 27.1546 17.0917 27.1546C15.8917 27.1546 15.2685 27.6188 14.7186 28.0282C14.2303 28.3919 13.8085 28.706 12.9445 28.7235L12.9191 28.724L12.8892 28.7232C12.0278 28.7056 11.5865 28.3897 11.076 28.0233C10.5084 27.6162 9.86447 27.1546 8.66874 27.1546C7.46861 27.1546 6.84579 27.6191 6.29643 28.0289C5.79562 28.4024 5.36319 28.7249 4.4579 28.7249C3.55261 28.7249 3.11992 28.4024 2.61936 28.0289C2.44534 27.8991 2.26538 27.7649 2.06144 27.641C1.72984 27.4357 1.36542 27.2935 0.985435 27.2212C0.905182 27.2046 0.833045 27.1595 0.781529 27.0937C0.730013 27.0279 0.702367 26.9454 0.703385 26.8607C0.703385 26.7352 0.655272 26.6149 0.569629 26.5262C0.483987 26.4375 0.367832 26.3877 0.246716 26.3877C0.1256 26.3877 0.00944418 26.4375 -0.0761979 26.5262C-0.16184 26.6149 -0.209953 26.7352 -0.209953 26.8607C-0.210978 27.1662 -0.108793 27.4625 0.0789008 27.6982C0.266595 27.9339 0.527974 28.0941 0.817764 28.1512C0.840978 28.1558 0.863007 28.1625 0.885544 28.1676C0.68273 28.5266 0.565469 28.9305 0.543482 29.3458C0.521496 29.7611 0.595418 30.1759 0.759119 30.5557C0.92282 30.9355 1.17158 31.2694 1.48478 31.5298C1.79798 31.7901 2.16659 31.9694 2.56005 32.0527C2.5903 32.0592 2.6211 32.0624 2.65198 32.0624Z" fill="#BFCBE3"/>
<path d="M20.9659 35.9463H3.66285C3.29777 35.9459 2.94776 35.7955 2.68961 35.5281C2.43147 35.2607 2.28628 34.8982 2.2859 34.5201V33.202C2.2859 33.0765 2.23778 32.9562 2.15214 32.8675C2.0665 32.7788 1.95034 32.729 1.82923 32.729C1.70811 32.729 1.59196 32.7788 1.50631 32.8675C1.42067 32.9562 1.37256 33.0765 1.37256 33.202V34.5201C1.37314 35.1491 1.61461 35.7521 2.04399 36.1969C2.47336 36.6417 3.05557 36.8919 3.66285 36.8926H20.9659C21.0871 36.8926 21.2032 36.8428 21.2889 36.7541C21.3745 36.6654 21.4226 36.5451 21.4226 36.4196C21.4226 36.2942 21.3745 36.1739 21.2889 36.0852C21.2032 35.9965 21.0871 35.9467 20.9659 35.9467V35.9463Z" fill="#BFCBE3"/>
<path d="M12.5846 19.6299C12.4635 19.6299 12.3473 19.6797 12.2617 19.7684C12.176 19.8571 12.1279 19.9774 12.1279 20.1029C12.1279 20.2283 12.176 20.3486 12.2617 20.4373C12.3473 20.526 12.4635 20.5758 12.5846 20.5758H12.9437C13.0649 20.5758 13.181 20.526 13.2667 20.4373C13.3523 20.3486 13.4004 20.2283 13.4004 20.1029C13.4004 19.9774 13.3523 19.8571 13.2667 19.7684C13.181 19.6797 13.0649 19.6299 12.9437 19.6299H12.5846Z" fill="#BFCBE3"/>
<path d="M14.6813 22.8789C14.5602 22.8789 14.444 22.9287 14.3584 23.0174C14.2727 23.1061 14.2246 23.2264 14.2246 23.3519C14.2246 23.4773 14.2727 23.5976 14.3584 23.6863C14.444 23.775 14.5602 23.8249 14.6813 23.8249H15.0405C15.1616 23.8249 15.2778 23.775 15.3634 23.6863C15.4491 23.5976 15.4972 23.4773 15.4972 23.3519C15.4972 23.2264 15.4491 23.1061 15.3634 23.0174C15.2778 22.9287 15.1616 22.8789 15.0405 22.8789H14.6813Z" fill="#BFCBE3"/>
<path d="M10.4874 22.8789C10.3663 22.8789 10.2502 22.9287 10.1645 23.0174C10.0789 23.1061 10.0308 23.2264 10.0308 23.3519C10.0308 23.4773 10.0789 23.5976 10.1645 23.6863C10.2502 23.775 10.3663 23.8249 10.4874 23.8249H10.8466C10.9066 23.8249 10.9659 23.8126 11.0213 23.7889C11.0767 23.7651 11.1271 23.7303 11.1695 23.6863C11.2119 23.6424 11.2455 23.5903 11.2685 23.5329C11.2914 23.4755 11.3032 23.414 11.3032 23.3519C11.3032 23.2898 11.2914 23.2283 11.2685 23.1709C11.2455 23.1135 11.2119 23.0614 11.1695 23.0174C11.1271 22.9735 11.0767 22.9387 11.0213 22.9149C10.9659 22.8911 10.9066 22.8789 10.8466 22.8789H10.4874Z" fill="#BFCBE3"/>
<path d="M8.39075 19.6299C8.26963 19.6299 8.15348 19.6797 8.06784 19.7684C7.98219 19.8571 7.93408 19.9774 7.93408 20.1029C7.93408 20.2283 7.98219 20.3486 8.06784 20.4373C8.15348 20.526 8.26963 20.5758 8.39075 20.5758H8.7499C8.80987 20.5758 8.86925 20.5636 8.92466 20.5398C8.98007 20.5161 9.03041 20.4812 9.07281 20.4373C9.11522 20.3934 9.14886 20.3412 9.17181 20.2839C9.19476 20.2265 9.20657 20.165 9.20657 20.1029C9.20657 20.0408 9.19476 19.9792 9.17181 19.9219C9.14886 19.8645 9.11522 19.8123 9.07281 19.7684C9.03041 19.7245 8.98007 19.6897 8.92466 19.6659C8.86925 19.6421 8.80987 19.6299 8.7499 19.6299H8.39075Z" fill="#BFCBE3"/>
<path d="M6.29407 22.8789C6.2341 22.8789 6.17472 22.8911 6.11931 22.9149C6.06391 22.9387 6.01356 22.9735 5.97116 23.0174C5.92875 23.0614 5.89511 23.1135 5.87216 23.1709C5.84921 23.2283 5.8374 23.2898 5.8374 23.3519C5.8374 23.414 5.84921 23.4755 5.87216 23.5329C5.89511 23.5903 5.92875 23.6424 5.97116 23.6863C6.01356 23.7303 6.06391 23.7651 6.11931 23.7889C6.17472 23.8126 6.2341 23.8249 6.29407 23.8249H6.65322C6.77434 23.8249 6.89049 23.775 6.97614 23.6863C7.06178 23.5976 7.10989 23.4773 7.10989 23.3519C7.10989 23.2264 7.06178 23.1061 6.97614 23.0174C6.89049 22.9287 6.77434 22.8789 6.65322 22.8789H6.29407Z" fill="#BFCBE3"/>
<path d="M16.7853 19.6299C16.6642 19.6299 16.548 19.6797 16.4624 19.7684C16.3767 19.8571 16.3286 19.9774 16.3286 20.1029C16.3286 20.2283 16.3767 20.3486 16.4624 20.4373C16.548 20.526 16.6642 20.5758 16.7853 20.5758H17.1443C17.2655 20.5758 17.3816 20.526 17.4673 20.4373C17.5529 20.3486 17.601 20.2283 17.601 20.1029C17.601 19.9774 17.5529 19.8571 17.4673 19.7684C17.3816 19.6797 17.2655 19.6299 17.1443 19.6299H16.7853Z" fill="#BFCBE3"/>
<path d="M18.8898 22.8789C18.8298 22.8789 18.7704 22.8911 18.715 22.9149C18.6596 22.9387 18.6093 22.9735 18.5669 23.0174C18.5245 23.0614 18.4908 23.1135 18.4679 23.1709C18.4449 23.2283 18.4331 23.2898 18.4331 23.3519C18.4331 23.414 18.4449 23.4755 18.4679 23.5329C18.4908 23.5903 18.5245 23.6424 18.5669 23.6863C18.6093 23.7303 18.6596 23.7651 18.715 23.7889C18.7704 23.8126 18.8298 23.8249 18.8898 23.8249H19.2489C19.3089 23.8249 19.3683 23.8126 19.4237 23.7889C19.4791 23.7651 19.5294 23.7303 19.5718 23.6863C19.6142 23.6424 19.6479 23.5903 19.6708 23.5329C19.6938 23.4755 19.7056 23.414 19.7056 23.3519C19.7056 23.2898 19.6938 23.2283 19.6708 23.1709C19.6479 23.1135 19.6142 23.0614 19.5718 23.0174C19.5294 22.9735 19.4791 22.9387 19.4237 22.9149C19.3683 22.8911 19.3089 22.8789 19.2489 22.8789H18.8898Z" fill="#BFCBE3"/>
<path d="M1.15869 26.019C1.15869 26.1444 1.20679 26.2647 1.29242 26.3534C1.37804 26.4421 1.49417 26.492 1.61528 26.492H19.7773C19.8984 26.492 20.0146 26.4422 20.1002 26.3535C20.1859 26.2648 20.234 26.1445 20.234 26.019C20.234 25.8936 20.1859 25.7733 20.1002 25.6846C20.0146 25.5959 19.8984 25.546 19.7773 25.546H2.09762C2.21559 23.6584 3.02219 21.8878 4.35389 20.5933C5.68559 19.2988 7.44273 18.5772 9.2691 18.5748H16.2866C17.1651 18.5734 18.0362 18.7394 18.8566 19.0646C18.9696 19.1088 19.0948 19.1048 19.2049 19.0536C19.315 19.0023 19.4011 18.908 19.4443 18.7913C19.4874 18.6745 19.4842 18.5448 19.4353 18.4305C19.3864 18.3161 19.2957 18.2266 19.1832 18.1813C18.2586 17.8145 17.2767 17.6271 16.2866 17.6284H9.2691C7.13911 17.6311 5.09568 18.5017 3.58037 20.0521C2.06506 21.6024 1.19955 23.708 1.17089 25.9139C1.16302 25.9483 1.15893 25.9836 1.15869 26.019Z" fill="#BFCBE3"/>
<path d="M28.1149 14.0519H28.4688C28.5899 14.0519 28.706 14.0021 28.7917 13.9134C28.8773 13.8247 28.9254 13.7044 28.9254 13.5789C28.9254 13.4535 28.8773 13.3332 28.7917 13.2445C28.706 13.1558 28.5899 13.106 28.4688 13.106H28.1149C27.9938 13.106 27.8776 13.1558 27.792 13.2445C27.7063 13.3332 27.6582 13.4535 27.6582 13.5789C27.6582 13.7044 27.7063 13.8247 27.792 13.9134C27.8776 14.0021 27.9938 14.0519 28.1149 14.0519Z" fill="#BFCBE3"/>
<path d="M36.296 13.1807C35.9442 10.6216 34.7479 8.71679 32.7322 7.5189C31.2783 6.65499 29.749 6.39568 28.9257 6.31785V5.49632C28.9263 4.75064 29.1766 4.02825 29.6338 3.45225L31.6786 0.88114C31.7167 0.833195 31.7454 0.777943 31.7629 0.718535C31.7804 0.659128 31.7864 0.59673 31.7807 0.534904C31.7749 0.473077 31.7574 0.413033 31.7292 0.358201C31.7011 0.303368 31.6627 0.25482 31.6164 0.215328C31.5702 0.175837 31.5168 0.146175 31.4594 0.128037C31.4021 0.109899 31.3418 0.10364 31.2821 0.109617C31.2225 0.115594 31.1645 0.13369 31.1115 0.162871C31.0586 0.192053 31.0117 0.231749 30.9736 0.279693L28.9289 2.8508C28.3371 3.59621 28.0131 4.53115 28.0124 5.49623V8.77716C28.0124 8.9026 28.0605 9.02291 28.1461 9.11161C28.2318 9.20031 28.3479 9.25014 28.469 9.25014C28.5901 9.25014 28.7063 9.20031 28.7919 9.11161C28.8776 9.02291 28.9257 8.9026 28.9257 8.77716V7.26723C30.6355 7.43975 34.5977 8.35753 35.3629 13.1057H30.2927C30.1716 13.1057 30.0555 13.1556 29.9698 13.2443C29.8842 13.333 29.8361 13.4533 29.8361 13.5787C29.8361 13.7042 29.8842 13.8245 29.9698 13.9132C30.0555 14.0019 30.1716 14.0517 30.2927 14.0517H35.8641C35.979 14.0518 36.0892 14.0992 36.1705 14.1834C36.2518 14.2675 36.2976 14.3817 36.2977 14.5007V16.2342H20.2338V14.5008C20.234 14.3818 20.2797 14.2676 20.3609 14.1834C20.4422 14.0992 20.5524 14.0519 20.6674 14.0517H26.2365C26.3576 14.0517 26.4738 14.0019 26.5594 13.9132C26.6451 13.8245 26.6932 13.7042 26.6932 13.5787C26.6932 13.4533 26.6451 13.333 26.5594 13.2443C26.4738 13.1556 26.3576 13.1057 26.2365 13.1057H21.1699C21.7777 9.3228 24.3936 7.93651 26.5331 7.4458C26.592 7.43283 26.648 7.40789 26.6976 7.37242C26.7472 7.33694 26.7896 7.29164 26.8222 7.23913C26.8548 7.18661 26.8771 7.12792 26.8877 7.06645C26.8984 7.00497 26.8971 6.94192 26.8841 6.88095C26.8711 6.81997 26.8465 6.76226 26.8118 6.71117C26.7772 6.66007 26.7331 6.61659 26.6821 6.58324C26.6311 6.54989 26.5742 6.52733 26.5148 6.51685C26.4554 6.50638 26.3945 6.5082 26.3357 6.52222C24.3154 6.98537 20.8852 8.46687 20.2347 13.1807C19.9684 13.2745 19.7371 13.4521 19.5731 13.6888C19.4092 13.9254 19.3208 14.2093 19.3203 14.5006V16.7068C19.3203 16.8322 19.3684 16.9526 19.4541 17.0413C19.5397 17.13 19.6559 17.1798 19.777 17.1799H20.9774L22.9549 36.4072C22.9669 36.5233 23.0199 36.6307 23.1037 36.7087C23.1875 36.7868 23.2963 36.83 23.409 36.8301H33.1223C33.235 36.83 33.3438 36.7868 33.4276 36.7088C33.5115 36.6307 33.5645 36.5233 33.5764 36.4072L35.554 17.1799H36.7544C36.8755 17.1798 36.9917 17.13 37.0773 17.0413C37.163 16.9526 37.2111 16.8322 37.2111 16.7068V14.5007C37.2106 14.2093 37.1221 13.9254 36.958 13.6887C36.7939 13.452 36.5625 13.2743 36.296 13.1807ZM33.3539 29.64H23.178L22.6121 24.138H33.9202L33.3539 29.64ZM32.7117 35.8844H23.8202L23.2753 30.5859H33.2567L32.7117 35.8844ZM34.0172 23.1919H22.5148L21.8963 17.1801H34.6355L34.0172 23.1919Z" fill="#BFCBE3"/>
<path d="M23.5279 20.5777C23.7469 20.5614 23.9759 20.5562 24.2091 20.5619C24.2132 20.5619 24.2176 20.5619 24.2214 20.5619C24.2319 20.5569 25.5228 20.5627 27.1702 21.1041C27.7417 21.2921 28.3377 21.3881 28.9373 21.3885C29.6425 21.3898 30.3417 21.2533 30.998 20.986C31.7242 20.6874 32.4719 20.4481 33.2343 20.2706C33.2928 20.2571 33.3482 20.2317 33.3973 20.196C33.4464 20.1603 33.4882 20.115 33.5203 20.0625C33.5525 20.0101 33.5743 19.9516 33.5847 19.8904C33.595 19.8293 33.5936 19.7666 33.5805 19.7059C33.5675 19.6453 33.543 19.5879 33.5085 19.5371C33.4741 19.4863 33.4303 19.443 33.3797 19.4097C33.329 19.3764 33.2726 19.3537 33.2135 19.343C33.1544 19.3323 33.0939 19.3338 33.0353 19.3473C32.2263 19.5357 31.4327 19.7895 30.6619 20.1064C29.6326 20.5194 28.4974 20.5534 27.4468 20.2025C25.7125 19.6327 24.3474 19.6163 24.2256 19.6161C23.9659 19.6097 23.7092 19.6161 23.4631 19.6341C23.3432 19.6443 23.2321 19.7031 23.1539 19.7977C23.0756 19.8922 23.0365 20.015 23.0451 20.1392C23.0537 20.2634 23.1092 20.3791 23.1996 20.4612C23.29 20.5433 23.408 20.5852 23.5281 20.5777H23.5279Z" fill="#BFCBE3"/>
<path d="M28.2658 29.1471C28.8232 29.1434 29.3566 28.9115 29.7495 28.502C30.1424 28.0924 30.3629 27.5386 30.3629 26.9612C30.3629 26.3839 30.1424 25.83 29.7495 25.4205C29.3566 25.011 28.8232 24.779 28.2658 24.7754C28.2058 24.7754 28.1464 24.7876 28.091 24.8114C28.0356 24.8352 27.9853 24.87 27.9429 24.9139C27.9005 24.9578 27.8668 25.01 27.8439 25.0674C27.8209 25.1248 27.8091 25.1863 27.8091 25.2484C27.8091 25.3105 27.8209 25.372 27.8439 25.4294C27.8668 25.4868 27.9005 25.5389 27.9429 25.5828C27.9853 25.6267 28.0356 25.6616 28.091 25.6853C28.1464 25.7091 28.2058 25.7213 28.2658 25.7213C28.515 25.7217 28.7578 25.8028 28.9603 25.9531C29.1628 26.1035 29.3149 26.3156 29.3953 26.5599C29.4757 26.8042 29.4804 27.0684 29.4087 27.3155C29.337 27.5627 29.1925 27.7805 28.9954 27.9384C28.7984 28.0964 28.5586 28.1866 28.3096 28.1964C28.0606 28.2063 27.8148 28.1353 27.6067 27.9934C27.3986 27.8515 27.2385 27.6458 27.1488 27.405C27.0591 27.1642 27.0442 26.9005 27.1064 26.6505C27.1366 26.5291 27.119 26.4001 27.0575 26.2921C26.9959 26.1841 26.8954 26.1058 26.7781 26.0745C26.6608 26.0432 26.5364 26.0614 26.4321 26.1252C26.3278 26.189 26.2522 26.293 26.222 26.4145C26.1417 26.7375 26.1338 27.0753 26.1989 27.402C26.264 27.7287 26.4004 28.0356 26.5976 28.2993C26.7948 28.563 27.0477 28.7765 27.3368 28.9234C27.626 29.0703 27.9437 29.1468 28.2658 29.1471Z" fill="#BFCBE3"/>
</g>
<defs>
<clipPath id="clip0_5023_12930">
<rect width="37" height="37" fill="white"/>
</clipPath>
</defs>
</svg>
