<svg width="32" height="32" viewBox="0 0 32 32" fill="none" xmlns="http://www.w3.org/2000/svg">
<g clip-path="url(#clip0_4332_12798)">
<path d="M32 1.33333V9.33333C32 12.552 29.7053 15.2453 26.6667 15.8653V30.6667C26.6667 31.4027 26.0693 32 25.3333 32C24.5973 32 24 31.4027 24 30.6667V15.8653C20.9613 15.2453 18.6667 12.5533 18.6667 9.33333V1.33333C18.6667 0.597333 19.264 0 20 0C20.736 0 21.3333 0.597333 21.3333 1.33333V9.33333C21.3333 11.0693 22.452 12.536 24 13.088V1.33333C24 0.597333 24.5973 0 25.3333 0C26.0693 0 26.6667 0.597333 26.6667 1.33333V13.088C28.2147 12.536 29.3333 11.0693 29.3333 9.33333V1.33333C29.3333 0.597333 29.9307 0 30.6667 0C31.4027 0 32 0.597333 32 1.33333ZM21.3333 25.224C19.7627 26.136 17.944 26.6667 16 26.6667C10.1187 26.6667 5.33333 21.8813 5.33333 16C5.33333 10.1187 10.1187 5.33333 16 5.33333V1.33333C16 0.868 16.0947 0.428 16.2413 0.012C16.16 0.012 16.0813 0 16 0C7.164 0 0 7.164 0 16C0 24.836 7.164 32 16 32C17.888 32 19.6907 31.656 21.372 31.056C21.3587 30.9267 21.3333 30.8 21.3333 30.6667V25.224ZM8 16C8 20.412 11.588 24 16 24C18.0507 24 19.916 23.2187 21.3333 21.9467V17.7533C18.1853 16.252 16 13.0467 16 9.33333V8C11.588 8 8 11.588 8 16Z" fill="#BFCBE3"/>
</g>
<defs>
<clipPath id="clip0_4332_12798">
<rect width="32" height="32" fill="white"/>
</clipPath>
</defs>
</svg>
