<svg width="37" height="37" viewBox="0 0 37 37" fill="none" xmlns="http://www.w3.org/2000/svg">
<path d="M32.9532 12.0413C33.5248 12.0412 34.0835 11.8716 34.5588 11.554C35.034 11.2363 35.4044 10.7849 35.6232 10.2568C35.8419 9.72868 35.8992 9.14757 35.7877 8.58692C35.6762 8.02628 35.401 7.51127 34.9968 7.10701C34.8884 6.99863 34.7414 6.93774 34.5881 6.93774C34.4348 6.93774 34.2878 6.99863 34.1794 7.10701L30.9095 10.3775C30.8011 10.4859 30.7402 10.6329 30.7402 10.7862C30.7402 10.9395 30.8011 11.0865 30.9095 11.1949C31.1773 11.4641 31.4958 11.6776 31.8466 11.8228C32.1974 11.9681 32.5735 12.0424 32.9532 12.0413ZM34.5187 8.40259C34.673 8.72652 34.7232 9.09027 34.6625 9.44388C34.6017 9.7975 34.433 10.1236 34.1794 10.3775C33.9229 10.6265 33.5971 10.7922 33.2448 10.8528C32.8924 10.9134 32.53 10.866 32.2051 10.7168L34.5187 8.40259Z" fill="#BFCBE3"/>
<path d="M10.4062 17.3438C11.7857 17.3422 13.1083 16.7935 14.0837 15.8181C15.0592 14.8427 15.6078 13.5201 15.6094 12.1406C15.6094 11.9873 15.5485 11.8402 15.44 11.7318C15.3316 11.6234 15.1846 11.5625 15.0312 11.5625H5.78125C5.62792 11.5625 5.48087 11.6234 5.37245 11.7318C5.26403 11.8402 5.20312 11.9873 5.20312 12.1406C5.20466 13.5201 5.75333 14.8427 6.72878 15.8181C7.70422 16.7935 9.02677 17.3422 10.4062 17.3438ZM10.9844 13.5362L12.8274 15.3781C12.2869 15.7833 11.6531 16.046 10.9844 16.1418V13.5362ZM9.82812 16.1418C9.1592 16.0465 8.52511 15.784 7.98448 15.3787L9.82812 13.4853V16.1418ZM13.6438 14.5601L11.8018 12.7188H14.4121C14.3146 13.3873 14.0504 14.0205 13.6438 14.5601ZM8.96094 12.7188L7.16875 14.5589C6.7621 14.0198 6.49785 13.387 6.40042 12.7188H8.96094Z" fill="#BFCBE3"/>
<path d="M6.35938 25.4375H5.20312V26.5938H6.35938V25.4375Z" fill="#BFCBE3"/>
<path d="M8.67188 25.4375H7.51562V26.5938H8.67188V25.4375Z" fill="#BFCBE3"/>
<path d="M10.9844 25.4375H9.82812V26.5938H10.9844V25.4375Z" fill="#BFCBE3"/>
<path d="M13.2969 25.4375H12.1406V26.5938H13.2969V25.4375Z" fill="#BFCBE3"/>
<path d="M15.6094 25.4375H14.4531V26.5938H15.6094V25.4375Z" fill="#BFCBE3"/>
<path d="M17.9219 25.4375H16.7656V26.5938H17.9219V25.4375Z" fill="#BFCBE3"/>
<path d="M20.2344 25.4375H19.0781V26.5938H20.2344V25.4375Z" fill="#BFCBE3"/>
<path d="M22.5469 25.4375H21.3906V26.5938H22.5469V25.4375Z" fill="#BFCBE3"/>
<path d="M24.8594 25.4375H23.7031V26.5938H24.8594V25.4375Z" fill="#BFCBE3"/>
<path d="M27.1719 25.4375H26.0156V26.5938H27.1719V25.4375Z" fill="#BFCBE3"/>
<path d="M29.4844 25.4375H28.3281V26.5938H29.4844V25.4375Z" fill="#BFCBE3"/>
<path d="M31.7969 25.4375H30.6406V26.5938H31.7969V25.4375Z" fill="#BFCBE3"/>
<path d="M6.35938 32.375H5.20312V33.5312H6.35938V32.375Z" fill="#BFCBE3"/>
<path d="M8.67188 32.375H7.51562V33.5312H8.67188V32.375Z" fill="#BFCBE3"/>
<path d="M10.9844 32.375H9.82812V33.5312H10.9844V32.375Z" fill="#BFCBE3"/>
<path d="M13.2969 32.375H12.1406V33.5312H13.2969V32.375Z" fill="#BFCBE3"/>
<path d="M15.6094 32.375H14.4531V33.5312H15.6094V32.375Z" fill="#BFCBE3"/>
<path d="M17.9219 32.375H16.7656V33.5312H17.9219V32.375Z" fill="#BFCBE3"/>
<path d="M20.2344 32.375H19.0781V33.5312H20.2344V32.375Z" fill="#BFCBE3"/>
<path d="M22.5469 32.375H21.3906V33.5312H22.5469V32.375Z" fill="#BFCBE3"/>
<path d="M24.8594 32.375H23.7031V33.5312H24.8594V32.375Z" fill="#BFCBE3"/>
<path d="M27.1719 32.375H26.0156V33.5312H27.1719V32.375Z" fill="#BFCBE3"/>
<path d="M29.4844 32.375H28.3281V33.5312H29.4844V32.375Z" fill="#BFCBE3"/>
<path d="M31.7969 32.375H30.6406V33.5312H31.7969V32.375Z" fill="#BFCBE3"/>
<path d="M6.35938 27.75H5.20312V28.9062H6.35938V27.75Z" fill="#BFCBE3"/>
<path d="M8.67188 27.75H7.51562V28.9062H8.67188V27.75Z" fill="#BFCBE3"/>
<path d="M10.9844 27.75H9.82812V28.9062H10.9844V27.75Z" fill="#BFCBE3"/>
<path d="M13.2969 27.75H12.1406V28.9062H13.2969V27.75Z" fill="#BFCBE3"/>
<path d="M15.6094 27.75H14.4531V28.9062H15.6094V27.75Z" fill="#BFCBE3"/>
<path d="M17.9219 27.75H16.7656V28.9062H17.9219V27.75Z" fill="#BFCBE3"/>
<path d="M20.2344 27.75H19.0781V28.9062H20.2344V27.75Z" fill="#BFCBE3"/>
<path d="M22.5469 27.75H21.3906V28.9062H22.5469V27.75Z" fill="#BFCBE3"/>
<path d="M24.8594 27.75H23.7031V28.9062H24.8594V27.75Z" fill="#BFCBE3"/>
<path d="M27.1719 27.75H26.0156V28.9062H27.1719V27.75Z" fill="#BFCBE3"/>
<path d="M29.4844 27.75H28.3281V28.9062H29.4844V27.75Z" fill="#BFCBE3"/>
<path d="M31.7969 27.75H30.6406V28.9062H31.7969V27.75Z" fill="#BFCBE3"/>
<path d="M6.35938 30.0625H5.20312V31.2188H6.35938V30.0625Z" fill="#BFCBE3"/>
<path d="M8.67188 30.0625H7.51562V31.2188H8.67188V30.0625Z" fill="#BFCBE3"/>
<path d="M10.9844 30.0625H9.82812V31.2188H10.9844V30.0625Z" fill="#BFCBE3"/>
<path d="M13.2969 30.0625H12.1406V31.2188H13.2969V30.0625Z" fill="#BFCBE3"/>
<path d="M15.6094 30.0625H14.4531V31.2188H15.6094V30.0625Z" fill="#BFCBE3"/>
<path d="M17.9219 30.0625H16.7656V31.2188H17.9219V30.0625Z" fill="#BFCBE3"/>
<path d="M20.2344 30.0625H19.0781V31.2188H20.2344V30.0625Z" fill="#BFCBE3"/>
<path d="M22.5469 30.0625H21.3906V31.2188H22.5469V30.0625Z" fill="#BFCBE3"/>
<path d="M24.8594 30.0625H23.7031V31.2188H24.8594V30.0625Z" fill="#BFCBE3"/>
<path d="M27.1719 30.0625H26.0156V31.2188H27.1719V30.0625Z" fill="#BFCBE3"/>
<path d="M29.4844 30.0625H28.3281V31.2188H29.4844V30.0625Z" fill="#BFCBE3"/>
<path d="M31.7969 30.0625H30.6406V31.2188H31.7969V30.0625Z" fill="#BFCBE3"/>
<path d="M35.8438 20.8125H31.9929C31.992 20.0465 31.6887 19.3117 31.1488 18.7683C30.8809 18.499 30.5623 18.2856 30.2114 18.1403C29.8605 17.9951 29.4843 17.9208 29.1045 17.9219H27.9893L29.1757 16.7362C29.5993 16.3122 29.8878 15.7721 30.0046 15.1842C30.1214 14.5964 30.0612 13.9871 29.8318 13.4333C29.6024 12.8796 29.2139 12.4064 28.7156 12.0734C28.2172 11.7404 27.6313 11.5626 27.032 11.5625H26.4538C26.0556 11.5612 25.6611 11.639 25.2932 11.7915C24.9253 11.9439 24.5913 12.1679 24.3107 12.4505L21.9688 14.7919V14.0155C21.9696 13.7116 21.9101 13.4106 21.7938 13.1299C21.6775 12.8491 21.5066 12.5943 21.2912 12.38C20.8504 11.9601 20.265 11.7259 19.6562 11.7259C19.0475 11.7259 18.4621 11.9601 18.0213 12.38L17.4432 12.9581C17.2277 13.1724 17.0569 13.4273 16.9406 13.708C16.8243 13.9887 16.7648 14.2898 16.7656 14.5936V20.8125H15.6094V20.2344C15.6102 19.9306 15.5508 19.6297 15.4345 19.349C15.3182 19.0684 15.1473 18.8136 14.9318 18.5995C14.4915 18.1786 13.9059 17.9438 13.2969 17.9438C12.6878 17.9438 12.1022 18.1786 11.6619 18.5995C11.4464 18.8136 11.2756 19.0684 11.1593 19.349C11.043 19.6297 10.9835 19.9306 10.9844 20.2344V20.8125H1.73438C1.58105 20.8125 1.434 20.8734 1.32558 20.9818C1.21716 21.0903 1.15625 21.2373 1.15625 21.3906V23.7031C1.15625 23.8565 1.21716 24.0035 1.32558 24.1119C1.434 24.2204 1.58105 24.2813 1.73438 24.2813H2.89062V32.4906C2.892 33.3795 3.24572 34.2316 3.87425 34.8601C4.50279 35.4887 5.35487 35.8424 6.24375 35.8438H30.7563C31.6451 35.8424 32.4972 35.4887 33.1257 34.8601C33.7543 34.2316 34.108 33.3795 34.1094 32.4906V24.2813H35.8438C35.9971 24.2813 36.1441 24.2204 36.2525 24.1119C36.361 24.0035 36.4219 23.8565 36.4219 23.7031V21.3906C36.4219 21.2373 36.361 21.0903 36.2525 20.9818C36.1441 20.8734 35.9971 20.8125 35.8438 20.8125ZM17.9219 14.5936C17.9215 14.4417 17.9513 14.2911 18.0094 14.1507C18.0676 14.0103 18.153 13.8828 18.2607 13.7756L18.8388 13.1975C19.0591 12.9874 19.3518 12.8702 19.6562 12.8702C19.9607 12.8702 20.2534 12.9874 20.4737 13.1975C20.5814 13.3047 20.6668 13.4322 20.725 13.5726C20.7831 13.713 20.8129 13.8635 20.8125 14.0155V16.1875C20.8125 16.3018 20.8464 16.4136 20.91 16.5086C20.9735 16.6037 21.0638 16.6778 21.1694 16.7215C21.275 16.7653 21.3912 16.7767 21.5034 16.7544C21.6155 16.7321 21.7185 16.6771 21.7994 16.5963L25.1288 13.2674C25.3023 13.0928 25.5088 12.9544 25.7363 12.8602C25.9638 12.766 26.2077 12.718 26.4538 12.7188H27.032C27.4028 12.7188 27.7652 12.8288 28.0735 13.0348C28.3818 13.2408 28.6221 13.5336 28.764 13.8762C28.9058 14.2187 28.943 14.5957 28.8706 14.9593C28.7983 15.323 28.6198 15.6571 28.3576 15.9193L26.185 18.0913C26.1042 18.1721 26.0491 18.2751 26.0269 18.3873C26.0046 18.4994 26.016 18.6156 26.0597 18.7212C26.1035 18.8269 26.1776 18.9171 26.2726 18.9807C26.3677 19.0442 26.4794 19.0781 26.5938 19.0781H29.1045C29.3324 19.0775 29.5582 19.122 29.7687 19.2092C29.9793 19.2963 30.1705 19.4243 30.3313 19.5857C30.6548 19.9121 30.8364 20.353 30.8366 20.8125H21.63L22.2081 20.2344H24.2812V19.0781H23.3643L24.69 17.7525L23.8725 16.935L20.8125 19.995V18.5H19.6562V20.8125H17.9219V14.5936ZM12.1406 20.2344C12.1416 19.9279 12.2634 19.6342 12.4794 19.4169C12.6996 19.2066 12.9924 19.0892 13.2969 19.0892C13.6014 19.0892 13.8942 19.2066 14.1143 19.4169C14.3304 19.6342 14.4521 19.9279 14.4531 20.2344V20.8125H12.1406V20.2344ZM32.9531 32.4906C32.9522 33.073 32.7205 33.6313 32.3087 34.0431C31.8969 34.4548 31.3386 34.6866 30.7563 34.6875H6.24375C5.66138 34.6866 5.10313 34.4548 4.69134 34.0431C4.27954 33.6313 4.04779 33.073 4.04688 32.4906V24.2813H32.9531V32.4906ZM35.2656 23.125H2.3125V21.9688H35.2656V23.125Z" fill="#BFCBE3"/>
<path d="M6.7974 10.3484C6.87335 10.3487 6.94858 10.3338 7.01874 10.3047C7.0889 10.2756 7.15259 10.2329 7.20613 10.1791L9.65854 7.72665C9.76692 7.61824 9.82781 7.47121 9.82781 7.31792C9.82781 7.16462 9.76692 7.0176 9.65854 6.90918L8.52426 5.77432C8.87676 5.46434 9.12632 5.05422 9.23964 4.59869C9.35297 4.14317 9.32465 3.66391 9.15848 3.2249C8.99232 2.78589 8.6962 2.408 8.30965 2.14168C7.92311 1.87536 7.46452 1.73327 6.99512 1.73438C6.67509 1.73413 6.35865 1.80172 6.06665 1.93268C5.53609 1.43227 4.83381 1.15438 4.10449 1.15626C3.33813 1.15718 2.60342 1.46202 2.06153 2.00392C1.51963 2.54582 1.21479 3.28052 1.21387 4.04688C1.21406 4.59032 1.36886 5.12248 1.66018 5.58123C1.37056 5.97415 1.21417 6.44938 1.21387 6.93751C1.2143 7.37161 1.33691 7.79682 1.56767 8.1645C1.79843 8.53218 2.12802 8.82749 2.51875 9.01664C2.90947 9.20579 3.34554 9.28114 3.77708 9.23407C4.20862 9.18701 4.6182 9.01943 4.95896 8.75051L6.38809 10.1785C6.44164 10.2325 6.50541 10.2754 6.57568 10.3046C6.64595 10.3337 6.72131 10.3487 6.7974 10.3484ZM4.95087 7.34624C4.9341 7.34624 4.91676 7.34624 4.89999 7.34624C4.81563 7.35375 4.73395 7.3797 4.66072 7.42225C4.58749 7.46481 4.52451 7.52294 4.47623 7.59253C4.38338 7.72896 4.26232 7.84388 4.12123 7.92949C3.98014 8.01511 3.82232 8.06944 3.65842 8.0888C3.49453 8.10816 3.32839 8.0921 3.17123 8.04172C3.01408 7.99133 2.86958 7.90779 2.74749 7.79674C2.62541 7.68569 2.52859 7.54972 2.46359 7.39803C2.39859 7.24634 2.36691 7.08246 2.37071 6.91747C2.3745 6.75248 2.41368 6.59022 2.48559 6.44168C2.5575 6.29314 2.66046 6.16177 2.78752 6.05645C2.84708 6.00601 2.8958 5.94404 2.93077 5.87427C2.96573 5.8045 2.98621 5.72838 2.99096 5.65048C2.99571 5.57259 2.98465 5.49453 2.95843 5.42103C2.93221 5.34753 2.89138 5.28009 2.8384 5.22279C2.67967 5.05048 2.55763 4.84769 2.47971 4.62675C2.40179 4.40581 2.36961 4.17133 2.38513 3.93756C2.40065 3.7038 2.46354 3.47563 2.56998 3.26693C2.67642 3.05822 2.82419 2.87334 3.0043 2.72352C3.18441 2.5737 3.39311 2.46207 3.61771 2.39542C3.8423 2.32876 4.07811 2.30847 4.31079 2.33578C4.54347 2.36309 4.76817 2.43743 4.97123 2.55428C5.17429 2.67113 5.35147 2.82806 5.49199 3.01551C5.53765 3.07651 5.59492 3.12789 5.6605 3.16668C5.72608 3.20547 5.79868 3.23092 5.87413 3.24156C6.02661 3.2625 6.18119 3.2224 6.30426 3.12998C6.50208 2.97663 6.74482 2.89253 6.99512 2.89063C7.26627 2.88919 7.52925 2.98338 7.73783 3.15664C7.94641 3.3299 8.08724 3.57114 8.13556 3.83796C8.18389 4.10477 8.13661 4.38008 8.00205 4.61549C7.86748 4.8509 7.65424 5.03134 7.3998 5.12509C7.30908 5.1589 7.2283 5.21496 7.16488 5.28812C7.10146 5.36128 7.05743 5.44919 7.03682 5.5438C7.01622 5.6384 7.01971 5.73667 7.04697 5.82957C7.07423 5.92248 7.12439 6.00705 7.19284 6.07552L8.43465 7.31734L6.79971 8.95227L5.3596 7.51563C5.25121 7.40721 5.10418 7.34628 4.95087 7.34624Z" fill="#BFCBE3"/>
<path d="M4.04688 17.3438C4.68545 17.3438 5.20312 16.8261 5.20312 16.1875C5.20312 15.5489 4.68545 15.0312 4.04688 15.0312C3.4083 15.0312 2.89062 15.5489 2.89062 16.1875C2.89062 16.8261 3.4083 17.3438 4.04688 17.3438Z" fill="#BFCBE3"/>
<path d="M17.7484 9.01413C17.8025 8.98809 17.8618 8.97457 17.9219 8.97457C17.9819 8.97457 18.0412 8.98809 18.0953 9.01413C18.3999 9.16861 18.7366 9.24941 19.0781 9.25C20.6969 9.25 21.9688 7.47227 21.9688 5.20312C21.9688 2.93398 20.6969 1.15625 19.0781 1.15625C18.7366 1.15684 18.3999 1.23764 18.0953 1.39212C18.0411 1.41784 17.9819 1.43117 17.9219 1.43117C17.8619 1.43117 17.8026 1.41784 17.7484 1.39212C17.444 1.23727 17.1072 1.15656 16.7656 1.15656C16.424 1.15656 16.0873 1.23727 15.7828 1.39212C15.7286 1.41784 15.6694 1.43117 15.6094 1.43117C15.5494 1.43117 15.4901 1.41784 15.4359 1.39212C15.1313 1.23764 14.7947 1.15684 14.4531 1.15625C12.8344 1.15625 11.5625 2.93398 11.5625 5.20312C11.5625 7.47227 12.8344 9.25 14.4531 9.25C14.7947 9.24941 15.1313 9.16861 15.4359 9.01413C15.49 8.98809 15.5493 8.97457 15.6094 8.97457C15.6694 8.97457 15.7287 8.98809 15.7828 9.01413C16.0873 9.16898 16.424 9.24969 16.7656 9.24969C17.1072 9.24969 17.444 9.16898 17.7484 9.01413ZM14.9191 7.97813C14.775 8.05262 14.6154 8.09223 14.4531 8.09375C13.5131 8.09375 12.7188 6.76984 12.7188 5.20312C12.7188 3.63641 13.5131 2.3125 14.4531 2.3125C14.6154 2.31402 14.775 2.35363 14.9191 2.42812C15.1337 2.5345 15.3699 2.58985 15.6094 2.58985C15.8489 2.58985 16.0851 2.5345 16.2997 2.42812C16.4435 2.35319 16.6034 2.31406 16.7656 2.31406C16.9279 2.31406 17.0877 2.35319 17.2316 2.42812C17.4462 2.5345 17.6824 2.58985 17.9219 2.58985C18.1614 2.58985 18.3976 2.5345 18.6122 2.42812C18.7563 2.35363 18.9159 2.31402 19.0781 2.3125C20.0182 2.3125 20.8125 3.63641 20.8125 5.20312C20.8125 6.76984 20.0182 8.09375 19.0781 8.09375C18.9159 8.09223 18.7563 8.05262 18.6122 7.97813C18.3976 7.87166 18.1614 7.81627 17.9219 7.81627C17.6824 7.81627 17.4461 7.87166 17.2316 7.97813C17.0877 8.05306 16.9279 8.09219 16.7656 8.09219C16.6034 8.09219 16.4435 8.05306 16.2997 7.97813C16.0851 7.87175 15.8489 7.8164 15.6094 7.8164C15.3699 7.8164 15.1337 7.87175 14.9191 7.97813Z" fill="#BFCBE3"/>
<path d="M19.0781 3.46875H17.9219V6.9375H19.0781V3.46875Z" fill="#BFCBE3"/>
<path d="M15.6094 3.46875H14.4531V6.9375H15.6094V3.46875Z" fill="#BFCBE3"/>
<path d="M32.375 2.89062H31.4581L32.2056 2.14311L31.3881 1.32564L30.6406 2.07316V1.15625H29.4843V3.09123L27.1493 2.93572C26.3902 2.88519 25.6337 3.06742 24.9809 3.45808C24.328 3.84874 23.8099 4.42924 23.4956 5.12209C23.1813 5.81494 23.0858 6.58717 23.2219 7.3357C23.358 8.08423 23.7192 8.77343 24.2573 9.31131C24.7953 9.84918 25.4847 10.2101 26.2332 10.346C26.9818 10.4818 27.754 10.3861 28.4468 10.0716C29.1395 9.7571 29.7198 9.23876 30.1103 8.58579C30.5007 7.93282 30.6827 7.17629 30.6319 6.41719L30.4741 4.04687H32.375V2.89062ZM28.7906 8.43137C28.5494 8.69126 28.2569 8.89821 27.9316 9.03913C27.6063 9.18005 27.2552 9.25185 26.9007 9.25C26.2157 9.24923 25.559 8.97678 25.0746 8.49242C24.5903 8.00806 24.3178 7.35135 24.3171 6.66636C24.3178 5.98237 24.5895 5.32653 25.0726 4.84233C25.5557 4.35814 26.2109 4.08501 26.8949 4.08272C26.9527 4.08272 27.0105 4.08272 27.0724 4.08908L29.3271 4.23939L29.4774 6.49408C29.5031 6.84694 29.4554 7.2013 29.3372 7.53476C29.2189 7.86822 29.0328 8.17352 28.7906 8.43137Z" fill="#BFCBE3"/>
</svg>
