<svg width="24" height="24" viewBox="0 0 24 24" fill="none" xmlns="http://www.w3.org/2000/svg">
<g clip-path="url(#clip0_4409_3398)">
<path d="M24 10.08V9.6L12 0L0 9.6V10.08H1.68V21.12H0.96V22.56H0V24H24V22.56H23.04V21.12H22.32V10.08H24ZM6 21.12H4.08V10.08H6V21.12ZM10.8 21.12H8.4V10.08H10.8V21.12ZM12 7.68C11.2044 7.68 10.56 7.0356 10.56 6.2406C10.56 5.4444 11.2044 4.8 12 4.8C12.7956 4.8 13.44 5.4444 13.44 6.24C13.4406 7.0356 12.7962 7.68 12 7.68ZM15.1206 21.12H13.2V10.08H15.12L15.1206 21.12ZM19.9206 21.12H17.5206V10.08H19.9206V21.12Z" fill="#7E8872"/>
<path d="M12.96 6.2399C12.96 6.7697 12.5304 7.1999 12 7.1999C11.4696 7.1999 11.04 6.7697 11.04 6.2399C11.04 5.7095 11.4696 5.2793 12 5.2793C12.5304 5.2799 12.96 5.7101 12.96 6.2399Z" fill="#7E8872"/>
</g>
<defs>
<clipPath id="clip0_4409_3398">
<rect width="24" height="24" fill="white"/>
</clipPath>
</defs>
</svg>
