<svg width="24" height="24" viewBox="0 0 24 24" fill="none" xmlns="http://www.w3.org/2000/svg">
<path d="M11.574 11.3036C12.5494 12.3412 13.6195 13.2853 14.7705 14.1239C14.8417 14.1966 14.9266 14.2544 15.0204 14.2938C15.1142 14.3333 15.2149 14.3536 15.3166 14.3536C15.4183 14.3536 15.519 14.3333 15.6128 14.2938C15.7066 14.2544 15.7915 14.1966 15.8627 14.1239C17.0131 13.2853 18.0827 12.3411 19.0575 11.3036C20.0334 10.2804 20.9436 9.19669 21.7829 8.0588C22.5471 7.02659 23.248 5.85619 23.248 4.53263C23.2478 3.72161 23.0072 2.92884 22.5566 2.25453C22.106 1.58022 21.4656 1.05464 20.7163 0.744244C19.967 0.433845 19.1425 0.352557 18.3471 0.510656C17.5516 0.668755 16.8209 1.05914 16.2473 1.63247L15.3166 2.56311L14.386 1.63247C13.8125 1.05873 13.0817 0.667982 12.2861 0.509652C11.4905 0.351322 10.6658 0.432527 9.9164 0.742995C9.16696 1.05346 8.52645 1.57924 8.0759 2.25381C7.62534 2.92838 7.38499 3.72144 7.38525 4.53264C7.38525 5.8562 8.08615 7.02659 8.85032 8.0588C9.68899 9.19667 10.5987 10.2804 11.574 11.3036ZM13.5535 6.81182H14.7356V5.62978C14.7356 5.4759 14.7967 5.32833 14.9055 5.21952C15.0143 5.11071 15.1619 5.04958 15.3158 5.04958C15.4697 5.04958 15.6172 5.11071 15.726 5.21952C15.8348 5.32833 15.896 5.4759 15.896 5.62978V6.81182H17.078C17.2319 6.81182 17.3795 6.87295 17.4883 6.98176C17.5971 7.09057 17.6582 7.23815 17.6582 7.39203C17.6582 7.54591 17.5971 7.69348 17.4883 7.80229C17.3795 7.9111 17.2319 7.97223 17.078 7.97223H15.896V9.15427C15.896 9.30815 15.8348 9.45573 15.726 9.56454C15.6172 9.67335 15.4697 9.73448 15.3158 9.73448C15.1619 9.73448 15.0143 9.67335 14.9055 9.56454C14.7967 9.45573 14.7356 9.30815 14.7356 9.15427V7.97223H13.5535C13.3996 7.97223 13.2521 7.9111 13.1433 7.80229C13.0345 7.69348 12.9733 7.54591 12.9733 7.39203C12.9733 7.23815 13.0345 7.09057 13.1433 6.98176C13.2521 6.87295 13.3996 6.81182 13.5535 6.81182Z" fill="#7E8872"/>
<path d="M21.7248 15.9141L14.9065 18.7762L14.2989 18.9518C14.0829 19.0143 13.8606 19.0522 13.6361 19.0646C13.1489 19.0909 12.4393 19.105 12.3163 19.1133H8.31194C8.24664 19.1132 8.18334 19.0908 8.13247 19.0499C8.082 19.0194 8.04014 18.9766 8.01086 18.9254C7.98158 18.8743 7.96585 18.8165 7.96517 18.7576C7.96812 18.662 8.00886 18.5716 8.07845 18.5061C8.14804 18.4406 8.24078 18.4054 8.3363 18.4082H12.8739C13.1529 18.4083 13.4223 18.306 13.6309 18.1208C13.8396 17.9356 13.973 17.6802 14.0059 17.4031C14.0116 17.3583 14.0144 17.3131 14.0143 17.2679C14.0143 17.0037 13.9227 16.7476 13.7549 16.5435C13.5871 16.3393 13.3537 16.1998 13.0944 16.1487C10.5612 15.6506 8.05362 15.052 5.45245 15.2199C5.35118 15.2263 4.43839 15.2635 3.95508 15.3077V22.044L3.98008 22.6061C4.8833 22.7162 10.9822 23.4623 11.0819 23.48C12.0494 23.6518 13.0164 23.6058 13.9383 23.0563C13.9427 23.0535 13.9472 23.051 13.9518 23.0487C13.9518 23.0487 20.0698 19.596 22.7504 17.8454C22.9796 17.6955 23.1445 17.4653 23.2127 17.2C23.2809 16.9348 23.2475 16.6536 23.1191 16.4117C22.9906 16.1698 22.7764 15.9846 22.5184 15.8926C22.2605 15.8005 21.9774 15.8082 21.7248 15.9141Z" fill="white"/>
<path d="M3.21067 14.522H0.751953V22.6112H3.21067V14.522Z" fill="#7E8872"/>
</svg>
