<svg width="22" height="22" viewBox="0 0 22 22" fill="none" xmlns="http://www.w3.org/2000/svg">
<g clip-path="url(#clip0_1_6365)">
<path d="M19.25 11.3887V10.0833C19.25 7.89531 18.3808 5.79689 16.8336 4.24971C15.2864 2.70254 13.188 1.83334 11 1.83334C8.81194 1.83334 6.71352 2.70254 5.16634 4.24971C3.61917 5.79689 2.74997 7.89531 2.74997 10.0833V11.3887C1.78854 11.812 1.00171 12.5528 0.521212 13.487C0.0407142 14.4212 -0.104286 15.4921 0.110486 16.5204C0.325258 17.5487 0.886765 18.4721 1.70101 19.1358C2.51525 19.7996 3.5328 20.1635 4.58331 20.1667H6.41664V11H4.58331V10.0833C4.58331 8.38154 5.25935 6.74943 6.46271 5.54607C7.66606 4.34272 9.29817 3.66668 11 3.66668C12.7018 3.66668 14.3339 4.34272 15.5372 5.54607C16.7406 6.74943 17.4166 8.38154 17.4166 10.0833V11H15.5833V18.3333H11.9166V20.1667H17.4166C18.4672 20.1635 19.4847 19.7996 20.2989 19.1358C21.1132 18.4721 21.6747 17.5487 21.8895 16.5204C22.1042 15.4921 21.9592 14.4212 21.4787 13.487C20.9982 12.5528 20.2114 11.812 19.25 11.3887ZM4.58331 18.3333C3.85396 18.3333 3.15449 18.0436 2.63876 17.5279C2.12304 17.0122 1.83331 16.3127 1.83331 15.5833C1.83331 14.854 2.12304 14.1545 2.63876 13.6388C3.15449 13.1231 3.85396 12.8333 4.58331 12.8333V18.3333ZM17.4166 18.3333V12.8333C18.146 12.8333 18.8455 13.1231 19.3612 13.6388C19.8769 14.1545 20.1666 14.854 20.1666 15.5833C20.1666 16.3127 19.8769 17.0122 19.3612 17.5279C18.8455 18.0436 18.146 18.3333 17.4166 18.3333Z" fill="#FF8C33"/>
</g>
<defs>
<clipPath id="clip0_1_6365">
<rect width="22" height="22" fill="white"/>
</clipPath>
</defs>
</svg>
