<svg width="37" height="37" viewBox="0 0 37 37" fill="none" xmlns="http://www.w3.org/2000/svg">
<path d="M34.7102 6.4857C35.698 5.49797 35.698 3.89649 34.7102 2.90876C33.7224 1.92104 32.121 1.92104 31.1332 2.90876L20.3115 13.7304H27.4654L34.7102 6.4857Z" stroke="#BFCBE3" stroke-width="2" stroke-miterlimit="10" stroke-linecap="round" stroke-linejoin="round"/>
<path d="M18.0664 31.0741C15.7491 31.0741 13.5479 30.5779 11.5625 29.6868V35.4101H25.293V29.9897C23.5011 30.6895 21.5514 31.0741 19.5117 31.0741H18.0664Z" stroke="#BFCBE3" stroke-width="2" stroke-miterlimit="10" stroke-linecap="round" stroke-linejoin="round"/>
<path d="M35.4102 15.1758V13.7305H27.4653H20.3115H2.16797V15.1758C2.16797 16.4188 2.31113 17.6283 2.58097 18.7891H34.9972C35.2671 17.6283 35.4102 16.4188 35.4102 15.1758Z" stroke="#BFCBE3" stroke-width="2" stroke-miterlimit="10" stroke-linecap="round" stroke-linejoin="round"/>
<path d="M2.58105 18.7891C3.71425 23.6644 7.08992 27.6791 11.5626 29.6869C13.548 30.578 15.7492 31.0742 18.0665 31.0742H19.5118C21.5515 31.0742 23.5012 30.6896 25.2931 29.9898C30.1229 28.1035 33.8039 23.9236 34.9973 18.7891H2.58105Z" stroke="#BFCBE3" stroke-width="2" stroke-miterlimit="10" stroke-linecap="round" stroke-linejoin="round"/>
<path d="M6.67808 8.48041C7.68698 9.48931 9.22472 9.64699 10.3989 8.95346L6.20496 4.75952C5.51157 5.93377 5.66918 7.47151 6.67808 8.48041Z" stroke="#BFCBE3" stroke-width="2" stroke-miterlimit="10" stroke-linecap="round" stroke-linejoin="round"/>
<path d="M9.92604 5.23273C10.9349 6.24163 11.0926 7.77937 10.3991 8.95362L6.20508 4.75968C7.37932 4.06622 8.91713 4.2239 9.92604 5.23273Z" stroke="#BFCBE3" stroke-width="2" stroke-miterlimit="10" stroke-linecap="round" stroke-linejoin="round"/>
<path d="M14.6273 9.2204C15.6362 10.2292 17.1739 10.387 18.3481 9.69345L14.1542 5.49951C13.4608 6.67376 13.6184 8.2115 14.6273 9.2204Z" stroke="#BFCBE3" stroke-width="2" stroke-miterlimit="10" stroke-linecap="round" stroke-linejoin="round"/>
<path d="M17.8751 5.97251C18.884 6.98141 19.0417 8.51915 18.3482 9.69339L14.1543 5.49946C15.3284 4.80592 16.8662 4.96368 17.8751 5.97251Z" stroke="#BFCBE3" stroke-width="2" stroke-miterlimit="10" stroke-linecap="round" stroke-linejoin="round"/>
</svg>
