<svg width="24" height="24" viewBox="0 0 24 24" fill="none" xmlns="http://www.w3.org/2000/svg">
<path d="M1.66909 15.0217C1.43672 16.5425 2.47418 17.5974 3.74399 18.1232C8.61272 20.1414 15.3873 20.1414 20.256 18.1232C21.5258 17.5974 22.5633 16.5414 22.3309 15.0217C22.1891 14.0868 21.4833 13.309 20.9607 12.5486C20.2767 11.5406 20.2091 10.4421 20.208 9.27264C20.2091 4.75409 16.5349 1.09082 12 1.09082C7.46509 1.09082 3.7909 4.75409 3.7909 9.27264C3.7909 10.4421 3.72327 11.5417 3.03818 12.5486C2.51672 13.309 1.81199 14.0868 1.66909 15.0217Z" stroke="#E1EAFB" stroke-width="1.5" stroke-linecap="round" stroke-linejoin="round"/>
<path d="M7.63635 19.6362C8.13599 21.518 9.90108 22.909 12 22.909C14.1 22.909 15.8629 21.518 16.3636 19.6362" stroke="#E1EAFB" stroke-width="1.5" stroke-linecap="round" stroke-linejoin="round"/>
</svg>
