<svg width="24" height="24" viewBox="0 0 24 24" fill="none" xmlns="http://www.w3.org/2000/svg">
<path d="M21.062 6.72902C21.027 6.65402 20.974 6.59002 20.908 6.54102C20.734 6.41202 20.519 6.25302 20.272 6.07202V3.11402C20.272 2.83802 20.048 2.61402 19.772 2.61402C19.496 2.61402 19.272 2.83802 19.272 3.11402V5.34502C16.835 3.59302 13.051 0.999023 12 0.999023C10.636 0.999023 4.836 5.24102 3.091 6.54102C3.025 6.59102 2.971 6.65602 2.936 6.73202C2.889 6.83502 1.771 9.31202 1.771 14.459C1.771 16.708 1.98 20.034 2.219 21.576C2.248 21.766 2.384 21.922 2.569 21.978C2.707 22.02 6.011 22.999 12.001 22.999C17.991 22.999 21.293 22.019 21.43 21.978C21.615 21.922 21.75 21.766 21.78 21.576C22.02 20.031 22.231 16.705 22.231 14.459C22.231 9.26802 21.112 6.83002 21.064 6.72902H21.062ZM9.251 21.925V17.125C9.251 15.55 10.483 14.269 11.999 14.269C13.515 14.269 14.747 15.55 14.747 17.125V21.925C13.907 21.972 12.99 22 11.999 22C11.008 22 10.091 21.972 9.251 21.925ZM20.835 21.102C20.17 21.269 18.426 21.651 15.747 21.859V17.126C15.747 15 14.065 13.27 11.999 13.27C9.933 13.27 8.251 15 8.251 17.126V21.859C5.571 21.651 3.826 21.268 3.16 21.102C2.947 19.495 2.769 16.521 2.769 14.459C2.769 10.147 3.592 7.78102 3.797 7.26102C7.283 4.67002 11.276 2.01202 11.997 2.00002C12.716 2.01902 16.71 4.67602 20.201 7.26302C20.405 7.77602 21.227 10.113 21.227 14.46C21.227 16.481 21.044 19.506 20.833 21.103L20.835 21.102Z" fill="#BFCBE3"/>
</svg>
