<svg width="22" height="22" viewBox="0 0 22 22" fill="none" xmlns="http://www.w3.org/2000/svg">
<path d="M17.4166 7.722V6.41667C17.4166 4.71486 16.7405 3.08276 15.5372 1.8794C14.3338 0.67604 12.7017 0 10.9999 0C9.29811 0 7.66601 0.67604 6.46265 1.8794C5.25929 3.08276 4.58325 4.71486 4.58325 6.41667V7.722C3.76683 8.07831 3.07194 8.66481 2.58354 9.40978C2.09515 10.1547 1.83442 11.0259 1.83325 11.9167V17.4167C1.83471 18.6318 2.31806 19.7967 3.17729 20.656C4.03651 21.5152 5.20146 21.9985 6.41659 22H15.5833C16.7984 21.9985 17.9633 21.5152 18.8226 20.656C19.6818 19.7967 20.1651 18.6318 20.1666 17.4167V11.9167C20.1654 11.0259 19.9047 10.1547 19.4163 9.40978C18.9279 8.66481 18.233 8.07831 17.4166 7.722ZM6.41659 6.41667C6.41659 5.20109 6.89947 4.0353 7.75901 3.17576C8.61855 2.31622 9.78434 1.83333 10.9999 1.83333C12.2155 1.83333 13.3813 2.31622 14.2408 3.17576C15.1004 4.0353 15.5833 5.20109 15.5833 6.41667V7.33333H6.41659V6.41667ZM18.3333 17.4167C18.3333 18.146 18.0435 18.8455 17.5278 19.3612C17.0121 19.8769 16.3126 20.1667 15.5833 20.1667H6.41659C5.68724 20.1667 4.98777 19.8769 4.47204 19.3612C3.95632 18.8455 3.66659 18.146 3.66659 17.4167V11.9167C3.66659 11.1873 3.95632 10.4878 4.47204 9.97212C4.98777 9.4564 5.68724 9.16667 6.41659 9.16667H15.5833C16.3126 9.16667 17.0121 9.4564 17.5278 9.97212C18.0435 10.4878 18.3333 11.1873 18.3333 11.9167V17.4167Z" fill="#FF6F00"/>
<path d="M10.9999 12.833C10.7568 12.833 10.5236 12.9296 10.3517 13.1015C10.1798 13.2734 10.0833 13.5066 10.0833 13.7497V15.583C10.0833 15.8261 10.1798 16.0593 10.3517 16.2312C10.5236 16.4031 10.7568 16.4997 10.9999 16.4997C11.243 16.4997 11.4762 16.4031 11.6481 16.2312C11.82 16.0593 11.9166 15.8261 11.9166 15.583V13.7497C11.9166 13.5066 11.82 13.2734 11.6481 13.1015C11.4762 12.9296 11.243 12.833 10.9999 12.833Z" fill="#FF6F00"/>
</svg>
