<svg width="32" height="32" viewBox="0 0 32 32" fill="none" xmlns="http://www.w3.org/2000/svg">
<g clip-path="url(#clip0_5042_13109)">
<path d="M28 5.33333V3.33333C28 1.49467 26.504 0 24.6667 0H3.33333C1.496 0 0 1.49467 0 3.33333V8.66667C0 10.5053 1.496 12 3.33333 12H24.6667C26.504 12 28 10.5053 28 8.66667V6.66667C29.4707 6.66667 30.6667 7.86267 30.6667 9.33333V12C30.6667 13.4707 29.4707 14.6667 28 14.6667H18C15.4267 14.6667 13.3333 16.76 13.3333 19.3333V20.0667C11.8133 20.376 10.6667 21.7227 10.6667 23.3333V28.6667C10.6667 30.5053 12.1627 32 14 32C15.8373 32 17.3333 30.5053 17.3333 28.6667V23.3333C17.3333 21.7227 16.1867 20.3773 14.6667 20.0667V19.3333C14.6667 17.4947 16.1627 16 18 16H28C30.2053 16 32 14.2053 32 12V9.33333C32 7.128 30.2053 5.33333 28 5.33333ZM26.6667 8.66667C26.6667 9.76933 25.7693 10.6667 24.6667 10.6667H3.33333C2.23067 10.6667 1.33333 9.76933 1.33333 8.66667V3.33333C1.33333 2.23067 2.23067 1.33333 3.33333 1.33333H24.6667C25.7693 1.33333 26.6667 2.23067 26.6667 3.33333V8.66667ZM16 23.3333V28.6667C16 29.7693 15.1027 30.6667 14 30.6667C12.8973 30.6667 12 29.7693 12 28.6667V23.3333C12 22.2307 12.8973 21.3333 14 21.3333C15.1027 21.3333 16 22.2307 16 23.3333Z" fill="#BFCBE3"/>
</g>
<defs>
<clipPath id="clip0_5042_13109">
<rect width="32" height="32" fill="white"/>
</clipPath>
</defs>
</svg>
