<svg width="22" height="22" viewBox="0 0 22 22" fill="none" xmlns="http://www.w3.org/2000/svg">
<g clip-path="url(#clip0_1_6690)">
<path d="M13.0625 10.692L9.16667 14.5878C8.82475 14.9288 8.35267 15.125 7.8705 15.125H7.33333V14.5878C7.33333 14.0983 7.524 13.6382 7.8705 13.2917L11.7663 9.39583L13.0625 10.692ZM14.0186 7.14358L13.0625 8.09967L14.3587 9.39583L15.3148 8.43975C15.6723 8.08225 15.6723 7.50108 15.3148 7.14358C14.9683 6.79617 14.3642 6.79617 14.0186 7.14358ZM22 4.58333V17.4167C22 19.9439 19.9439 22 17.4167 22H4.58333C2.05608 22 0 19.9439 0 17.4167V4.58333C0 2.05608 2.05608 0 4.58333 0H17.4167C19.9439 0 22 2.05608 22 4.58333ZM16.6118 5.84742C15.5723 4.80883 13.761 4.80883 12.7224 5.84742L6.57433 11.9955C5.88225 12.6876 5.5 13.6088 5.5 14.5878V16.0417C5.5 16.5486 5.91067 16.9583 6.41667 16.9583H7.8705C8.8495 16.9583 9.77075 16.577 10.4628 15.884L16.6109 9.73592C17.6834 8.66342 17.6843 6.91992 16.6118 5.84742Z" fill="#FF8C33"/>
</g>
<defs>
<clipPath id="clip0_1_6690">
<rect width="22" height="22" fill="white"/>
</clipPath>
</defs>
</svg>
