<svg width="32" height="32" viewBox="0 0 32 32" fill="none" xmlns="http://www.w3.org/2000/svg">
<g clip-path="url(#clip0_4332_2169)">
<path d="M16 16C20.412 16 24 12.412 24 8C24 3.588 20.412 0 16 0C11.588 0 7.99996 3.588 7.99996 8C7.99996 12.412 11.588 16 16 16ZM16 2.66667C18.9413 2.66667 21.3333 5.05867 21.3333 8C21.3333 10.9413 18.9413 13.3333 16 13.3333C13.0586 13.3333 10.6666 10.9413 10.6666 8C10.6666 5.05867 13.0586 2.66667 16 2.66667ZM29.3333 30.6667C29.3333 31.404 28.7373 32 28 32C27.2626 32 26.6666 31.404 26.6666 30.6667C26.6666 26.952 24.484 23.736 21.3333 22.2347V25.5627C22.8853 26.1133 24 27.5947 24 29.3333V30.6667C24 31.404 23.404 32 22.6666 32C21.9293 32 21.3333 31.404 21.3333 30.6667V29.3333C21.3333 28.5973 20.736 28 20 28C19.264 28 18.6666 28.5973 18.6666 29.3333V30.6667C18.6666 31.404 18.0706 32 17.3333 32C16.596 32 16 31.404 16 30.6667V29.3333C16 27.5947 17.1146 26.1133 18.6666 25.5627V21.4293C18.2306 21.3667 17.7853 21.3333 17.3333 21.3333H14.6666C13.74 21.3333 12.8453 21.4693 12 21.7227V25.692C12.7973 26.1533 13.3333 27.0147 13.3333 28.0013C13.3333 29.4747 12.14 30.668 10.6666 30.668C9.19329 30.668 7.99996 29.4747 7.99996 28.0013C7.99996 27.0147 8.53596 26.1533 9.33329 25.692V23.0133C6.91729 24.7027 5.33329 27.504 5.33329 30.668C5.33329 31.4053 4.73729 32.0013 3.99996 32.0013C3.26263 32.0013 2.66663 31.4053 2.66663 30.668C2.66663 24.0507 8.04929 18.668 14.6666 18.668H17.3333C23.9506 18.668 29.3333 24.0493 29.3333 30.6667Z" fill="#BFCBE3"/>
</g>
<defs>
<clipPath id="clip0_4332_2169">
<rect width="32" height="32" fill="white"/>
</clipPath>
</defs>
</svg>
