<svg width="32" height="32" viewBox="0 0 32 32" fill="none" xmlns="http://www.w3.org/2000/svg">
<g clip-path="url(#clip0_5042_13143)">
<path d="M12.668 20.6667H17.3347V22H12.668V26.6667H11.3347V22H6.668V20.6667H11.3347V16H12.668V20.6667ZM30.7213 24.7947L24.796 30.72C23.944 31.572 22.824 31.9973 21.7053 31.9973C20.5867 31.9973 19.4667 31.572 18.616 30.72C16.912 29.016 16.912 26.2427 18.616 24.5387L24.5413 18.6133C26.2427 16.912 29.0173 16.9093 30.7227 18.6133C32.4267 20.3173 32.4253 23.0907 30.7213 24.7947ZM26.4253 27.204L22.1293 22.908L19.556 25.4813C18.9813 26.0547 18.6667 26.8173 18.6667 27.6293C18.6667 28.4413 18.9813 29.204 19.556 29.7773C20.7427 30.9613 22.668 30.96 23.852 29.7773L26.4253 27.204ZM30.668 21.704C30.668 20.8933 30.3533 20.1293 29.7787 19.556C29.1867 18.964 28.4093 18.668 27.632 18.668C26.8547 18.668 26.076 18.964 25.484 19.556L23.0747 21.9653L27.3707 26.2613L29.78 23.852C30.3547 23.2787 30.6693 22.516 30.6693 21.704H30.668ZM15.3827 30.6667C15.6107 31.1413 15.896 31.584 16.2307 32H0V14C0 12.1627 1.496 10.6667 3.33467 10.6667H6.668V6.66667H4.00133V3.33333C4.00133 1.496 5.49733 0 7.33467 0H16.668C18.5067 0 20.0013 1.496 20.0013 3.33333V6.66667H17.2893L17.328 10.6667H20.668C22.5067 10.6667 24.0013 12.1627 24.0013 14V15.6987C23.5293 15.984 23.076 16.3107 22.668 16.7173V14C22.668 12.8973 21.7707 12 20.668 12H16.008L15.956 6.66667H8.00133V12H3.33467C2.232 12 1.33467 12.8973 1.33467 14V30.6667H15.384H15.3827ZM5.33467 5.33333H18.668V3.33333C18.668 2.23067 17.7707 1.33333 16.668 1.33333H7.33467C6.232 1.33333 5.33467 2.23067 5.33467 3.33333V5.33333Z" fill="#BFCBE3"/>
</g>
<defs>
<clipPath id="clip0_5042_13143">
<rect width="32" height="32" fill="white"/>
</clipPath>
</defs>
</svg>
