<svg width="37" height="37" viewBox="0 0 37 37" fill="none" xmlns="http://www.w3.org/2000/svg">
<path d="M14.915 1.20001C14.9798 1.19919 15.0446 1.19837 15.1114 1.19753C15.1824 1.19774 15.2533 1.19795 15.3265 1.19817C15.4388 1.19725 15.4388 1.19725 15.5533 1.19632C15.8015 1.19462 16.0496 1.19455 16.2977 1.19464C16.4699 1.19413 16.6421 1.19357 16.8143 1.19298C17.1755 1.192 17.5367 1.19189 17.8979 1.19231C18.361 1.19274 18.8241 1.19053 19.2872 1.18761C19.6429 1.18574 19.9986 1.18553 20.3544 1.18579C20.5251 1.18567 20.6959 1.18497 20.8666 1.18369C21.1054 1.18209 21.344 1.18278 21.5828 1.18406C21.6535 1.1831 21.7241 1.18214 21.7969 1.18115C22.1266 1.18525 22.2799 1.18997 22.548 1.39551C22.6598 1.54686 22.7613 1.68489 22.8442 1.85297C22.8685 1.90144 22.8928 1.9499 22.9179 1.99983C22.9551 2.07663 22.9551 2.07663 22.993 2.15499C23.0196 2.2085 23.0462 2.26201 23.0736 2.31714C23.1577 2.4869 23.2408 2.65714 23.3238 2.82739C23.3807 2.94232 23.4376 3.05721 23.4946 3.17207C24.0015 4.19782 24.0015 4.19782 24.0005 4.68631C24.0005 4.77432 24.0005 4.86232 24.0005 4.95299C24.0001 5.0455 23.9997 5.13802 23.9994 5.23333C23.9993 5.31835 23.9992 5.40337 23.9991 5.49096C23.9988 5.80904 23.9977 6.12712 23.9968 6.44519C23.9953 7.15615 23.9938 7.86711 23.9923 8.59961C25.5424 8.59961 27.0925 8.59961 28.6896 8.59961C28.4511 8.00342 28.2126 7.40723 27.9669 6.79297C27.5627 5.43589 27.5855 4.40259 28.25 3.1365C28.8948 2.08288 29.785 1.55445 30.9623 1.2559C32.049 1.09447 33.1069 1.28799 34.0372 1.87891C34.9502 2.55666 35.5917 3.48829 35.7716 4.625C35.8891 6.33172 35.1314 8.50133 34.107 9.88169C33.875 10.2914 33.9255 10.7547 33.9289 11.2118C33.9286 11.3167 33.9282 11.4216 33.9277 11.5265C33.9267 11.8142 33.9274 12.1018 33.9285 12.3894C33.9293 12.6999 33.9284 13.0103 33.9277 13.3208C33.9268 13.8585 33.9269 14.3962 33.9276 14.9339C33.9287 15.7115 33.928 16.4892 33.9268 17.2668C33.9249 18.5288 33.9241 19.7909 33.9242 21.0529C33.9242 21.1284 33.9242 21.2039 33.9242 21.2817C33.9242 21.5877 33.9242 21.8938 33.9243 22.1998C33.9243 23.0428 33.9242 23.8859 33.924 24.7289C33.924 24.8044 33.924 24.8799 33.924 24.9577C33.9237 26.2154 33.9225 27.4731 33.9208 28.7308C33.9198 29.5068 33.9195 30.2829 33.9204 31.0589C33.9209 31.5902 33.9207 32.1214 33.9199 32.6526C33.9194 32.9594 33.9194 33.2662 33.9202 33.573C33.921 33.8536 33.9208 34.1341 33.9198 34.4146C33.9197 34.5164 33.9198 34.6182 33.9204 34.7199C33.9212 34.8577 33.9205 34.9955 33.9197 35.1333C33.9197 35.21 33.9197 35.2867 33.9197 35.3657C33.8927 35.5547 33.8927 35.5547 33.8139 35.6877C33.602 35.8163 33.4211 35.7987 33.1747 35.7988C33.1231 35.7991 33.0716 35.7994 33.0185 35.7997C32.8444 35.8005 32.6704 35.7998 32.4963 35.799C32.3707 35.7993 32.2452 35.7996 32.1197 35.8C31.7737 35.8009 31.4278 35.8005 31.0818 35.7998C30.7091 35.7993 30.3364 35.8001 29.9637 35.8007C29.2331 35.8017 28.5026 35.8014 27.772 35.8008C27.1785 35.8003 26.5849 35.8003 25.9914 35.8005C25.9071 35.8005 25.8227 35.8006 25.7358 35.8006C25.5645 35.8007 25.3932 35.8007 25.2219 35.8008C23.6138 35.8014 22.0058 35.8007 20.3978 35.7996C19.0169 35.7986 17.6359 35.7988 16.255 35.7997C14.6529 35.8009 13.0508 35.8014 11.4487 35.8007C11.2779 35.8006 11.1072 35.8006 10.9365 35.8005C10.8105 35.8004 10.8105 35.8004 10.682 35.8004C10.0889 35.8002 9.49581 35.8005 8.90273 35.801C8.18035 35.8016 7.45797 35.8015 6.73559 35.8003C6.36674 35.7998 5.9979 35.7995 5.62905 35.8002C5.29179 35.8009 4.95455 35.8005 4.6173 35.7994C4.4949 35.7991 4.37249 35.7993 4.25009 35.7998C4.08447 35.8004 3.9189 35.7998 3.75327 35.7988C3.66105 35.7987 3.56883 35.7987 3.47382 35.7987C3.25206 35.7715 3.25206 35.7715 3.11404 35.6891C2.9991 35.493 3.00808 35.3378 3.00798 35.111C3.00742 35.0176 3.00685 34.9242 3.00627 34.8279C3.00674 34.7236 3.00723 34.6193 3.00774 34.515C3.00749 34.4047 3.00714 34.2943 3.00671 34.184C3.0058 33.8801 3.00626 33.5761 3.00693 33.2722C3.00741 32.9447 3.00666 32.6172 3.00606 32.2897C3.0051 31.6478 3.00531 31.006 3.00594 30.3641C3.00643 29.8426 3.00649 29.3211 3.00626 28.7996C3.00622 28.7255 3.00619 28.6514 3.00615 28.5751C3.00609 28.4245 3.00602 28.274 3.00594 28.1234C3.00533 26.7105 3.00604 25.2976 3.0072 23.8846C3.00817 22.6713 3.008 21.458 3.007 20.2447C3.00584 18.8369 3.00538 17.4292 3.00605 16.0215C3.00612 15.8715 3.00619 15.7215 3.00626 15.5714C3.00629 15.4976 3.00632 15.4238 3.00636 15.3478C3.00654 14.8267 3.00623 14.3056 3.00572 13.7845C3.00511 13.1498 3.00527 12.5151 3.00643 11.8804C3.007 11.5563 3.00722 11.2323 3.00651 10.9082C3.00586 10.6119 3.00621 10.3156 3.00737 10.0192C3.00761 9.91171 3.00748 9.80419 3.00696 9.69667C3.00631 9.55113 3.0071 9.40559 3.00798 9.26006C3.00802 9.17904 3.00805 9.09801 3.00809 9.01453C3.03527 8.81641 3.03527 8.81641 3.13418 8.68195C3.30669 8.56146 3.43946 8.57296 3.6485 8.57354C3.73089 8.57324 3.81328 8.57294 3.89816 8.57264C3.9886 8.57342 4.07905 8.5742 4.17223 8.575C4.26742 8.57497 4.36261 8.57494 4.46068 8.5749C4.7218 8.57484 4.98291 8.57612 5.24404 8.57763C5.51689 8.57898 5.78973 8.57911 6.06259 8.57937C6.57932 8.58004 7.09604 8.58182 7.61277 8.584C8.20102 8.58642 8.78928 8.58761 9.37753 8.5887C10.5877 8.59097 11.7978 8.59478 13.0079 8.59961C13.0057 8.52222 13.0057 8.52222 13.0034 8.44326C12.9897 7.94889 12.9796 7.45456 12.9731 6.96005C12.9696 6.706 12.9649 6.4521 12.9572 6.19814C12.9023 4.35708 13.2868 2.78009 14.479 1.32578C14.6325 1.2001 14.718 1.20096 14.915 1.20001ZM15.2482 2.38477C15.1275 2.61198 15.0071 2.83936 14.8868 3.06677C14.8524 3.13166 14.8179 3.19654 14.7824 3.26339C14.7498 3.3251 14.7172 3.38682 14.6836 3.4504C14.6382 3.53612 14.6382 3.53612 14.5918 3.62357C14.5202 3.74365 14.5202 3.74365 14.5255 3.83008C17.1487 3.83008 19.772 3.83008 22.4747 3.83008C22.1885 3.05447 22.1885 3.05447 21.7521 2.38477C21.5497 2.37789 21.3492 2.37569 21.1468 2.37656C21.0834 2.37655 21.0199 2.37654 20.9546 2.37653C20.7438 2.37658 20.533 2.37714 20.3223 2.37771C20.1766 2.37784 20.0308 2.37795 19.8851 2.37802C19.5008 2.3783 19.1165 2.37901 18.7321 2.37981C18.3403 2.38054 17.9484 2.38087 17.5566 2.38124C16.7871 2.38201 16.0176 2.38325 15.2482 2.38477ZM29.5297 3.35132C29.0478 3.93125 28.7867 4.5883 28.8076 5.34794C28.9254 6.30957 29.3544 7.19908 29.7642 8.06503C29.8396 8.22509 29.9131 8.38584 29.9858 8.54711C30.457 9.58315 31.0129 10.5765 31.5802 11.5625C31.6756 11.5625 31.771 11.5625 31.8693 11.5625C33.4248 8.84229 33.4248 8.84229 34.5431 5.92578C34.5575 5.87622 34.572 5.82667 34.5868 5.77561C34.7497 4.98202 34.5204 4.23644 34.094 3.56896C33.6398 2.96176 32.9825 2.52602 32.2306 2.38477C31.1734 2.31028 30.2673 2.559 29.5297 3.35132ZM14.1642 4.98633C14.1642 6.17871 14.1642 7.3711 14.1642 8.59961C14.6411 8.59961 15.1181 8.59961 15.6095 8.59961C15.6095 7.40723 15.6095 6.21485 15.6095 4.98633C15.1325 4.98633 14.6556 4.98633 14.1642 4.98633ZM16.7657 4.98633C16.7657 6.17871 16.7657 7.3711 16.7657 8.59961C17.9104 8.59961 19.0551 8.59961 20.2345 8.59961C20.2345 7.40723 20.2345 6.21485 20.2345 4.98633C19.0898 4.98633 17.9451 4.98633 16.7657 4.98633ZM21.3907 4.98633C21.3907 6.17871 21.3907 7.3711 21.3907 8.59961C21.8677 8.59961 22.3446 8.59961 22.836 8.59961C22.836 7.40723 22.836 6.21485 22.836 4.98633C22.3591 4.98633 21.8821 4.98633 21.3907 4.98633ZM4.11925 9.6836C4.11925 17.9349 4.11925 26.1862 4.11925 34.6875C13.5868 34.6875 23.0543 34.6875 32.8087 34.6875C32.8087 27.2947 32.8087 19.902 32.8087 12.2852C32.6179 12.4044 32.4271 12.5236 32.2306 12.6465C31.7846 12.7598 31.4115 12.7239 31.0021 12.502C30.603 12.1839 30.4079 11.742 30.1755 11.296C30.096 11.1451 30.0163 10.9943 29.9364 10.8435C29.8842 10.7437 29.8842 10.7437 29.831 10.6418C29.7668 10.5252 29.7668 10.5252 29.7013 10.4063C29.6775 10.3475 29.6537 10.2888 29.6292 10.2282C29.5285 10.0124 29.4339 9.85504 29.2677 9.6836C28.9358 9.57578 28.6061 9.58895 28.2608 9.59669C28.1567 9.59638 28.0526 9.59574 27.9485 9.59482C27.6627 9.59321 27.377 9.59609 27.0912 9.59972C26.783 9.60284 26.4747 9.60178 26.1664 9.60124C25.6324 9.60086 25.0985 9.60312 24.5645 9.60719C23.7924 9.61306 23.0204 9.61494 22.2483 9.61585C20.9956 9.61743 19.743 9.62224 18.4904 9.62908C17.2736 9.63571 16.0568 9.64082 14.84 9.6439C14.7642 9.64409 14.6885 9.64429 14.6104 9.64449C14.0178 9.64599 13.4253 9.6474 12.8327 9.64879C9.92819 9.65561 7.02376 9.67014 4.11925 9.6836Z" fill="#BFCBE3"/>
<path d="M20.7403 12.7911C20.7905 12.8027 20.8407 12.8143 20.8924 12.8263C23.4011 13.4307 25.4556 15.0793 26.8265 17.2306C28.0502 19.2663 28.4824 21.8808 27.9737 24.2079C27.948 24.3048 27.9216 24.4015 27.8946 24.4981C27.8787 24.5559 27.8628 24.6137 27.8464 24.6732C27.1316 27.1826 25.5459 29.277 23.2723 30.5773C22.225 31.1529 21.1264 31.5391 19.9454 31.7247C19.8861 31.7342 19.8267 31.7437 19.7656 31.7534C17.3553 32.0615 14.7667 31.425 12.8112 29.9699C12.5279 29.7485 12.2601 29.5117 11.9962 29.2676C11.9402 29.2163 11.9402 29.2163 11.883 29.164C10.0585 27.4767 9.03663 25.1241 8.8978 22.6553C8.80091 20.1371 9.62345 17.6322 11.3298 15.7572C13.7424 13.1729 17.2531 11.9689 20.7403 12.7911ZM12.0469 16.6969C10.5902 18.3676 9.932 20.6211 10.0603 22.8114C10.2469 25.1063 11.3483 27.1837 13.0802 28.6895C14.8047 30.1252 17.09 30.8258 19.3202 30.6254C21.0318 30.4396 22.5939 29.7888 23.92 28.6895C23.9813 28.6392 24.0426 28.5889 24.1058 28.5371C25.6996 27.1681 26.6554 25.268 26.9552 23.1973C27.0938 20.6183 26.4903 18.3747 24.7559 16.4329C23.3271 14.8681 21.2962 13.8473 19.1715 13.7187C16.3591 13.6039 13.9522 14.6275 12.0469 16.6969Z" fill="#BFCBE3"/>
<path d="M22.4023 17.1991C22.4529 17.2386 22.5035 17.2781 22.5556 17.3188C23.8147 18.3488 24.4294 19.9291 24.59 21.513C24.5925 21.571 24.5949 21.6289 24.5974 21.6886C24.6027 21.7761 24.6027 21.7761 24.6081 21.8653C24.5512 22.1295 24.4139 22.2318 24.209 22.4023C23.9904 22.4477 23.9904 22.4477 23.7422 22.4481C23.6007 22.4497 23.6007 22.4497 23.4564 22.4512C23.3523 22.4505 23.2483 22.4498 23.1443 22.449C23.0344 22.4495 22.9244 22.4501 22.8145 22.4509C22.5163 22.4526 22.2182 22.4519 21.92 22.4508C21.6079 22.4499 21.2959 22.4507 20.9838 22.4513C20.4598 22.4519 19.9359 22.4511 19.4119 22.4494C18.8061 22.4474 18.2002 22.448 17.5944 22.45C17.0742 22.4517 16.554 22.4519 16.0338 22.4509C15.7231 22.4504 15.4124 22.4503 15.1017 22.4515C14.8097 22.4525 14.5177 22.4518 14.2257 22.4497C14.1185 22.4493 14.0113 22.4494 13.9041 22.4502C13.7578 22.4512 13.6116 22.4497 13.4654 22.4481C13.3835 22.448 13.3016 22.4479 13.2173 22.4477C13.0078 22.4023 13.0078 22.4023 12.8369 22.2293C12.5147 21.7158 12.7397 20.9523 12.8607 20.3878C13.2171 18.8844 14.1593 17.6017 15.447 16.763C17.6178 15.4491 20.4317 15.5014 22.4023 17.1991ZM15.1794 18.4948C14.4582 19.274 14.0637 20.1977 13.9472 21.246C17.0474 21.246 20.1476 21.246 23.3418 21.246C23.1834 19.9793 22.6158 18.8445 21.6091 18.0387C19.5478 16.5139 16.9885 16.7038 15.1794 18.4948Z" fill="#BFCBE3"/>
<path d="M13.2568 24.8857C13.3034 24.8851 13.3501 24.8845 13.3981 24.884C13.5542 24.8825 13.7101 24.8837 13.8662 24.8848C13.9782 24.8843 14.0901 24.8837 14.2021 24.8829C14.5061 24.8812 14.81 24.8819 15.1141 24.883C15.4322 24.8839 15.7503 24.8831 16.0684 24.8825C16.6027 24.8819 17.137 24.8827 17.6713 24.8844C18.2889 24.8864 18.9065 24.8858 19.5242 24.8838C20.0544 24.8821 20.5847 24.8819 21.1149 24.8829C21.4317 24.8834 21.7483 24.8835 22.0651 24.8823C22.3629 24.8813 22.6607 24.882 22.9585 24.8841C23.0678 24.8846 23.1771 24.8844 23.2863 24.8836C23.4356 24.8826 23.5847 24.8839 23.734 24.8857C23.8175 24.8858 23.901 24.8859 23.987 24.8861C24.2774 24.9456 24.3862 25.0657 24.5703 25.2929C24.7228 25.9371 24.5032 26.7087 24.1833 27.272C23.7665 27.8587 23.1879 28.3206 22.4746 28.4726C22.3651 28.4794 22.2554 28.4826 22.1457 28.4832C22.08 28.4837 22.0144 28.4842 21.9468 28.4848C21.8753 28.485 21.8038 28.4852 21.7302 28.4854C21.6166 28.4861 21.6166 28.4861 21.5008 28.4868C21.2501 28.4882 20.9994 28.4891 20.7487 28.4898C20.663 28.4901 20.5772 28.4904 20.4889 28.4907C20.035 28.4922 19.581 28.4932 19.1271 28.4939C18.6591 28.4947 18.1911 28.4972 17.7231 28.5001C17.3625 28.502 17.002 28.5026 16.6414 28.5028C16.4689 28.5032 16.2965 28.504 16.124 28.5053C15.8821 28.5071 15.6402 28.507 15.3982 28.5065C15.2923 28.5079 15.2923 28.5079 15.1842 28.5093C14.4657 28.5039 13.8179 28.2591 13.2969 27.7544C12.7368 27.1615 12.4974 26.5763 12.4794 25.7626C12.4767 25.6829 12.474 25.6031 12.4712 25.521C12.5371 25.0326 12.7888 24.8864 13.2568 24.8857ZM13.7305 26.0878C13.7947 26.5194 13.7947 26.5194 14.0331 26.824C14.0744 26.8712 14.1156 26.9185 14.1581 26.9671C14.5692 27.3289 14.9502 27.348 15.4722 27.3455C15.5446 27.346 15.617 27.3465 15.6917 27.347C15.9305 27.3483 16.1694 27.3481 16.4083 27.3477C16.5748 27.348 16.7413 27.3484 16.9077 27.3488C17.2566 27.3494 17.6054 27.3493 17.9542 27.3486C18.4005 27.3477 18.8468 27.3492 19.2931 27.3513C19.6369 27.3526 19.9807 27.3526 20.3245 27.3522C20.4891 27.3522 20.6536 27.3526 20.8181 27.3535C21.0485 27.3546 21.2788 27.3538 21.5092 27.3526C21.5767 27.3533 21.6442 27.354 21.7138 27.3547C22.1892 27.3494 22.5922 27.2586 22.9462 26.9227C23.1746 26.6599 23.3418 26.4385 23.3418 26.0878C20.1701 26.0878 16.9983 26.0878 13.7305 26.0878Z" fill="#BFCBE3"/>
<path d="M13.4023 23.0255C13.4966 23.025 13.591 23.0244 13.6881 23.0239C13.7922 23.0245 13.8962 23.025 14.0002 23.0256C14.1102 23.0254 14.2201 23.0252 14.33 23.0248C14.6282 23.0241 14.9264 23.0248 15.2245 23.0258C15.5366 23.0266 15.8486 23.0263 16.1607 23.0261C16.6847 23.0261 17.2086 23.0269 17.7326 23.0282C18.3385 23.0297 18.9443 23.03 19.5502 23.0295C20.133 23.0291 20.7158 23.0295 21.2986 23.0304C21.5467 23.0307 21.7947 23.0307 22.0428 23.0306C22.3348 23.0305 22.6268 23.031 22.9188 23.0322C23.026 23.0325 23.1332 23.0326 23.2404 23.0324C23.3867 23.0321 23.5329 23.0329 23.6792 23.0337C23.761 23.0338 23.8429 23.034 23.9272 23.0341C24.1344 23.0523 24.2526 23.0852 24.4258 23.197C24.5762 23.3904 24.57 23.4946 24.5613 23.7435C24.4981 23.992 24.4981 23.992 24.3785 24.1141C24.1567 24.2379 23.9997 24.2364 23.7459 24.2373C23.6029 24.2385 23.6029 24.2385 23.457 24.2397C23.3515 24.2396 23.246 24.2393 23.1404 24.2391C23.0292 24.2396 22.9179 24.2403 22.8067 24.241C22.5047 24.2426 22.2026 24.2428 21.9006 24.2426C21.6484 24.2426 21.3963 24.2432 21.1441 24.2438C20.5493 24.2452 19.9545 24.2454 19.3596 24.245C18.7459 24.2445 18.1323 24.2461 17.5186 24.2488C16.9917 24.251 16.4648 24.2519 15.9379 24.2516C15.6232 24.2514 15.3085 24.2518 14.9938 24.2536C14.6979 24.2552 14.402 24.2551 14.1061 24.2536C13.9975 24.2533 13.8889 24.2537 13.7804 24.2547C13.632 24.2561 13.4839 24.2551 13.3355 24.2537C13.2111 24.2537 13.2111 24.2537 13.0841 24.2538C12.7952 24.1949 12.6859 24.0725 12.502 23.8474C12.4698 23.6933 12.4698 23.6933 12.4929 23.5493C12.4987 23.5014 12.5045 23.4536 12.5104 23.4042C12.6797 23.0463 13.0482 23.0254 13.4023 23.0255Z" fill="#BFCBE3"/>
<path d="M32.7924 3.56887C33.193 3.86036 33.5743 4.272 33.6756 4.76973C33.7465 5.42155 33.7118 5.96645 33.3143 6.5041C32.9527 6.90354 32.5604 7.19671 32.0102 7.2468C31.2753 7.26796 30.8039 7.14897 30.2619 6.64637C29.8629 6.20046 29.7489 5.68973 29.7583 5.10593C29.805 4.50832 30.0553 4.08572 30.496 3.68574C31.1704 3.19856 32.0708 3.15352 32.7924 3.56887ZM31.0741 4.76973C30.9041 5.00154 30.8957 5.21029 30.9296 5.49238C31.0477 5.71173 31.1504 5.8742 31.3496 6.02534C31.5879 6.09342 31.7665 6.10032 32.0135 6.07051C32.2283 5.94153 32.4057 5.79213 32.5194 5.56465C32.5633 5.19438 32.5633 5.19438 32.4437 4.85469C32.315 4.69831 32.1959 4.57186 32.0135 4.48066C31.603 4.44119 31.3909 4.50452 31.0741 4.76973Z" fill="#BFCBE3"/>
</svg>
