<svg width="37" height="37" viewBox="0 0 37 37" fill="none" xmlns="http://www.w3.org/2000/svg">
<g clip-path="url(#clip0_5042_5930)">
<path fill-rule="evenodd" clip-rule="evenodd" d="M4.25641 32.5617L9.02255 31.3493L7.91947 27.0099L3.81934 28.0557C3.67365 28.8986 3.62162 29.7728 3.79853 30.7874C3.913 31.4274 4.0691 32.0206 4.25641 32.5617ZM26.266 36.9844C25.7144 36.9844 25.1057 36.7191 24.2367 36.2612C22.3844 35.2778 20.7922 33.4098 19.762 31.0007C18.7838 28.7269 18.3623 26.1565 18.5808 23.7683C18.9347 19.9231 20.865 17.1706 23.8881 16.2184C25.6676 15.6565 26.1983 15.8178 27.598 17.1186C29.7885 19.1478 31.0009 22.3634 31.0061 26.1722C31.0165 29.5646 30.0643 33.004 28.3212 35.4547C27.8217 36.1623 27.2234 36.9844 26.266 36.9844ZM24.1847 17.1602C21.5623 17.9875 19.8764 20.4278 19.5642 23.8567C19.3613 26.0837 19.7516 28.4824 20.6673 30.6157C21.6091 32.8166 23.0452 34.5129 24.6998 35.387C25.1265 35.616 25.4907 35.7981 25.7925 35.9021C22.988 33.1184 21.479 28.1702 22.2335 23.8515C22.7642 20.8181 24.3252 18.6275 26.6666 17.6025C25.678 16.7179 25.3918 16.7752 24.1847 17.1602ZM27.5564 34.8355C28.8051 33.0664 29.5648 30.777 29.8718 28.4772C30.3505 24.8401 29.6741 20.8597 27.4679 18.3882C27.4575 18.3778 27.4419 18.3673 27.4315 18.3517C21.1512 20.6516 22.1502 31.5315 26.9424 35.6212C27.0881 35.4651 27.3534 35.1321 27.5564 34.8355ZM25.293 12.8311C21.8016 12.8311 18.7421 11.6968 16.9002 9.71441C16.0885 8.84028 15.667 8.27833 15.6254 7.62793C15.5682 6.84224 16.1613 6.10859 16.6609 5.51022C18.0761 3.81398 20.0429 2.49757 22.0098 1.59741C25.9642 -0.2081 30.8968 -0.770046 34.5235 1.51416C36.0532 2.47675 36.433 2.93464 36.3498 4.86503C36.1208 10.0942 30.6159 12.8311 25.293 12.8311ZM16.8482 8.12223C17.0199 8.37719 17.2852 8.67898 17.6234 9.0432C22.2491 14.0175 35.0438 12.2276 35.3664 4.8182C35.4288 3.42894 35.3143 3.1948 34.2945 2.53399C33.2487 9.44385 22.6185 11.5043 16.8482 8.12223ZM16.817 6.9359C22.0254 10.5417 32.7856 8.63215 33.3683 1.99286C32.0832 1.33205 30.5742 1.00425 28.8936 1.00425C25.0068 1.00425 19.0543 3.30406 16.817 6.9359ZM4.04828 26.9839L7.67492 26.0577L6.56664 21.7182L4.57901 22.2281C4.81836 23.8723 4.48535 25.2096 4.16796 26.5052C4.12633 26.6665 4.08471 26.8226 4.04828 26.9839ZM0.645387 13.0601C0.744248 10.958 1.94619 8.33556 3.02846 6.18144C3.99625 4.25625 3.7517 2.36228 4.41251 1.33205C6.55103 -1.9876 12.3318 1.5714 13.5025 5.33852C14.1217 7.33135 13.8407 9.43864 13.5754 11.4627C13.3048 13.4867 12.9718 15.7553 13.8615 17.6701C15.4537 19.6057 15.8596 22.2229 15.6774 24.6684C15.4953 27.1295 14.7305 29.7728 13.5077 32.1298C12.3682 34.3256 10.3962 36.9844 7.8102 36.9844C6.61867 36.9844 5.51559 36.4017 4.62064 35.2986C3.76211 34.2371 3.14293 32.7386 2.83073 30.9591C1.81611 25.1679 4.60503 24.7465 3.05967 20.0064C2.33643 17.795 0.536119 15.4015 0.645387 13.0601ZM4.3969 21.2603L6.32729 20.766L5.219 16.4318L2.88277 17.0249C3.40829 18.0708 3.98585 19.3612 4.3969 21.2603ZM2.42488 16.1248L4.97445 15.4744L3.87137 11.1401L1.86294 11.65C1.34782 13.7209 1.76408 14.7979 2.42488 16.1248ZM2.19074 10.5521L3.62682 10.1827L3.12732 8.24191C2.72667 9.12125 2.41968 9.88092 2.19074 10.5521ZM3.79333 6.85265L4.57901 9.94336L7.23785 9.26174L6.13477 4.92746L4.41251 5.36453C4.25121 5.88485 4.04828 6.33753 3.79333 6.85265ZM4.68307 4.27706L5.89022 3.97007L5.32307 1.74831C5.02128 2.15416 4.95884 2.64846 4.83917 3.38732C4.79234 3.66829 4.74551 3.96487 4.68307 4.27706ZM6.17639 1.11351L6.84241 3.72552L10.6095 2.76813C9.39198 1.65985 7.51882 0.645226 6.17639 1.11351ZM11.39 3.58504L7.08696 4.68291L8.19524 9.01718L12.8885 7.82045C12.8573 6.15542 12.4983 4.90665 11.39 3.58504ZM12.8677 8.84548L8.43459 9.97457L9.54287 14.3088L12.3422 13.596C12.4619 12.009 12.7741 10.4325 12.8677 8.84548ZM12.3006 14.621L9.78742 15.2662L10.8905 19.6005L13.5545 18.9241C13.4089 18.6899 13.2423 18.4662 13.0654 18.2529C13.0394 18.2217 13.0186 18.1852 12.9978 18.1488C12.4619 17.0249 12.2954 15.8334 12.3006 14.621ZM14.028 19.819L11.1351 20.5527L12.2433 24.8922L14.7201 24.2574C14.7981 22.6652 14.6004 21.1302 14.028 19.819ZM14.6316 25.298L12.4879 25.8444L13.4869 29.778C14.0436 28.3523 14.4495 26.8174 14.6316 25.298ZM12.7689 31.4066L10.2245 32.057L10.8125 34.3776C11.4941 33.6336 12.2017 32.5565 12.7689 31.4066ZM9.99555 35.1425L9.2671 32.3015L4.63625 33.4827C5.8642 36.0062 7.92467 36.7659 9.99555 35.1425ZM9.97994 31.1048L12.6388 30.4284L11.5305 26.0889L8.87166 26.7653L9.97994 31.1048ZM8.6271 25.8131L11.2859 25.1367L10.1829 20.7972L7.52403 21.4789L8.6271 25.8131ZM7.27947 20.5215L9.93831 19.8451L8.83003 15.5056L6.17119 16.1872L7.27947 20.5215ZM5.93184 15.2298L8.59068 14.5534L7.4824 10.2191L4.82356 10.8955L5.93184 15.2298Z" fill="#BFCBE3"/>
</g>
<defs>
<clipPath id="clip0_5042_5930">
<rect width="37" height="37" fill="white"/>
</clipPath>
</defs>
</svg>
