<svg width="22" height="37" viewBox="0 0 22 37" fill="none" xmlns="http://www.w3.org/2000/svg">
<path fill-rule="evenodd" clip-rule="evenodd" d="M20.5957 36.9937C18.8613 36.9937 17.127 36.7046 15.3926 36.4155C13.8027 36.1265 12.1406 35.9097 10.5508 35.8374C8.96094 35.9097 7.29883 36.1265 5.70898 36.4155C3.97461 36.7046 2.24023 36.9937 0.505859 36.9937C0.216797 36.9937 0 36.7769 0 36.4878V22.8296C0 22.5405 0.216797 22.3237 0.505859 22.3237H20.5957C20.8848 22.3237 21.1016 22.5405 21.1016 22.8296V36.4878C21.1016 36.6323 21.0293 36.7769 20.957 36.8491C20.8125 36.9214 20.7402 36.9937 20.5957 36.9937ZM10.5508 34.8257C12.2129 34.8979 13.9473 35.1147 15.6094 35.4038C17.0547 35.6929 18.5723 35.9097 20.0898 35.9819V23.3354H1.01172V35.9819C2.5293 35.9097 4.04688 35.6929 5.49219 35.4038C7.1543 35.1147 8.88867 34.8979 10.5508 34.8257Z" fill="#BFCBE3"/>
<path fill-rule="evenodd" clip-rule="evenodd" d="M1.58984 23.3354C1.30078 23.3354 1.08398 23.1187 1.08398 22.8296V2.01709C1.08398 1.72803 1.30078 1.51123 1.58984 1.51123C4.625 1.51123 7.44336 2.66748 9.68359 4.83545C11.8516 6.93115 13.0801 9.74951 13.2246 12.7847C13.2246 13.0015 13.0078 13.2905 12.7188 13.2905C12.4297 13.2905 12.2129 13.0737 12.2129 12.7847C11.9961 7.29248 7.51562 2.81201 2.0957 2.52295V22.8296C2.0957 23.1187 1.87891 23.3354 1.58984 23.3354Z" fill="#BFCBE3"/>
<path fill-rule="evenodd" clip-rule="evenodd" d="M19.2227 23.3354C18.9336 23.3354 18.7168 23.1187 18.7168 22.8296V11.1948C13.0078 11.4839 8.45508 16.1812 8.45508 21.9624V22.8296C8.45508 23.1187 8.23828 23.3354 7.94922 23.3354C7.66016 23.3354 7.44336 23.1187 7.44336 22.8296V21.9624C7.44336 18.855 8.67188 15.8921 10.9121 13.6519C13.1523 11.4116 16.043 10.1831 19.2227 10.1831C19.5117 10.1831 19.7285 10.3999 19.7285 10.689V22.8296C19.7285 23.1187 19.5117 23.3354 19.2227 23.3354Z" fill="#BFCBE3"/>
<path fill-rule="evenodd" clip-rule="evenodd" d="M19.2227 11.195C19.0782 11.195 19.0059 11.195 18.8614 11.0505C18.6446 10.906 18.6446 10.6169 18.7891 10.4001C18.8614 10.2556 19.0782 9.96652 19.0059 9.82199C19.0059 9.67746 18.7891 9.60519 18.7169 9.53293C17.9219 9.24387 17.2716 9.96652 17.2716 9.96652C17.127 10.1111 16.9102 10.1833 16.6934 10.1111C15.8262 9.82199 15.6817 8.9548 15.6094 8.15988C15.3927 7.00363 15.2481 6.13644 13.586 6.13644C13.4415 6.13644 13.2247 6.06418 13.1524 5.91965C13.0802 5.77512 13.0802 5.55832 13.1524 5.41379C13.5137 4.5466 13.586 3.82394 13.2969 3.31808C12.7188 2.30637 10.9844 2.2341 10.9122 2.2341C10.7677 2.16183 10.6231 2.08957 10.5509 1.94504C10.2618 1.43918 9.90046 1.15012 9.46687 1.07785C8.59968 0.861053 7.58796 1.51144 7.58796 1.51144C7.44343 1.65598 7.15437 1.65598 6.93757 1.51144C6.57624 1.07785 6.28718 1.15012 6.14265 1.15012C5.49226 1.22238 4.84187 2.2341 4.62507 2.59543C4.55281 2.81223 4.19148 2.95676 3.97468 2.81223C3.75789 2.66769 3.61335 2.37863 3.75789 2.08957C3.83015 1.94504 4.69734 0.282928 5.99812 0.138397C6.35945 0.0661315 6.86531 0.138397 7.37117 0.499725C7.87703 0.210663 8.74421 -0.150665 9.68367 0.0661315C10.3341 0.210663 10.8399 0.571991 11.2735 1.22238C11.9239 1.29465 13.4415 1.65598 14.1641 2.81223C14.5255 3.46262 14.5977 4.25754 14.3087 5.19699C16.1876 5.48605 16.4044 7.00363 16.5489 8.01535C16.6212 8.44894 16.6934 8.81027 16.838 8.9548C17.3438 8.59348 18.211 8.23215 19.1505 8.66574C19.7286 8.88254 19.9454 9.31613 20.0177 9.60519C20.1622 10.3279 19.6563 10.9782 19.5841 10.9782C19.5118 11.1228 19.3673 11.195 19.2227 11.195Z" fill="#BFCBE3"/>
<path fill-rule="evenodd" clip-rule="evenodd" d="M18.9336 9.60496C18.9336 9.60496 18.9336 9.60496 18.8613 9.60496C18.6445 9.60496 18.4277 9.3159 18.4277 9.0991C18.7891 6.35301 18.2832 4.32957 17.0547 3.17332C15.2481 1.58348 12.2852 1.9448 11.0567 2.1616C10.7676 2.23387 10.5508 2.08934 10.4785 1.80027C10.4063 1.51121 10.6231 1.29441 10.8399 1.22215C12.2129 0.933086 15.6094 0.499492 17.7051 2.45066C19.2227 3.82371 19.8008 6.06395 19.4395 9.17137C19.4395 9.46043 19.2227 9.60496 18.9336 9.60496Z" fill="#BFCBE3"/>
<path fill-rule="evenodd" clip-rule="evenodd" d="M6.07031 9.53271C5.78125 9.53271 5.56445 9.31592 5.56445 9.02686V7.79834C5.56445 7.36475 5.20312 7.07568 4.8418 7.07568C4.4082 7.07568 4.11914 7.36475 4.11914 7.79834V9.02686C4.11914 9.31592 3.90234 9.53271 3.61328 9.53271C3.32422 9.53271 3.10742 9.31592 3.10742 9.02686V7.79834C3.10742 6.78662 3.90234 6.06396 4.8418 6.06396C5.78125 6.06396 6.57617 6.78662 6.57617 7.79834V9.02686C6.57617 9.31592 6.35938 9.53271 6.07031 9.53271Z" fill="#BFCBE3"/>
<path fill-rule="evenodd" clip-rule="evenodd" d="M4.76953 15.8198C3.75781 15.8198 2.96289 15.0249 2.96289 14.0854C2.96289 13.7964 3.17969 13.5796 3.46875 13.5796C3.75781 13.5796 3.97461 13.7964 3.97461 14.0854C3.97461 14.519 4.33594 14.8081 4.76953 14.8081C5.20312 14.8081 5.49219 14.519 5.49219 14.0854C5.49219 13.7964 5.78125 13.5796 5.99805 13.5796C6.28711 13.5796 6.50391 13.7964 6.50391 14.0854C6.50391 15.0249 5.70898 15.8198 4.76953 15.8198Z" fill="#BFCBE3"/>
<path fill-rule="evenodd" clip-rule="evenodd" d="M4.48047 21.0229C3.61328 21.0229 2.81836 20.3003 2.81836 19.3608C2.81836 18.4937 3.61328 17.6987 4.48047 17.6987C5.41992 17.6987 6.14258 18.4937 6.14258 19.3608C6.14258 20.3003 5.41992 21.0229 4.48047 21.0229ZM4.48047 18.7104C4.11914 18.7104 3.83008 18.9995 3.83008 19.3608C3.83008 19.7222 4.11914 20.0112 4.48047 20.0112C4.8418 20.0112 5.13086 19.7222 5.13086 19.3608C5.13086 18.9995 4.8418 18.7104 4.48047 18.7104Z" fill="#BFCBE3"/>
<path fill-rule="evenodd" clip-rule="evenodd" d="M16.1152 19.3608C15.8262 19.3608 15.6094 19.144 15.6094 18.855C15.6094 18.5659 15.8262 18.3491 16.1152 18.3491C16.5488 18.3491 16.9102 17.9878 16.9102 17.6265C16.9102 17.1929 16.5488 16.8315 16.1152 16.8315C15.8262 16.8315 15.6094 16.6147 15.6094 16.3257C15.6094 16.0366 15.8262 15.8198 16.1152 15.8198C17.127 15.8198 17.9219 16.6147 17.9219 17.6265C17.9219 18.5659 17.127 19.3608 16.1152 19.3608Z" fill="#BFCBE3"/>
<path fill-rule="evenodd" clip-rule="evenodd" d="M12.2851 21.6011C12.2851 21.6011 12.2128 21.6011 12.2128 21.5288C10.4785 21.0952 10.5507 19.8667 10.5507 19.7944L11.5624 19.8667C11.5624 19.939 11.6347 20.3726 12.4296 20.5894C12.7187 20.6616 12.8632 20.9507 12.791 21.1675C12.7187 21.4565 12.5742 21.6011 12.2851 21.6011Z" fill="#BFCBE3"/>
<path fill-rule="evenodd" clip-rule="evenodd" d="M10.1895 6.64223C9.97265 6.64223 9.82812 6.4977 9.75586 6.35317C9.61133 6.13637 9.68359 5.77505 9.90039 5.63051C9.97265 5.63051 10.9844 5.05239 11.4902 4.54653C11.707 4.32973 11.9961 4.32973 12.2129 4.47426C12.4297 4.69106 12.4297 4.98012 12.2129 5.19692C11.5625 5.91958 10.4785 6.4977 10.4062 6.56997C10.334 6.56997 10.2617 6.64223 10.1895 6.64223Z" fill="#BFCBE3"/>
<path fill-rule="evenodd" clip-rule="evenodd" d="M7.87681 4.54674H7.80455C7.51549 4.47447 7.37095 4.18541 7.44322 3.89635L7.73228 2.7401C7.80455 2.45103 8.02135 2.3065 8.31041 2.37877C8.59947 2.45103 8.744 2.7401 8.67174 2.95689L8.38267 4.11314C8.31041 4.4022 8.16588 4.54674 7.87681 4.54674Z" fill="#BFCBE3"/>
<path fill-rule="evenodd" clip-rule="evenodd" d="M15.9707 5.26904C15.8262 5.26904 15.6816 5.19678 15.6094 5.05224L14.8867 4.04053C14.7422 3.82373 14.8145 3.53467 15.0312 3.31787C15.248 3.17334 15.6094 3.2456 15.7539 3.4624L16.4043 4.47412C16.5488 4.69092 16.5488 4.97998 16.2598 5.12451C16.1875 5.19678 16.1152 5.26904 15.9707 5.26904Z" fill="#BFCBE3"/>
<path fill-rule="evenodd" clip-rule="evenodd" d="M16.9824 6.56982C16.8379 6.56982 16.7656 6.56982 16.6211 6.42529C16.4766 6.28076 16.4766 5.91943 16.6211 5.7749L17.1992 5.19678C17.416 4.97998 17.7051 4.97998 17.9219 5.19678C18.1387 5.34131 18.1387 5.70264 17.9219 5.91943L17.3438 6.42529C17.2715 6.56982 17.127 6.56982 16.9824 6.56982Z" fill="#BFCBE3"/>
<path fill-rule="evenodd" clip-rule="evenodd" d="M15.9707 14.23H14.8867C14.5977 14.23 14.3809 14.0132 14.3809 13.7241C14.3809 13.4351 14.5977 13.2183 14.8867 13.2183H15.9707C16.2598 13.2183 16.4766 13.4351 16.4766 13.7241C16.4766 14.0132 16.2598 14.23 15.9707 14.23Z" fill="#BFCBE3"/>
<path fill-rule="evenodd" clip-rule="evenodd" d="M12.7188 17.6987C12.4297 17.6987 12.2129 17.4819 12.2129 17.1929V16.1089C12.2129 15.8198 12.4297 15.603 12.7188 15.603C13.0078 15.603 13.2246 15.8198 13.2246 16.1089V17.1929C13.2246 17.4819 13.0078 17.6987 12.7188 17.6987Z" fill="#BFCBE3"/>
<path fill-rule="evenodd" clip-rule="evenodd" d="M14.6699 20.8062C14.5977 20.8062 14.4531 20.8062 14.3809 20.734L13.4414 20.2281C13.2246 20.0836 13.1523 19.7222 13.2969 19.5054C13.4414 19.2886 13.7305 19.1441 13.9473 19.2886L14.8867 19.8668C15.1758 20.0113 15.248 20.3004 15.1035 20.5894C15.0312 20.734 14.8145 20.8062 14.6699 20.8062Z" fill="#BFCBE3"/>
<path fill-rule="evenodd" clip-rule="evenodd" d="M8.88853 35.9823C8.81627 35.9823 8.81627 35.9823 8.744 35.91C8.45494 35.8378 8.31041 35.621 8.38267 35.3319L11.7792 22.6854C11.8514 22.3963 12.1405 22.2518 12.4295 22.3241C12.6463 22.3963 12.8631 22.6854 12.7909 22.9022L9.39439 35.5487C9.32213 35.8378 9.10533 35.9823 8.88853 35.9823Z" fill="#BFCBE3"/>
</svg>
