<svg width="270" height="241" viewBox="0 0 270 241" fill="none" xmlns="http://www.w3.org/2000/svg">
<path d="M99.812 39.0903C101.372 39.2861 102.604 39.7128 104.023 40.3849C104.227 40.4808 104.431 40.5767 104.641 40.6754C105.302 40.9871 105.962 41.3026 106.621 41.6185C107.082 41.8372 107.542 42.0558 108.002 42.2743C109.335 42.9081 110.664 43.5478 111.992 44.1891C112.326 44.3495 112.659 44.51 113.003 44.6754C119.675 47.9028 126.069 51.6105 132.288 55.6443C133.266 56.2782 134.25 56.9042 135.233 57.5307C135.719 57.8422 136.205 58.1538 136.692 58.4655C136.917 58.3206 137.142 58.1757 137.374 58.0264C142.905 54.4782 148.497 51.0359 154.286 47.9281C154.62 47.7477 154.955 47.5672 155.3 47.3812C159.51 45.1214 163.748 42.9603 168.116 41.0236C168.469 40.8665 168.823 40.7095 169.188 40.5477C170.653 39.9109 171.991 39.362 173.571 39.0903C172.618 40.2005 171.38 40.8704 170.146 41.6185C165.614 44.419 161.326 47.5438 157.185 50.8976C156.683 51.3035 156.18 51.7065 155.676 52.1094C153.648 53.7483 151.721 55.4753 149.815 57.2532C149.032 57.9773 148.241 58.6829 147.434 59.379C146.04 60.5917 144.747 61.8993 143.459 63.2243C144.393 64.1949 145.364 65.0454 146.419 65.8799C148.115 67.2628 149.729 68.7169 151.325 70.2138C151.549 70.4221 151.772 70.6304 152.003 70.8449C159.191 77.6391 165.986 87.0154 166.52 97.2318C166.742 105.942 162.833 112.905 157.146 119.131C156.044 120.294 154.879 121.394 153.609 122.37C153.497 122.37 153.386 122.37 153.271 122.37C153.319 121.746 153.369 121.123 153.419 120.5C153.46 119.98 153.46 119.98 153.502 119.448C153.578 118.627 153.674 117.807 153.785 116.989C155.015 107.259 152.458 97.3986 148.195 88.718C148.068 88.4561 147.941 88.1941 147.81 87.9243C144.837 81.8693 141.051 76.4334 137.03 71.0424C126.536 81.4226 119.752 97.2902 119.33 112.045C119.375 115.507 119.955 118.949 120.451 122.37C118.847 121.879 117.835 120.933 116.687 119.757C116.496 119.561 116.305 119.366 116.108 119.165C110.326 113.122 106.763 106.076 106.846 97.5664C107.228 87.7251 113.245 79.5519 119.774 72.742C119.961 72.5467 120.148 72.3515 120.341 72.1504C122.592 69.8132 124.862 67.5913 127.42 65.5918C128.316 64.8557 129.118 64.0575 129.925 63.2243C125.478 58.5955 125.478 58.5955 120.644 54.3905C119.834 53.7537 119.056 53.0885 118.281 52.4103C112.62 47.4827 106.349 43.1005 99.812 39.4302C99.812 39.3181 99.812 39.2059 99.812 39.0903Z" fill="#3E4E2C"/>
<path d="M177.293 92.7969C179.595 93.2406 181.622 93.9323 183.764 94.8789C184.074 95.0147 184.384 95.1505 184.703 95.2905C191.989 98.5273 198.973 102.519 202.331 110.133C203.163 112.528 203.102 116.3 202.119 118.609C201.865 119.077 201.597 119.538 201.316 119.99C201.172 120.239 201.029 120.489 200.881 120.746C194.785 130.691 181.098 134.851 170.483 137.439C161.592 139.514 152.457 140.74 143.322 140.806C142.935 140.809 142.548 140.813 142.149 140.816C121.201 140.958 94.1178 139.842 78.0335 124.296C74.9137 121.12 73.3193 117.986 73.3145 113.506C73.3876 109.894 74.7837 107.329 77.1427 104.694C77.3578 104.446 77.5728 104.199 77.7943 103.944C82.4596 98.9037 90.1518 94.7894 96.7668 93.1368C97.5502 93.2724 97.5502 93.2724 98.1202 93.4767C97.7961 93.613 97.4721 93.7492 97.1382 93.8896C90.0054 96.9289 82.7727 100.23 79.194 107.626C78.2587 110.61 78.2619 113.57 79.5759 116.457C84.5017 125.154 94.8158 129.176 103.935 131.781C115.084 134.846 126.324 136.044 137.855 136.03C138.201 136.03 138.547 136.029 138.904 136.029C143.947 136.019 148.942 135.963 153.947 135.286C154.359 135.231 154.771 135.177 155.195 135.12C168.248 133.349 186.027 130.472 194.755 119.35C196.947 115.997 198.067 113.118 197.256 109.134C195.703 103.698 191.463 100.222 186.703 97.5507C183.654 95.8851 180.557 94.335 177.293 93.1368C177.293 93.0246 177.293 92.9124 177.293 92.7969Z" fill="#3E4E2C"/>
<path d="M142.444 63.564C144.255 63.6846 145.221 64.7106 146.504 65.8796C146.726 66.0776 146.947 66.2756 147.175 66.4796C147.857 67.0906 148.534 67.7064 149.211 68.3228C149.612 68.6831 150.012 69.0434 150.413 69.4036C158.255 76.5029 165.943 86.1986 166.521 97.2315C166.742 105.942 162.833 112.905 157.146 119.131C156.044 120.293 154.879 121.393 153.609 122.369C153.498 122.369 153.386 122.369 153.271 122.369C153.319 121.746 153.369 121.123 153.419 120.5C153.446 120.153 153.474 119.806 153.502 119.448C153.578 118.627 153.675 117.807 153.785 116.989C155.015 107.258 152.458 97.3984 148.196 88.7177C148.068 88.4558 147.941 88.1939 147.81 87.924C144.763 81.7173 140.88 76.1776 136.692 70.7022C137.471 69.2672 138.455 68.1203 139.568 66.9419C140.585 65.8561 141.583 64.7826 142.444 63.564Z" fill="#FE8B32"/>
<path d="M74.7744 157.721C76.5609 157.721 78.3473 157.721 80.1879 157.721C81.2498 158.845 81.6189 159.43 82.218 160.78C82.6194 161.46 83.0282 162.135 83.4432 162.806C83.8744 163.532 84.3048 164.259 84.7345 164.986C87.058 169.405 87.058 169.405 90 173.357C90.1445 173.111 90.289 172.865 90.4379 172.611C95.3151 164.314 95.3151 164.314 97.5916 160.567C97.8218 160.188 97.8218 160.188 98.0566 159.801C99.0921 158.104 99.0921 158.104 99.4737 157.721C100.33 157.696 101.177 157.689 102.032 157.699C102.393 157.702 102.393 157.702 102.761 157.704C103.357 157.708 103.953 157.714 104.549 157.721C104.832 161.056 104.933 164.356 104.92 167.703C104.92 168.184 104.919 168.665 104.919 169.146C104.918 170.394 104.914 171.643 104.91 172.891C104.907 174.172 104.905 175.453 104.904 176.733C104.9 179.234 104.894 181.734 104.887 184.234C102.877 184.234 100.868 184.234 98.797 184.234C98.6295 177.167 98.6295 177.167 98.4586 169.958C97.4537 171.64 96.4489 173.323 95.4135 175.056C94.7385 176.176 94.0626 177.296 93.3834 178.413C93.2225 178.679 93.0616 178.945 92.8957 179.219C92.7427 179.471 92.5896 179.723 92.4318 179.982C92.2971 180.205 92.1623 180.427 92.0234 180.655C91.574 181.359 91.4916 181.484 90.6597 181.671C89.6744 181.765 88.9314 181.764 87.9699 181.515C86.9401 180.501 86.3529 179.294 85.7072 178.009C85.3541 177.352 85.0004 176.694 84.6459 176.038C84.4204 175.597 84.4204 175.597 84.1904 175.148C83.2661 173.489 82.219 171.901 81.203 170.298C81.0913 174.897 80.9797 179.496 80.8646 184.234C78.8549 184.234 76.8451 184.234 74.7744 184.234C74.7744 175.485 74.7744 166.735 74.7744 157.721Z" fill="black"/>
<path d="M114.361 157.721C118.098 157.689 118.098 157.689 121.91 157.657C122.689 157.648 123.468 157.639 124.27 157.629C124.899 157.626 125.528 157.623 126.157 157.621C126.632 157.613 126.632 157.613 127.117 157.605C130.286 157.604 133.326 158.127 135.814 160.217C137.109 161.569 137.425 163.023 137.516 164.838C137.462 166.53 137.03 167.916 136.015 169.278C135.291 169.864 135.291 169.864 134.662 170.298C134.898 170.495 135.134 170.692 135.378 170.895C135.686 171.161 135.994 171.426 136.311 171.7C136.77 172.09 136.77 172.09 137.239 172.489C138.72 174.084 138.876 175.835 138.829 177.935C138.609 179.699 137.851 180.986 136.671 182.28C133.787 184.006 131.055 184.431 127.743 184.367C127.401 184.366 127.058 184.364 126.706 184.363C125.446 184.356 124.185 184.337 122.925 184.319C120.099 184.291 117.273 184.263 114.361 184.234C114.361 175.485 114.361 166.735 114.361 157.721ZM120.789 162.82C120.789 164.727 120.789 166.633 120.789 168.598C121.924 168.626 123.059 168.646 124.194 168.662C124.673 168.675 124.673 168.675 125.161 168.688C127.131 168.708 128.537 168.566 130.263 167.578C131.058 166.38 131.164 165.93 130.94 164.519C130.002 163.403 129.434 162.897 127.982 162.683C126.891 162.652 125.813 162.671 124.723 162.713C124.345 162.721 123.966 162.729 123.577 162.737C122.647 162.757 121.718 162.787 120.789 162.82ZM120.789 173.357C120.789 175.376 120.789 177.395 120.789 179.475C122.213 179.503 123.637 179.523 125.061 179.539C125.464 179.548 125.866 179.556 126.281 179.565C129.1 179.625 129.1 179.625 131.616 178.456C132.357 177.55 132.292 177.075 132.251 175.885C132.059 174.713 132.059 174.713 131.32 174.079C130.021 173.388 129.012 173.317 127.563 173.324C126.972 173.325 126.972 173.325 126.37 173.327C125.754 173.331 125.754 173.331 125.124 173.336C124.502 173.338 124.502 173.338 123.867 173.34C122.841 173.344 121.815 173.35 120.789 173.357Z" fill="black"/>
<path d="M244.561 159.973C247.736 162.454 249.408 165.574 249.974 169.533C250.264 173.61 249.227 177.026 246.739 180.24C244.098 183.159 240.435 184.689 236.571 184.987C231.83 185.142 227.797 183.782 224.338 180.54C221.574 177.642 220.767 174.226 220.797 170.288C220.93 166.569 222.397 163.759 224.96 161.152C230.319 156.17 238.589 155.957 244.561 159.973ZM229.06 165.539C227.471 167.809 227.1 169.953 227.368 172.677C227.979 175.308 229.229 176.935 231.429 178.456C233.196 179.432 235.241 179.673 237.202 179.242C240.105 178.363 241.488 177.021 242.932 174.377C243.672 172.146 243.61 169.448 242.742 167.26C241.617 165.099 239.849 163.727 237.553 162.979C234.259 162.241 231.436 163.152 229.06 165.539Z" fill="black"/>
<path d="M175.263 157.721C177.468 157.7 179.674 157.679 181.946 157.657C182.633 157.648 183.32 157.639 184.028 157.629C188.399 157.594 192.561 157.571 195.902 160.78C198.067 162.982 198.572 165.235 198.609 168.258C198.327 171.138 197.155 172.883 195.005 174.779C194.73 175.022 194.455 175.266 194.171 175.516C193.961 175.701 193.75 175.886 193.534 176.076C193.674 176.275 193.814 176.474 193.958 176.679C194.593 177.582 195.226 178.486 195.86 179.39C196.08 179.703 196.3 180.016 196.527 180.338C196.845 180.792 196.845 180.792 197.168 181.255C197.461 181.671 197.461 181.671 197.759 182.096C198.216 182.792 198.596 183.48 198.947 184.234C196.615 184.67 194.121 185.048 191.842 184.234C190.515 183.004 189.708 181.455 188.82 179.893C187.872 178.212 187.872 178.212 186.381 177.081C184.716 176.708 183.445 176.911 181.692 177.096C181.692 179.452 181.692 181.807 181.692 184.234C179.57 184.234 177.449 184.234 175.263 184.234C175.263 175.485 175.263 166.735 175.263 157.721ZM181.692 163.159C181.692 166.076 181.692 168.992 181.692 171.997C186.826 172.316 186.826 172.316 191.356 170.276C192.072 168.805 192.056 167.486 191.842 165.879C191.398 164.713 191.031 164.315 190.002 163.629C188.347 162.984 186.873 163.049 185.118 163.096C183.987 163.117 182.857 163.138 181.692 163.159Z" fill="black"/>
<path d="M27.7441 157.721C29.9563 157.7 32.1684 157.679 34.4476 157.657C35.138 157.648 35.8283 157.639 36.5396 157.629C40.9408 157.594 45.1657 157.714 48.5511 160.92C50.7272 163.352 50.9446 165.534 50.8666 168.712C50.636 171.211 49.8613 172.695 48.0026 174.356C47.5672 174.705 47.1304 175.052 46.6915 175.396C46.4682 175.621 46.2449 175.845 46.0148 176.076C46.1427 176.263 46.2707 176.45 46.4025 176.642C46.9857 177.494 47.5682 178.347 48.1506 179.199C48.3519 179.493 48.5532 179.787 48.7606 180.09C48.9557 180.375 49.1509 180.661 49.352 180.956C49.531 181.218 49.7099 181.479 49.8943 181.749C50.432 182.563 50.9342 183.393 51.4284 184.234C45.1668 184.844 45.1668 184.844 43.3199 183.509C42.4434 182.257 41.8292 180.967 41.2026 179.578C40.7223 178.661 40.3977 178.084 39.5862 177.436C37.8026 176.967 36.0087 177.081 34.1727 177.096C34.1727 179.452 34.1727 181.807 34.1727 184.234C32.0513 184.234 29.9299 184.234 27.7441 184.234C27.7441 175.485 27.7441 166.735 27.7441 157.721ZM34.1727 163.16C34.1727 166.076 34.1727 168.992 34.1727 171.997C38.7184 172.31 38.7184 172.31 42.9697 170.978C44.0579 169.858 44.4109 168.938 44.5134 167.408C44.4363 165.707 43.8558 164.986 42.6314 163.839C41.586 163.191 40.8119 163.078 39.5915 163.093C39.3064 163.095 39.0213 163.097 38.7275 163.098C38.3689 163.104 38.0102 163.111 37.6408 163.117C36.4963 163.131 35.3518 163.145 34.1727 163.16Z" fill="black"/>
<path d="M146.504 157.721C153.203 157.721 159.902 157.721 166.805 157.721C166.805 159.403 166.805 161.086 166.805 162.819C162.227 162.819 157.649 162.819 152.932 162.819C152.932 164.614 152.932 166.409 152.932 168.258C156.952 168.258 160.972 168.258 165.113 168.258C165.113 169.941 165.113 171.623 165.113 173.357C161.093 173.357 157.074 173.357 152.932 173.357C152.932 175.264 152.932 177.171 152.932 179.135C157.622 179.135 162.311 179.135 167.143 179.135C167.143 180.818 167.143 182.501 167.143 184.234C160.332 184.234 153.521 184.234 146.504 184.234C146.504 175.485 146.504 166.735 146.504 157.721Z" fill="black"/>
<path d="M141.429 30.9321C143.635 32.4557 145.305 34.3478 145.827 37.0506C146.069 40.3227 145.803 42.7116 143.734 45.2935C141.774 47.4118 139.596 48.1639 136.776 48.3528C133.948 48.2888 131.94 47.2384 129.908 45.2895C128.22 43.3422 127.515 40.9761 127.556 38.4102C127.912 35.4621 129.321 33.3027 131.572 31.446C134.506 29.3566 138.247 29.3022 141.429 30.9321Z" fill="#3E4E2C"/>
<path d="M114.826 57.6794C116.712 58.78 118.321 60.3602 118.947 62.5086C119.457 64.9328 119.1 66.7588 117.907 68.9245C116.794 70.6095 115.32 71.6127 113.414 72.252C111.227 72.6923 109.095 72.2052 107.171 71.118C105.351 69.8407 104.385 68.0618 103.872 65.9436C103.595 63.9854 103.956 62.2444 104.887 60.505C107.398 57.5046 111.095 55.9089 114.826 57.6794Z" fill="#3E4E2C"/>
<path d="M166.375 58.2517C167.968 59.4006 169.166 60.9202 169.511 62.8844C169.741 65.3212 169.639 67.3346 168.158 69.3427C166.678 71.0375 164.957 72.0134 162.744 72.402C160.649 72.4881 158.687 71.961 156.992 70.7024C154.93 68.4686 154.498 66.6845 154.532 63.6651C154.711 61.4942 155.547 60.1383 157.119 58.6779C159.962 56.4557 163.299 56.5438 166.375 58.2517Z" fill="#FF8C33"/>
<path d="M206.729 157.721C208.851 157.721 210.972 157.721 213.158 157.721C213.158 166.47 213.158 175.22 213.158 184.234C211.037 184.234 208.915 184.234 206.729 184.234C206.729 175.485 206.729 166.735 206.729 157.721Z" fill="black"/>
<path d="M58.8721 157.721C60.9935 157.721 63.1149 157.721 65.3006 157.721C65.3006 166.47 65.3006 175.22 65.3006 184.234C63.1792 184.234 61.0578 184.234 58.8721 184.234C58.8721 175.485 58.8721 166.735 58.8721 157.721Z" fill="black"/>
<path d="M78.1577 61.5249C80.5206 62.2594 82.702 63.2005 84.9246 64.2867C85.2665 64.4531 85.6084 64.6194 85.9606 64.7908C86.9704 65.2849 87.9781 65.7832 88.9848 66.2837C89.2523 66.4163 89.5198 66.5488 89.7955 66.6854C97.3638 70.4692 104.528 75.3612 110.639 81.24C110.459 81.5892 110.28 81.9384 110.094 82.2982C108.742 84.9532 107.491 87.5707 106.579 90.4177C105.564 90.0778 105.564 90.0778 105.015 89.1324C104.809 88.7119 104.604 88.2904 104.401 87.8683C102.012 83.1693 98.8936 79.0378 95.2207 75.2799C94.7589 74.8045 94.3074 74.3193 93.8564 73.8336C90.1171 69.8953 85.6661 66.8082 81.1353 63.8599C80.8933 63.7019 80.6513 63.5439 80.4019 63.3812C80.1887 63.2437 79.9755 63.1063 79.7558 62.9647C79.1568 62.5332 78.6634 62.0621 78.1577 61.5249Z" fill="#3E4E2C"/>
<path d="M195.226 61.1846C195.393 61.5211 195.393 61.5211 195.564 61.8644C195.236 62.0625 194.908 62.2605 194.57 62.4646C183.34 69.3294 173.365 78.2202 167.819 90.4173C167.596 90.4173 167.373 90.4173 167.143 90.4173C167.068 90.2444 166.993 90.0715 166.916 89.8934C166.57 89.0972 166.222 88.302 165.874 87.5068C165.697 87.0989 165.697 87.0989 165.517 86.6829C164.955 85.4024 164.383 84.1835 163.648 82.9936C163.083 81.9194 163.083 81.9194 163.052 81.1958C163.614 80.2271 164.406 79.579 165.261 78.8814C165.55 78.6409 165.55 78.6409 165.846 78.3956C169.98 75.0126 174.337 71.9659 178.985 69.3425C179.262 69.1853 179.54 69.028 179.825 68.866C184.837 66.0387 189.931 63.4342 195.226 61.1846Z" fill="#FF8C33"/>
<path d="M99.812 39.0903C101.372 39.2861 102.604 39.7128 104.023 40.3849C104.227 40.4808 104.431 40.5767 104.641 40.6754C105.302 40.9871 105.962 41.3026 106.621 41.6185C107.082 41.8372 107.542 42.0558 108.002 42.2743C109.335 42.9081 110.664 43.5478 111.992 44.1891C112.326 44.3495 112.659 44.51 113.003 44.6754C119.675 47.9028 126.069 51.6105 132.288 55.6443C133.266 56.2782 134.25 56.9042 135.233 57.5307C135.719 57.8422 136.205 58.1537 136.692 58.4655C136.223 59.8796 135.221 60.3924 134.048 61.2061C133.835 61.3579 133.622 61.5097 133.403 61.6662C132.383 62.3856 131.389 63.0212 130.263 63.5642C130.078 63.3743 129.892 63.1844 129.701 62.9887C125.354 58.4769 125.354 58.4769 120.632 54.3786C119.826 53.7468 119.053 53.0855 118.281 52.411C112.621 47.4827 106.35 43.1006 99.812 39.4302C99.812 39.3181 99.812 39.2059 99.812 39.0903Z" fill="#FE8B32"/>
<path d="M191.504 204.969C192.627 204.941 193.751 204.913 194.909 204.884C195.258 204.871 195.607 204.859 195.967 204.846C198.06 204.821 199.272 205.094 200.978 206.328C202.336 207.829 202.45 209.298 202.425 211.256C202.241 212.925 201.362 213.806 200.153 214.877C198.614 215.88 196.865 215.65 195.099 215.591C193.913 215.563 192.726 215.535 191.504 215.506C191.504 212.029 191.504 208.551 191.504 204.969ZM194.211 207.348C194.211 209.367 194.211 211.386 194.211 213.467C196.85 213.541 196.85 213.541 198.948 212.447C199.682 211.548 199.624 211.077 199.582 209.898C199.348 208.732 199.348 208.732 198.821 207.879C197.347 206.998 195.899 207.267 194.211 207.348Z" fill="#85996F"/>
<path d="M166.361 205.012C167.835 205.85 168.744 206.826 169.511 208.368C169.685 210.096 169.785 211.856 169.004 213.446C167.76 214.977 166.554 215.696 164.595 215.963C162.835 216.027 161.516 215.863 160.038 214.827C158.639 213.395 157.954 212.334 157.902 210.323C157.922 208.593 158.157 207.634 159.361 206.329C161.637 204.602 163.64 204.178 166.361 205.012ZM161.053 208.368C160.528 209.422 160.616 210.265 160.714 211.427C161.322 212.363 161.747 212.966 162.744 213.467C164.055 213.613 164.614 213.575 165.726 212.83C166.672 211.906 166.785 211.633 166.91 210.302C166.785 208.821 166.561 208.32 165.451 207.348C163.509 206.734 162.593 207.078 161.053 208.368Z" fill="#85996F"/>
<path d="M146.166 204.969C147.24 204.941 148.315 204.913 149.422 204.884C149.757 204.872 150.092 204.859 150.437 204.847C152.398 204.822 153.469 205.023 154.963 206.329C155.754 207.574 155.706 208.674 155.49 210.089C155.207 211.076 154.649 211.72 153.947 212.447C154.506 213.457 155.064 214.466 155.639 215.506C153.641 215.716 153.641 215.716 152.594 215.506C152.04 214.941 151.7 214.365 151.307 213.679C150.897 213.001 150.897 213.001 149.782 212.808C149.482 212.801 149.181 212.794 148.872 212.787C148.872 213.685 148.872 214.582 148.872 215.506C147.979 215.506 147.086 215.506 146.166 215.506C146.166 212.029 146.166 208.552 146.166 204.969ZM148.872 207.009C148.872 208.13 148.872 209.252 148.872 210.408C150.398 210.469 150.398 210.469 151.917 210.408C152.678 209.787 152.678 209.787 152.679 208.878C152.678 207.97 152.678 207.97 151.917 207.349C151.172 207.192 151.172 207.192 150.353 207.136C149.864 207.094 149.376 207.052 148.872 207.009Z" fill="#85996F"/>
<path d="M216.88 204.969C217.906 204.948 218.932 204.927 219.988 204.905C220.469 204.892 220.469 204.892 220.959 204.877C222.969 204.857 224.089 205.168 225.613 206.541C226.242 207.805 226.248 209.025 226.015 210.408C225.339 211.449 225.339 211.449 224.662 212.107C225.113 213.329 225.663 214.404 226.354 215.507C225.305 215.651 224.351 215.715 223.308 215.507C222.754 214.941 222.415 214.365 222.021 213.68C221.611 213.001 221.611 213.001 220.496 212.809C220.196 212.802 219.896 212.794 219.587 212.787C219.587 213.685 219.587 214.582 219.587 215.507C218.693 215.507 217.8 215.507 216.88 215.507C216.88 212.029 216.88 208.552 216.88 204.969ZM219.587 207.009C219.587 208.13 219.587 209.252 219.587 210.408C221.112 210.469 221.112 210.469 222.632 210.408C223.393 209.787 223.393 209.787 223.393 208.878C223.393 207.97 223.393 207.97 222.632 207.349C221.887 207.192 221.887 207.192 221.067 207.136C220.578 207.094 220.09 207.052 219.587 207.009Z" fill="#85996F"/>
<path d="M73.0825 204.969C74.1083 204.948 75.1342 204.927 76.1911 204.905C76.6714 204.892 76.6714 204.892 77.1614 204.877C79.1712 204.857 80.2917 205.168 81.8161 206.541C82.4449 207.805 82.4505 209.025 82.2179 210.408C81.5412 211.449 81.5412 211.449 80.8645 212.107C81.3161 213.329 81.8661 214.404 82.5562 215.507C81.5076 215.651 80.5536 215.715 79.5111 215.507C78.9568 214.941 78.6174 214.365 78.2238 213.68C77.8138 213.001 77.8138 213.001 76.6986 212.809C76.3985 212.802 76.0984 212.794 75.7893 212.787C75.7893 213.685 75.7893 214.582 75.7893 215.507C74.8961 215.507 74.0028 215.507 73.0825 215.507C73.0825 212.029 73.0825 208.552 73.0825 204.969ZM75.7893 207.009C75.7893 208.13 75.7893 209.252 75.7893 210.408C77.3149 210.469 77.3149 210.469 78.8344 210.408C79.5954 209.787 79.5954 209.787 79.5957 208.878C79.5954 207.97 79.5954 207.97 78.8344 207.349C78.0892 207.192 78.0892 207.192 77.2695 207.136C76.7811 207.094 76.2926 207.052 75.7893 207.009Z" fill="#85996F"/>
<path d="M133.646 204.969C134.728 204.948 135.81 204.927 136.924 204.905C137.431 204.891 137.431 204.891 137.948 204.877C140.009 204.858 141.176 205.119 142.718 206.562C143.309 207.718 143.3 208.81 143.12 210.068C142.661 211.221 142.247 211.667 141.238 212.383C139.696 212.918 138.306 212.873 136.692 212.787C136.692 213.684 136.692 214.582 136.692 215.506C135.687 215.506 134.682 215.506 133.646 215.506C133.646 212.029 133.646 208.552 133.646 204.969ZM136.692 207.008C136.692 208.13 136.692 209.252 136.692 210.407C138.472 210.559 138.472 210.559 140.096 210.004C140.48 209.374 140.48 209.374 140.413 208.517C140.148 207.627 140.148 207.627 139.314 207.242C138.27 206.94 138.27 206.94 136.692 207.008Z" fill="#85996F"/>
<path d="M205.376 204.969C208.056 204.969 210.735 204.969 213.496 204.969C213.496 205.642 213.496 206.315 213.496 207.008C211.71 207.008 209.923 207.008 208.083 207.008C208.083 207.681 208.083 208.354 208.083 209.048C209.646 209.048 211.209 209.048 212.82 209.048C212.82 209.833 212.82 210.618 212.82 211.427C211.256 211.427 209.693 211.427 208.083 211.427C208.083 212.1 208.083 212.773 208.083 213.467C209.981 213.467 211.879 213.467 213.835 213.467C213.835 214.14 213.835 214.813 213.835 215.506C211.043 215.506 208.252 215.506 205.376 215.506C205.376 212.029 205.376 208.551 205.376 204.969Z" fill="#85996F"/>
<path d="M116.729 204.969C119.409 204.969 122.089 204.969 124.85 204.969C124.85 205.642 124.85 206.315 124.85 207.008C123.063 207.008 121.277 207.008 119.436 207.008C119.436 207.681 119.436 208.354 119.436 209.048C120.999 209.048 122.563 209.048 124.173 209.048C124.173 209.833 124.173 210.618 124.173 211.427C122.61 211.427 121.047 211.427 119.436 211.427C119.436 212.1 119.436 212.773 119.436 213.467C121.334 213.467 123.232 213.467 125.188 213.467C125.188 214.14 125.188 214.813 125.188 215.506C122.397 215.506 119.605 215.506 116.729 215.506C116.729 212.029 116.729 208.551 116.729 204.969Z" fill="#85996F"/>
<path d="M61.5791 204.969C64.2588 204.969 66.9385 204.969 69.6994 204.969C69.6994 205.642 69.6994 206.315 69.6994 207.008C67.9129 207.008 66.1265 207.008 64.2859 207.008C64.2859 207.681 64.2859 208.354 64.2859 209.048C65.849 209.048 67.4122 209.048 69.0227 209.048C69.0227 209.833 69.0227 210.618 69.0227 211.427C67.4596 211.427 65.8964 211.427 64.2859 211.427C64.2859 212.1 64.2859 212.773 64.2859 213.467C66.184 213.467 68.0821 213.467 70.0377 213.467C70.0377 214.14 70.0377 214.813 70.0377 215.506C67.2464 215.506 64.455 215.506 61.5791 215.506C61.5791 212.029 61.5791 208.551 61.5791 204.969Z" fill="#85996F"/>
<path d="M58.1955 205.649C58.0838 206.21 57.9722 206.771 57.8571 207.349C56.8421 207.688 56.8421 207.688 55.827 207.349C55.2988 207.326 54.7697 207.32 54.241 207.327C53.9676 207.33 53.6941 207.333 53.4124 207.337C53.2043 207.341 52.9963 207.344 52.7819 207.349C52.8936 207.685 53.0052 208.022 53.1203 208.368C54.0181 208.758 54.0181 208.758 55.0869 209.048C56.4301 209.443 57.4985 209.778 58.5338 210.748C58.8726 211.866 58.9282 212.567 58.6395 213.701C57.9354 214.947 57.1624 215.399 55.827 215.846C53.5486 216.058 51.8199 215.757 49.7368 214.827C50.0329 213.212 50.0329 213.212 50.4135 212.447C50.6857 212.559 50.9578 212.672 51.2382 212.787C52.6933 213.198 53.9897 213.187 55.4887 213.127C55.4887 212.791 55.4887 212.454 55.4887 212.107C55.0726 211.978 55.0726 211.978 54.6481 211.846C54.2835 211.729 53.9189 211.612 53.5432 211.491C53.1821 211.377 52.8209 211.263 52.4489 211.145C51.4767 210.766 50.8123 210.465 50.0752 209.728C49.7937 208.687 49.8601 207.721 50.0752 206.669C50.7797 205.725 51.309 205.175 52.3801 204.693C54.6993 204.493 56.1188 204.606 58.1955 205.649Z" fill="#85996F"/>
<path d="M113.008 205.649C113.663 206.393 113.663 206.393 114.023 207.009C113.353 207.457 112.683 207.906 111.993 208.368C111.647 208.105 111.647 208.105 111.295 207.837C110.005 207.203 109.306 207.331 107.932 207.688C107.042 208.255 106.937 208.641 106.642 209.664C106.572 210.874 106.806 211.672 107.256 212.787C109.267 213.16 110.531 213.267 112.331 212.107C112.889 212.78 113.447 213.453 114.023 214.147C111.93 215.595 110.453 216.137 107.932 215.846C105.952 215.235 104.858 214.309 103.872 212.447C103.3 210.722 103.343 209.279 104.084 207.625C104.901 206.121 105.982 205.333 107.573 204.714C109.661 204.46 111.136 204.636 113.008 205.649Z" fill="#85996F"/>
<path d="M171.203 204.969C172.208 204.969 173.213 204.969 174.248 204.969C174.383 205.264 174.518 205.559 174.657 205.864C174.836 206.255 175.015 206.647 175.2 207.051C175.376 207.437 175.553 207.824 175.735 208.222C176.237 209.299 176.764 210.364 177.293 211.427C178.187 209.296 179.08 207.165 180 204.969C181.005 204.969 182.01 204.969 183.045 204.969C181.734 208.554 180.213 212.027 178.647 215.506C177.642 215.506 176.637 215.506 175.602 215.506C175.028 214.225 174.456 212.942 173.886 211.66C173.691 211.224 173.497 210.788 173.302 210.352C173.021 209.725 172.742 209.097 172.463 208.469C172.294 208.091 172.126 207.714 171.953 207.325C171.541 206.328 171.541 206.328 171.203 204.969Z" fill="#85996F"/>
<path d="M83.9097 204.969C84.9146 204.969 85.9194 204.969 86.9548 204.969C87.2095 205.471 87.463 205.974 87.7161 206.477C87.8574 206.757 87.9987 207.037 88.1443 207.326C88.7961 208.678 89.3987 210.051 89.9999 211.427C90.0801 211.244 90.1603 211.06 90.243 210.871C90.6052 210.043 90.9687 209.216 91.3321 208.389C91.4584 208.1 91.5847 207.811 91.7148 207.513C91.8358 207.239 91.9568 206.964 92.0815 206.68C92.1931 206.426 92.3048 206.171 92.4198 205.909C92.7067 205.309 92.7067 205.309 93.045 204.969C93.9486 204.921 94.8465 204.954 95.7518 204.969C95.0012 207.391 94.0437 209.658 92.9816 211.958C92.8248 212.301 92.668 212.644 92.5064 212.997C92.1234 213.834 91.739 214.67 91.3533 215.506C90.3484 215.506 89.3435 215.506 88.3082 215.506C87.681 214.06 87.0546 212.614 86.4289 211.168C86.2158 210.676 86.0025 210.183 85.7889 209.691C85.4826 208.985 85.1772 208.279 84.8718 207.573C84.7756 207.351 84.6794 207.13 84.5803 206.902C83.9097 205.347 83.9097 205.347 83.9097 204.969Z" fill="#85996F"/>
<path d="M185.075 204.969C186.08 204.969 187.085 204.969 188.12 204.969C188.12 208.446 188.12 211.923 188.12 215.506C187.115 215.506 186.111 215.506 185.075 215.506C185.075 212.029 185.075 208.551 185.075 204.969Z" fill="#85996F"/>
<path d="M97.7817 204.969C98.7866 204.969 99.7915 204.969 100.827 204.969C100.827 208.446 100.827 211.923 100.827 215.506C99.822 215.506 98.8171 215.506 97.7817 215.506C97.7817 212.029 97.7817 208.551 97.7817 204.969Z" fill="#85996F"/>
<path d="M98.1201 92.7969C98.7968 93.1368 98.7968 93.1368 98.7968 93.1368L98.1201 92.7969Z" fill="#3E4E2C"/>
</svg>
