<svg width="50" height="41" viewBox="0 0 50 41" fill="none" xmlns="http://www.w3.org/2000/svg">
<path d="M39.5439 4.27051H47C48.6567 4.27051 49.9998 5.6138 50 7.27051V38C49.9998 39.6567 48.6567 41 47 41H3C1.34326 41 0.000177329 39.6567 0 38V7.27051C0.000178956 5.61381 1.34326 4.27051 3 4.27051H10.624L12.5195 0H37.6494L39.5439 4.27051ZM25 9.39551C17.8587 9.39571 12.0695 15.1321 12.0693 22.208C12.0693 29.284 17.8586 35.0203 25 35.0205C32.1415 35.0203 37.9316 29.284 37.9316 22.208C37.9315 15.1321 32.1414 9.39567 25 9.39551ZM25 13.666C29.7608 13.6662 33.6209 17.4908 33.6211 22.208C33.6211 26.9253 29.7609 30.7498 25 30.75C20.2391 30.7498 16.3799 26.9253 16.3799 22.208C16.3801 17.4908 20.2392 13.6662 25 13.666ZM42.2412 6.83301C40.8131 6.83309 39.6554 7.98048 39.6553 9.39551C39.6553 10.8107 40.813 11.9579 42.2412 11.958C43.6695 11.958 44.8271 10.8107 44.8271 9.39551C44.827 7.98043 43.6694 6.83301 42.2412 6.83301Z" fill="#FF6F00"/>
</svg>
