<svg width="37" height="37" viewBox="0 0 37 37" fill="none" xmlns="http://www.w3.org/2000/svg">
<path d="M34.6875 34.1094H31.9992V21.1998C32.882 21.0499 33.6834 20.593 34.262 19.9096C34.8406 19.2263 35.1592 18.3606 35.1616 17.4652C35.1616 17.4073 35.1616 17.3495 35.1616 17.2917L31.9934 7.08781V2.3125C31.9934 2.15917 31.9325 2.01212 31.8241 1.9037C31.7157 1.79529 31.5686 1.73438 31.4153 1.73438H5.58469C5.43136 1.73438 5.28431 1.79529 5.17589 1.9037C5.06747 2.01212 5.00656 2.15917 5.00656 2.3125V7.08781L1.86156 17.2917C1.86156 17.3495 1.86156 17.4073 1.86156 17.4652C1.86392 18.3606 2.18251 19.2263 2.76113 19.9096C3.33974 20.593 4.14115 21.0499 5.02391 21.1998V34.1094H2.3125C2.15917 34.1094 2.01212 34.1703 1.9037 34.2787C1.79529 34.3871 1.73438 34.5342 1.73438 34.6875C1.73438 34.8408 1.79529 34.9879 1.9037 35.0963C2.01212 35.2047 2.15917 35.2656 2.3125 35.2656H34.6875C34.8408 35.2656 34.9879 35.2047 35.0963 35.0963C35.2047 34.9879 35.2656 34.8408 35.2656 34.6875C35.2656 34.5342 35.2047 34.3871 35.0963 34.2787C34.9879 34.1703 34.8408 34.1094 34.6875 34.1094ZM30.843 34.1094H22.9573V31.3517H30.843V34.1094ZM6.15703 23.7031H14.0427V30.1955H6.15703V23.7031ZM6.15703 22.5469V21.223C6.70452 21.1476 7.22893 20.9532 7.69334 20.6536C8.15775 20.354 8.55093 19.9564 8.84531 19.4886C9.1871 20.0332 9.66163 20.4823 10.2243 20.7935C10.787 21.1047 11.4195 21.2679 12.0626 21.2679C12.7056 21.2679 13.3382 21.1047 13.9008 20.7935C14.4635 20.4823 14.9381 20.0332 15.2798 19.4886C15.6224 20.0332 16.0974 20.482 16.6606 20.7932C17.2237 21.1043 17.8566 21.2674 18.5 21.2674C19.1434 21.2674 19.7763 21.1043 20.3394 20.7932C20.9026 20.482 21.3776 20.0332 21.7202 19.4886C22.0619 20.0332 22.5365 20.4823 23.0992 20.7935C23.6618 21.1047 24.2944 21.2679 24.9374 21.2679C25.5805 21.2679 26.213 21.1047 26.7757 20.7935C27.3384 20.4823 27.8129 20.0332 28.1547 19.4886C28.4491 19.9564 28.8423 20.354 29.3067 20.6536C29.7711 20.9532 30.2955 21.1476 30.843 21.223V22.5469H6.15703ZM25.7728 7.75266L26.2584 10.4062L27.4552 16.8986H22.252L21.6739 7.76422L25.7728 7.75266ZM27.5072 18.0433C27.3764 18.628 27.0503 19.1507 26.5827 19.5253C26.115 19.8999 25.5337 20.104 24.9345 20.104C24.3354 20.104 23.7541 19.8999 23.2864 19.5253C22.8188 19.1507 22.4927 18.628 22.3619 18.0433H27.5072ZM20.5697 7.75266L21.1478 16.887H15.9447L16.5228 7.75266H20.5697ZM21.1016 18.0433C20.9707 18.628 20.6447 19.1507 20.177 19.5253C19.7094 19.8999 19.1281 20.104 18.5289 20.104C17.9297 20.104 17.3484 19.8999 16.8808 19.5253C16.4131 19.1507 16.0871 18.628 15.9563 18.0433H21.1016ZM14.7422 16.887H9.53906L10.7416 10.4062L11.2272 7.76422H15.2741L14.7422 16.887ZM14.6381 18.0433C14.5073 18.628 14.1812 19.1507 13.7136 19.5253C13.2459 19.8999 12.6646 20.104 12.0655 20.104C11.4663 20.104 10.885 19.8999 10.4173 19.5253C9.9497 19.1507 9.62364 18.628 9.49281 18.0433H14.6381ZM22.9573 23.7031H30.8372V30.1955H22.9573V23.7031ZM31.4269 20.0956H31.3633C30.7662 20.0942 30.1873 19.8896 29.7219 19.5156C29.2564 19.1415 28.9321 18.6203 28.8022 18.0375H33.9359C33.8081 18.6117 33.4914 19.1265 33.0366 19.4996C32.5818 19.8727 32.015 20.0826 31.4269 20.0956ZM28.6345 16.887L26.9464 7.75266H30.9933L33.803 16.887H28.6345ZM6.16281 2.89062H30.8372V6.59641H6.16281V2.89062ZM6.00672 7.75266H10.0536L8.36547 16.887H3.19703L6.00672 7.75266ZM3.06406 18.0433H8.19781C8.06791 18.6261 7.74358 19.1473 7.27813 19.5214C6.81268 19.8954 6.23381 20.1 5.63672 20.1014H5.57313C4.98499 20.0883 4.41823 19.8785 3.96339 19.5054C3.50856 19.1323 3.19191 18.6175 3.06406 18.0433ZM6.15703 31.3402H14.0427V34.1094H6.15703V31.3402ZM15.1989 34.1094V23.7031H21.8011V34.1094H15.1989Z" fill="#BFCBE3"/>
</svg>
