<svg width="20" height="20" viewBox="0 0 20 20" fill="none" xmlns="http://www.w3.org/2000/svg">
<g clip-path="url(#clip0_4979_822)">
<path d="M6.42251 7.71348C6.74834 8.03932 6.74834 8.56682 6.42251 8.89182C6.09668 9.21765 5.56918 9.21765 5.24418 8.89182C4.91834 8.56598 4.91834 8.03848 5.24418 7.71348C5.57001 7.38765 6.09751 7.38765 6.42251 7.71348ZM17.9658 12.7843L17.495 13.2551C17.4725 14.2826 17.0742 15.3026 16.2992 16.0877L13.66 18.761C12.8742 19.5568 11.8258 19.9968 10.7075 20.0001H10.6933C9.58084 20.0001 8.53501 19.5668 7.74834 18.7801L1.56834 12.6526C1.02668 12.1118 0.76501 11.3676 0.848343 10.6085L1.48584 4.84515C1.52834 4.46515 1.82251 4.16265 2.20084 4.11098L7.94168 3.32598C8.71834 3.22265 9.50001 3.48682 10.0483 4.03515L16.2775 10.2118C16.6 10.5343 16.8583 10.8976 17.0533 11.2851C17.73 10.3135 17.635 8.95598 16.7683 8.08932L10.4425 1.91848C10.2517 1.72765 9.98834 1.63932 9.73334 1.67515L3.99251 2.46015C3.53501 2.52182 3.11584 2.20265 3.05334 1.74765C2.99168 1.29182 3.31084 0.871817 3.76584 0.809317L9.50751 0.0234839C10.275 -0.0856827 11.065 0.182651 11.6142 0.733484L17.9383 6.90432C19.56 8.52515 19.5692 11.1601 17.965 12.7851L17.9658 12.7843ZM15.1008 11.3926L8.87168 5.21598C8.68584 5.03015 8.42501 4.94432 8.16584 4.97682L3.07001 5.67432L2.50418 10.791C2.47668 11.0435 2.56334 11.2918 2.74334 11.471L8.92334 17.5985C9.39751 18.0735 10.025 18.3326 10.6925 18.3326H10.7008C11.3725 18.331 12.0017 18.0668 12.4725 17.5885L15.1117 14.9151C16.0742 13.9402 16.0692 12.3593 15.1 11.391L15.1008 11.3926Z" fill="#FF6F00"/>
</g>
<defs>
<clipPath id="clip0_4979_822">
<rect width="20" height="20" fill="white"/>
</clipPath>
</defs>
</svg>
