<svg width="22" height="22" viewBox="0 0 22 22" fill="none" xmlns="http://www.w3.org/2000/svg">
<g clip-path="url(#clip0_1_6353)">
<path d="M9.16667 21.0833C9.16667 21.5893 8.756 22 8.25 22H4.58333C2.05608 22 0 19.9439 0 17.4167V4.58333C0 2.05608 2.05608 0 4.58333 0H11.9167C14.4439 0 16.5 2.05608 16.5 4.58333V6.41667C16.5 6.92267 16.0893 7.33333 15.5833 7.33333C15.0773 7.33333 14.6667 6.92267 14.6667 6.41667V4.58333C14.6667 3.06717 13.4328 1.83333 11.9167 1.83333H4.58333C3.06717 1.83333 1.83333 3.06717 1.83333 4.58333V17.4167C1.83333 18.9328 3.06717 20.1667 4.58333 20.1667H8.25C8.756 20.1667 9.16667 20.5773 9.16667 21.0833ZM12.8333 5.5C12.8333 4.994 12.4227 4.58333 11.9167 4.58333H4.58333C4.07733 4.58333 3.66667 4.994 3.66667 5.5C3.66667 6.006 4.07733 6.41667 4.58333 6.41667H11.9167C12.4227 6.41667 12.8333 6.006 12.8333 5.5ZM4.58333 13.75C4.07733 13.75 3.66667 14.1607 3.66667 14.6667C3.66667 15.1727 4.07733 15.5833 4.58333 15.5833H6.41667C6.92267 15.5833 7.33333 15.1727 7.33333 14.6667C7.33333 14.1607 6.92267 13.75 6.41667 13.75H4.58333ZM22 15.5833C22 19.1217 19.1217 22 15.5833 22C12.045 22 9.16667 19.1217 9.16667 15.5833C9.16667 12.045 12.045 9.16667 15.5833 9.16667C19.1217 9.16667 22 12.045 22 15.5833ZM20.1667 15.5833C20.1667 13.0561 18.1106 11 15.5833 11C13.0561 11 11 13.0561 11 15.5833C11 18.1106 13.0561 20.1667 15.5833 20.1667C18.1106 20.1667 20.1667 18.1106 20.1667 15.5833ZM15.5833 11.9167C14.8243 11.9167 14.2083 12.5327 14.2083 13.2917C14.2083 14.0507 14.8243 14.6667 15.5833 14.6667C16.3423 14.6667 16.9583 14.0507 16.9583 13.2917C16.9583 12.5327 16.3423 11.9167 15.5833 11.9167ZM15.5833 15.5833C15.0773 15.5833 14.6667 15.994 14.6667 16.5V18.3333C14.6667 18.8393 15.0773 19.25 15.5833 19.25C16.0893 19.25 16.5 18.8393 16.5 18.3333V16.5C16.5 15.994 16.0893 15.5833 15.5833 15.5833ZM9.16667 10.0833C9.16667 9.57733 8.756 9.16667 8.25 9.16667H4.58333C4.07733 9.16667 3.66667 9.57733 3.66667 10.0833C3.66667 10.5893 4.07733 11 4.58333 11H8.25C8.756 11 9.16667 10.5893 9.16667 10.0833Z" fill="#FF8C33"/>
</g>
<defs>
<clipPath id="clip0_1_6353">
<rect width="22" height="22" fill="white"/>
</clipPath>
</defs>
</svg>
