<svg width="25" height="25" viewBox="0 0 25 25" fill="none" xmlns="http://www.w3.org/2000/svg">
<rect width="25" height="25" rx="12.5" fill="#EAF0FC"/>
<g clip-path="url(#clip0_1_5372)">
<path d="M12.5 4C7.81296 4 4 7.81296 4 12.5C4 17.187 7.81296 21 12.5 21C17.187 21 21 17.187 21 12.5C21 7.81296 17.187 4 12.5 4ZM12.5 20.2917C8.20396 20.2917 4.70833 16.796 4.70833 12.5C4.70833 8.20396 8.20396 4.70833 12.5 4.70833C16.796 4.70833 20.2917 8.20396 20.2917 12.5C20.2917 16.796 16.796 20.2917 12.5 20.2917ZM12.5 6.83333C9.37554 6.83333 6.83333 9.37554 6.83333 12.5C6.83333 15.6245 9.37554 18.1667 12.5 18.1667C15.6245 18.1667 18.1667 15.6245 18.1667 12.5C18.1667 9.37554 15.6245 6.83333 12.5 6.83333ZM13.4499 13.7495C13.1538 13.6277 12.8329 13.5625 12.5 13.5625C12.1671 13.5625 11.8455 13.627 11.5501 13.7495C11.5827 13.4329 11.5558 13.1077 11.4665 12.7897C11.3794 12.478 11.2378 12.1926 11.0508 11.9425C11.3468 11.8887 11.633 11.774 11.8901 11.6004C12.1366 11.4332 12.3427 11.2215 12.5 10.9792C12.6573 11.2215 12.8634 11.4332 13.1099 11.6004C13.367 11.7747 13.6532 11.8894 13.9493 11.9432C13.763 12.1933 13.6206 12.4788 13.5335 12.7904C13.4442 13.1092 13.4173 13.4336 13.4499 13.7509V13.7495ZM16.9554 10.3268L14.8913 11.1627C14.426 11.349 13.9223 11.2944 13.5065 11.0132C13.0915 10.7327 12.8535 10.2843 12.8535 9.78283V7.55513C14.6569 7.68333 16.1975 8.77983 16.9547 10.3275L16.9554 10.3268ZM12.1458 7.55442V9.78213C12.1458 10.2836 11.9078 10.732 11.4928 11.0125C11.0777 11.293 10.5726 11.3475 10.1122 11.1634L8.05167 10.3105C8.81242 8.77204 10.3481 7.68192 12.1451 7.55442H12.1458ZM7.54167 12.5C7.54167 11.9652 7.62738 11.4495 7.78463 10.9665L9.68225 11.7541C10.2248 11.9716 10.6265 12.4185 10.7837 12.9803C10.941 13.5405 10.8319 14.1285 10.4855 14.5945L9.23529 16.2287C8.19758 15.3192 7.54167 13.9847 7.54167 12.5ZM9.79983 16.6565L11.0833 14.9792C11.4212 14.5287 11.9376 14.2708 12.5 14.2708C13.0624 14.2708 13.5788 14.5287 13.9167 14.9792L15.1832 16.6678C14.409 17.1679 13.4881 17.4583 12.5 17.4583C11.5048 17.4583 10.5776 17.1637 9.79983 16.6565ZM15.7491 16.2421L14.5188 14.6016C14.1681 14.1341 14.0576 13.5434 14.2156 12.981C14.3735 12.4185 14.7752 11.9716 15.3178 11.7548L17.221 10.9842C17.3748 11.4623 17.4583 11.9716 17.4583 12.5007C17.4583 13.9925 16.796 15.3326 15.7491 16.2421Z" fill="#959EB1"/>
</g>
<defs>
<clipPath id="clip0_1_5372">
<rect width="17" height="17" fill="white" transform="translate(4 4)"/>
</clipPath>
</defs>
</svg>
