<svg width="20" height="20" viewBox="0 0 20 20" fill="none" xmlns="http://www.w3.org/2000/svg">
<path d="M0 15H12.5V15.8333H0V15ZM0 18.3333H10V17.5H0V18.3333ZM10 10H0V10.8333H10V10ZM0 8.33333H12.5V7.5H0V8.33333ZM20 17.0833C20 18.6917 18.6917 20 17.0833 20C15.475 20 14.1667 18.6917 14.1667 17.0833C14.1667 15.475 15.475 14.1667 17.0833 14.1667C18.6917 14.1667 20 15.475 20 17.0833ZM19.1667 17.0833C19.1667 15.935 18.2325 15 17.0833 15C15.9342 15 15 15.935 15 17.0833C15 18.2317 15.9342 19.1667 17.0833 19.1667C18.2325 19.1667 19.1667 18.2317 19.1667 17.0833ZM20 9.58333C20 11.1917 18.6917 12.5 17.0833 12.5C15.475 12.5 14.1667 11.1917 14.1667 9.58333C14.1667 7.975 15.475 6.66667 17.0833 6.66667C18.6917 6.66667 20 7.975 20 9.58333ZM19.1667 9.58333C19.1667 8.435 18.2325 7.5 17.0833 7.5C15.9342 7.5 15 8.435 15 9.58333C15 10.7317 15.9342 11.6667 17.0833 11.6667C18.2325 11.6667 19.1667 10.7317 19.1667 9.58333ZM20 2.08333V5H0V2.08333C0 0.935 0.934167 0 2.08333 0H17.9167C19.0658 0 20 0.935 20 2.08333ZM19.1667 2.08333C19.1667 1.39417 18.6058 0.833333 17.9167 0.833333H2.08333C1.39417 0.833333 0.833333 1.39417 0.833333 2.08333V4.16667H19.1667V2.08333Z" fill="#FF6F00"/>
</svg>
